<?xml version="1.0" encoding="UTF-8"?>
<svg id="Layer_1" xmlns="http://www.w3.org/2000/svg" version="1.1" viewBox="0 0 750 500">
  <!-- Generator: Adobe Illustrator 29.8.1, SVG Export Plug-In . SVG Version: 2.1.1 Build 2)  -->
  <defs>
    <style>
      .st0 {
        fill: #cb5569;
      }

      .st1 {
        font-family: ArialMT, Arial;
        font-size: 14px;
      }

      .st1, .st2 {
        fill: #fff;
      }

      .st1, .st3, .st4 {
        isolation: isolate;
      }

      .st5 {
        fill: #4d7d80;
      }

      .st6 {
        fill: #544a65;
      }

      .st7 {
        fill: #d16f42;
      }

      .st8 {
        fill: none;
      }

      .st9, .st4 {
        fill: #dee8f0;
      }

      .st10 {
        fill: #76a6a5;
      }

      .st11 {
        fill: #d27878;
      }

      .st12 {
        fill: #312a45;
      }

      .st13 {
        fill: #402549;
      }

      .st14 {
        fill: #e6b161;
      }

      .st15 {
        fill: #fffbde;
      }

      .st4 {
        opacity: .5;
      }

      .st16 {
        fill: #d37588;
      }
    </style>
  </defs>
  <g>
    <path class="st4" d="M268.98,134.8c110.74-45.78,126.78,68.32,184.99,57.47,58.22-10.85,78.6,1.73,104.05,51.54,37.44,73.26-9.9,171.86-82.65,160.64-131.83-20.33-156.18,33.14-251.9,14.33s-113.13-139.46-34.59-176.88c38.84-18.51-4.83-71.98,80.11-107.09h-.01Z"/>
    <path class="st4" d="M533.98,126.76c-95.54-39.5-109.38,58.94-159.6,49.58-50.23-9.36-67.81,1.49-89.77,44.46-32.3,63.21,8.54,148.27,71.31,138.59,113.73-17.54,134.74,28.59,217.33,12.37s97.6-120.32,29.84-152.6c-33.51-15.97,4.16-62.1-69.11-92.39h0Z"/>
  </g>
  <path class="st9" d="M209.36,442.93s419.07-9.49,426.07-2.7-40.24,27.12-95.62,28.97-89.55-.5-150.86-3.07-130.07,9.53-170.29,7.69-94.83-15.96-103.4-21.42c-14.83-9.46,94.1-9.46,94.1-9.46h0Z"/>
  <g>
    <path class="st10" d="M255.44,420.03s11.84-51.62-6.08-90.83-27-61.73-29.24-57.67c-2.24,4.06-.55,38.27,7.49,65.58s21.65,68.42,27.84,82.91h0Z"/>
    <path class="st13" d="M243.59,362.87c-2.87-39.15-16.8-59.8-16.94-60.01l1.12-.77c.14.21,14.28,21.13,17.18,60.68l-1.36.1h0Z"/>
    <path class="st5" d="M272.78,423.43s-11.84-42.01,6.08-73.91,27-50.23,29.24-46.93.55,31.15-7.49,53.37-21.64,55.67-27.84,67.47h.01Z"/>
    <path class="st10" d="M273.03,406.56s-20.77-34.31-11.07-72.73c9.7-38.42,14.11-59.95,16.98-57.85,2.87,2.1,7.61,29.22,5.07,53.94-2.55,24.72-7.81,62.63-10.98,76.64Z"/>
    <path class="st5" d="M250.4,415.68s28.28-13.78,22.39-89.96c-3.52-45.56-12.01-70.2-16.01-67.17-3.99,3.03-13.15,36.68-12.48,66.19s3.46,74.52,6.1,90.95h0Z"/>
    <path class="st13" d="M253.43,416.36l-1.3-.42c.11-.35,11.17-34.9,5.44-55.47-5.82-20.89-1.95-65.09-1.91-65.53l1.36.12c-.04.44-3.89,44.39,1.86,65.04,5.84,20.97-4.99,54.82-5.46,56.25h.01Z"/>
    <path class="st13" d="M272.37,406.7c-8.32-39.94,5.52-93.84,5.66-94.38l1.32.34c-.14.54-13.9,54.13-5.64,93.76l-1.33.28h-.01Z"/>
    <path class="st13" d="M283.03,381.08l-1.36-.12c2.91-32.23,18.64-53.39,18.8-53.6l1.09.82c-.16.21-15.66,21.08-18.53,52.9Z"/>
    <path class="st5" d="M245.44,428.46s11.84-42.01-6.08-73.91-27-50.23-29.24-46.93-.55,31.15,7.49,53.37c8.04,22.22,21.65,55.67,27.84,67.47h0Z"/>
    <path class="st13" d="M235.19,386.11c-2.87-31.82-18.38-52.69-18.53-52.9l1.09-.82c.16.21,15.89,21.37,18.8,53.6l-1.36.12Z"/>
    <path class="st7" d="M227.45,391.8s60.49-4.56,61.16.46-.19,42.64-6.26,51.69l-48.9-1.01c-8.28-7.08-6-51.14-6-51.14h0Z"/>
  </g>
  <g>
    <path class="st15" d="M372.82,417.71s-30.67,3.99-30.67,6.66-.67,20.67-.67,20.67h32.67l-1.32-27.32h0Z"/>
    <path class="st11" d="M335.78,207.05s4.49-21.3.35-19.76c-4.14,1.54-4.14,12.54-4.14,12.54,0,0-2.65-20.42-5.01-16.75s-2.34,14.48-2.34,14.48c0,0-4.06-15.15-6.43-12.25s1.28,13.68,1.28,13.68c0,0-5.56-9.61-6.99-5.86-.78,2.06,3.83,8.53,4.42,16.13s1.51,78.19,7.51,81.64c6,3.45,68.36.36,78.89-13.71,3.27-4.36.7-26-2.74-27.08s-57.7,12.15-57.7,12.15c0,0-7.01-49.73-7.09-55.21h-.01Z"/>
    <path class="st11" d="M334.24,202.88s7.49-6.65,8.13-4.52-5.66,10.69-6.57,10.9c-.91.21-4.26-4.16-1.55-6.39h-.01Z"/>
    <path class="st11" d="M429.93,202.43s3.59,24.91-1.13,35.23-33.41-2.13-43.32,32.96c-9.91,35.09-14.1,72.26-7.05,74.92,7.05,2.66,80.17,19.01,85.08,20.2,15.26,3.7,27.76-107.61,22.38-111-5.38-3.39-29.87-9.9-32.51-13.12s2.62-30.39,2.62-30.39l-26.06-8.81h-.01Z"/>
    <path class="st11" d="M436.07,177.86s18.63-.06,26.11,6.69,1.62,15.84,1.77,24.66c.15,9.27-6.67,14.6-6.67,14.6,0,0-11.19,5.94-18.2,5.05-2.78-.35-22.16-12.96-16.7-24.58,5.69-12.11,5.85-27.07,13.7-26.42h0Z"/>
    <path class="st12" d="M456.8,199.78s-1.66-.54-4.13-1.77,1.54-1.55,3.13-.91,2.48,3.24,1,2.68h0Z"/>
    <path class="st12" d="M433.63,194.37s1.73.24,4.49.22c2.76-.03-.71-2.07-2.42-2.19s-3.64,1.83-2.07,1.97h0Z"/>
    <path class="st11" d="M427.38,207.12s-.89-7.34-5.61-7.69c-4.72-.36-6.51,8.48-.45,11.11,6.07,2.64,6.05-3.42,6.05-3.42h.01Z"/>
    <path class="st11" d="M459.44,213.72s3.71-6.39,8.19-4.85c4.47,1.53,2.64,10.36-3.98,10.39-6.61.03-4.21-5.53-4.21-5.53h0Z"/>
    <path class="st12" d="M463.92,210.55c-3.55.32,2.78-14.98-.93-21.49s-9.64-.75-15.64-2.24-6.87-8.61-11.97-5.72c-5.11,2.89-7.58,19.21-10.38,20.1s-2.82.22-3.13-6.59,3.2-20.12,12.32-23.59c9.12-3.48,28.99,2.08,35.84,10.77,11.53,14.64-2.57,28.45-6.12,28.77h.01Z"/>
    <ellipse class="st12" cx="434.95" cy="203.35" rx="2.19" ry="1.49" transform="translate(195.7 619.63) rotate(-85.17)"/>
    <ellipse class="st12" cx="452.45" cy="207.73" rx="2.19" ry="1.49" transform="translate(207.36 641.08) rotate(-85.17)"/>
    <path class="st12" d="M464.27,193.08s-5,30.96-11.14,27.62c-6.13-3.34-6.76-8.15-11.46-8.82-6.66-.94-8.34,5.43-13.7,2.19s.44-16.9-1.07-17.34-4.06.88-4.6,1.79c-.54.91.28,8.96-.98,12.02s-8.06,14.77,8.19,24.4c9.33,5.53,36.56,2.89,33.5-10.61-1.5-6.63,1.24-16.6,2.95-16.83,1.7-.23-1.68-14.42-1.68-14.42h0Z"/>
    <line class="st8" x1="447.09" y1="206.43" x2="440.67" y2="205.11"/>
    <path class="st12" d="M444.39,211.57c-1.16-.02-5.02-.12-5.86-.65-.16-.1-.27-.27-.3-.46-.19-1.1,2.83-5.17,4.65-7.49l.79.62c-2,2.55-4.15,5.65-4.42,6.57.74.23,3.13.39,5.16.42v1h-.02Z"/>
    <path class="st12" d="M496.61,384.18s-100.27-10.13-138.28,7.86c-8.37,3.96-1.61,42.2,1.98,53s112.71-2.13,132.5-6.62c19.79-4.49,17.29-48.83,3.8-54.24Z"/>
    <path class="st12" d="M466.84,357.74s42.52,28.79,35.32,38.68c-7.2,9.89-55.05,36.32-69.44,21.02s-22.48-28.8-29.67-40.49c-7.19-11.7-5.39-31.49,2.71-31.49s61.08,12.28,61.08,12.28h0Z"/>
    <path class="st11" d="M498.36,286.05s31.92,131.07,36.31,133.94,26.44,19.24,21.87,20.86c-4.56,1.62-17.47-14.02-17.47-14.02,0,0,18.14,15.58,12.68,17.17-5.46,1.59-20.83-13.48-20.83-13.48,0,0,21.09,14.68,14.09,15.23-5.87.45-16.47-9.78-21.03-8.15-4.56,1.62-14.41,10.24-14.27,6.53.22-5.6,7.89-10.85,8.03-14.45s-41.97-102-42.38-114.62,23-29,23-29h0Z"/>
    <path class="st15" d="M294.66,399.45s-6.3,36.26-8.89,39.59-35.89-.38-42.92-1.49,19.98-11.83,25.54-22.19c3.99-7.44,2.23-19.24,4.08-19.24s22.2,3.34,22.2,3.34h0Z"/>
    <path class="st16" d="M266.9,414.24s23.09,2.34,24.57,5.3-3.12,21.72-3.86,23.57-51.06.35-52.17-2.24,24.2-15.84,25.68-18.06,5.77-8.57,5.77-8.57h0Z"/>
    <path class="st14" d="M429.08,252.85s4.33,7.36,11.93,7.23c7.61-.14,19.48-14.58,24.41-14.43s25.24,7.27,28.07,13.83c2.83,6.55-18.48,97.23-18.66,102.93-.18,5.7-51.69-7.48-62.99-10.88s-37.6-12.99-38.64-16.07,9.25-81.59,17.84-91.75c3.49-4.12,26.66-3.77,29.26-1.79s8.78,10.93,8.78,10.93h0Z"/>
    <path class="st2" d="M427.29,237.59s8.83,21.19,11.92,19.39c3.1-1.8,13.09-17.07,16.48-15.82,3.38,1.25,6.09.05,7.53,2.76s-4.22,27.24-6.56,29.06c-2.34,1.83-17.61-10.68-17.61-10.68,0,0-19.12,10.11-19.89,7.24-5.31-20-2.19-29.69-2.19-29.69,0,0,8.45-3.09,10.32-2.27h0Z"/>
    <path class="st12" d="M327.14,209.23c-1.41-6.6,4.55-9.81,4.61-9.84l.46.88c-.22.12-5.35,2.9-4.1,8.74l-.98.21h.01Z"/>
    <path class="st14" d="M313.45,223.79s23.94-3.92,26.69-2.35c2.75,1.57,1.56,31.01,5.48,31.79,3.92.79,41.42-10.19,52.76-10.85,3.33-.19,8.07,41.88,2.96,45.02-5.1,3.14-79.68,14.89-82.42,6.25-2.37-7.45-9.39-67.9-5.47-69.86h0Z"/>
    <path class="st14" d="M511.05,407.97s24.75-4.1,25.42-7.43-39.01-142.66-42.96-141.06-14.86,33.01-19.75,49.63c-4.9,16.63,28.63,100.86,37.3,98.86h0Z"/>
    <path class="st12" d="M411.85,351.53s-84.99-61.84-105.65-57.18c-12.29,2.77-53.37,92.42-53.37,106.65,0,4.44,56.63,19.18,59.33,14.69s17.35-47.99,17.35-47.99c0,0,29.93,23.95,48.82,29.35s19.33,8.54,23.83,1.34,13.79-18.72,10.19-20.52-.5-26.33-.5-26.33h0Z"/>
    <path class="st16" d="M352.14,446.37s2.08-26.86-5.32-26c-23.15,2.69-24.99-1.65-35.46,13.57-8.32,12.1-7.88,17.08-3.21,18.42s33.98-6.34,44-5.98h-.01Z"/>
    <path class="st2" d="M482.92,325.9l-1.47-.3c9.21-45.29,4.92-60.82,4.87-60.97l1.44-.42c.19.63,4.44,16.04-4.84,61.69Z"/>
    <path class="st2" d="M378.1,292.22l-1.46-.34c5.3-22.5,14.33-39.67,14.42-39.84l1.33.7c-.09.17-9.02,17.18-14.28,39.48h-.01Z"/>
    <path class="st2" d="M461.21,359.19c-18.68,0-56.68-15.38-58.48-16.11l.57-1.39c.49.2,49.08,19.86,63.32,15.33l.45,1.43c-1.6.51-3.58.74-5.85.74h-.01Z"/>
    <path class="st2" d="M341.55,281.4c-2.05-3.69-.26-10.37,1.47-16.83,1.22-4.55,2.37-8.85,1.87-11.17-.02-.09-.04-.16-.06-.22-1.6,1.09-5.97,10.39-9.26,18.79l-1.4-.55c6.84-17.46,9.75-19.9,10.89-19.83.45.04,1.05.32,1.3,1.48.58,2.67-.62,7.14-1.89,11.87-1.58,5.89-3.36,12.56-1.61,15.72l-1.31.73h0Z"/>
    <path class="st2" d="M441.24,219.2c-.26,0-.51-.03-.77-.08-2.63-.54-3.88-3.74-3.93-3.87l.93-.36s1.11,2.82,3.2,3.25c1.3.27,2.76-.42,4.35-2.04l.71.7c-1.56,1.6-3.07,2.4-4.5,2.4h0Z"/>
    <path class="st2" d="M444.79,206.6c-.99-.54-2.9-1.24-3.8-.82l-.64-1.35c1.88-.89,4.83.68,5.16.86l-.72,1.32h0Z"/>
    <rect class="st2" x="424.33" y="195.61" width="1.5" height="7.4" transform="translate(8.3 415.44) rotate(-52.53)"/>
    <rect class="st2" x="457.77" y="207.82" width="8.12" height="1.5"/>
    <path class="st12" d="M430.41,174.4s2.3-10.71,12.67-13.33,19.33,3.76,22.96,2.26,5.5,5.13,0,8.12c0,0,5.38-3,6.75-2s2.25,6.5-2.75,9c0,0,5.13-2.87,5.88-1.62s1.62,10.25-7.51,14.37-1-10.5-13.87-9.51c-12.88,1-17.5-10.67-24.12-7.3h-.01Z"/>
    <circle class="st0" cx="429.97" cy="208.15" r="3.79"/>
    <circle class="st0" cx="453.53" cy="214.18" r="3.79"/>
    <path class="st2" d="M434.71,209.44h0c-1.94,0-3.76-.76-5.13-2.12s-2.12-3.19-2.12-5.13c0-4,3.25-7.25,7.25-7.25s7.25,3.26,7.25,7.25-3.26,7.25-7.25,7.25ZM434.71,196.44c-3.17,0-5.75,2.58-5.75,5.75,0,1.54.6,2.98,1.68,4.07,1.08,1.09,2.53,1.68,4.06,1.68v.75-.75c3.17,0,5.75-2.58,5.75-5.75s-2.58-5.75-5.75-5.75h.01Z"/>
    <path class="st2" d="M451.46,213.95h0c-1.94,0-3.76-.76-5.13-2.12s-2.12-3.19-2.12-5.13c0-4,3.25-7.25,7.25-7.25s7.25,3.26,7.25,7.25-3.25,7.25-7.25,7.25ZM451.46,200.95c-3.17,0-5.75,2.58-5.75,5.75,0,1.54.6,2.98,1.68,4.07,1.09,1.09,2.53,1.68,4.07,1.69v.75-.75c3.17,0,5.75-2.58,5.75-5.75s-2.58-5.75-5.75-5.75h0Z"/>
    <path class="st2" d="M373.14,386.68l-.13-.99c3.21-.42,78.73-10.29,89.38-9.1l-.11.99c-10.52-1.18-88.36,9-89.14,9.1Z"/>
    <path class="st2" d="M329.48,368.2c-.16,0-.31-.06-.43-.18-1.12-1.08.73-16.09,1.93-24.94l.99.14c-1.41,10.38-2.62,21.94-2.25,23.92,3.27-.82,4.79-5.39,6.27-9.82,1.26-3.78,2.45-7.34,4.73-8.48l.45.89c-1.92.96-3.04,4.33-4.23,7.91-1.62,4.85-3.29,9.86-7.36,10.56h-.1Z"/>
    <path class="st7" d="M391.19,293.2s-11.53,6.61-11.16,13.12c.37,6.52,2.13,13.49,3.79,14.2.81.35,11.43-6.63,12.31-11.12.87-4.49-1.45-17.1-4.93-16.2h-.01Z"/>
    <path class="st2" d="M410.13,297.69s-11.53,6.61-11.16,13.12c.37,6.52,2.13,13.49,3.79,14.2.81.35,11.43-6.63,12.31-11.12s-1.45-17.1-4.93-16.2h-.01Z"/>
    <path class="st7" d="M430.95,303.85s-11.53,6.61-11.16,13.12c.37,6.52,2.13,13.49,3.79,14.2.81.35,11.43-6.63,12.31-11.12.87-4.49-1.45-17.1-4.93-16.2h-.01Z"/>
    <path class="st2" d="M452.25,308.82s-11.53,6.61-11.16,13.12c.37,6.52,2.13,13.49,3.79,14.2.81.35,11.43-6.63,12.31-11.12.87-4.49-1.45-17.1-4.93-16.2h-.01Z"/>
    <path class="st7" d="M472.61,313.55s-11.53,6.61-11.16,13.12c.37,6.52,2.13,13.49,3.79,14.2.81.35,11.43-6.63,12.31-11.12.87-4.49-1.45-17.1-4.93-16.2h-.01Z"/>
    <path class="st2" d="M315.27,219.54s23.9-4.76,25.61-2.9,4.52,9.14,2.67,10.4-8.13,1.88-9.51,2.71-6.01-5.63-6.01-5.63c0,0,.64,5.84-1.19,6.65-1.82.81-13.97,2.52-14.28-.63s-.93-9.43,2.7-10.61h0Z"/>
    <path class="st2" d="M535.14,409.62s-26.61,8.33-28.32,6.47c-1.71-1.86-4.34-10.24-2.5-11.5s10.66-4.35,12.03-5.18,6.01,5.63,6.01,5.63c0,0-.64-5.84,1.19-6.65s13.97-2.52,14.28.63c.31,3.14.93,9.43-2.7,10.61h0Z"/>
    <path class="st6" d="M448.85,182.47l-1.4-.55c.09-.23,2.21-5.53,6.95-6.34,1.74-.3,3.54,0,5.13.24,3.08.49,4.29.51,4.77-1.2l1.44.41c-.89,3.16-3.84,2.69-6.45,2.28-1.55-.25-3.14-.5-4.64-.24-3.9.67-5.79,5.36-5.81,5.41h.01Z"/>
    <path class="st6" d="M440.81,178.28c-.05-.18-1.23-4.53,5.53-7.64,3.12-1.43,5.57-1.25,7.54-1.1,2.12.16,3.39.25,4.67-1.52l1.22.88c-1.77,2.46-3.82,2.3-6,2.14-1.89-.14-4.03-.3-6.8.97-5.6,2.57-4.73,5.82-4.72,5.86l-1.44.42h0Z"/>
    <path class="st6" d="M435.79,177.04c-.01-.1-1.22-10.06,8.38-13.35l.49,1.42c-8.42,2.88-7.43,11.37-7.38,11.73l-1.49.2h0Z"/>
    <path class="st6" d="M464.14,186.29c-2.43,0-4.59-.7-4.73-.75l.47-1.42s4.66,1.51,7.48,0c.99-.53,1.62-1.36,1.94-2.52l1.45.4c-.43,1.57-1.33,2.73-2.68,3.45-1.2.64-2.6.85-3.93.85h0Z"/>
    <path class="st15" d="M252.93,427.99s1.14,8.51,3.39,12.01c2.25,3.5,30.75-1.24,31.5.26s-.25,5.5-.75,6.5-48.25-2.02-52-2.02.11-11.01,17.86-16.75h0Z"/>
    <path class="st2" d="M270.05,425.8c-4.54-4.3-7.44-5.33-7.47-5.34l.48-1.42c.13.04,3.21,1.11,8.03,5.67l-1.03,1.09h-.01Z"/>
    <path class="st2" d="M259.58,432.88c-.37-2.2-3.14-4.54-4.18-5.26l.85-1.24c.17.12,4.27,2.97,4.81,6.25l-1.48.25Z"/>
    <path class="st2" d="M264.63,430.06c-1.63-3.73-5.42-6.14-5.46-6.17l.8-1.27c.17.11,4.22,2.67,6.04,6.84l-1.37.6h-.01Z"/>
    <path class="st2" d="M330.25,449.16c-.18-1.99-3.91-8.47-5.33-10.8l1.28-.78c.54.89,5.3,8.75,5.55,11.45l-1.49.14h-.01Z"/>
    <path class="st2" d="M338.27,448.05l-1.3-.76c.98-1.68-1.89-7.47-4.23-11.05l1.25-.82c1.03,1.57,6.08,9.54,4.28,12.63Z"/>
    <path class="st2" d="M344.99,446.62l-1.48-.27c.88-4.82-3.6-10.95-3.65-11.02l1.21-.89c.2.27,4.91,6.72,3.92,12.18Z"/>
    <path class="st15" d="M327.22,421.87s-16.26,13.05-13.49,14.2c6.86,2.84,12.3,12.31,10.88,14.91s-14.67,4.26-19.64,2.6c-6.7-2.23,2.61-18.93,9.95-26.03,5.05-4.89,9.71-6.39,12.31-5.68h-.01Z"/>
    <path class="st2" d="M368.82,446.14c-.06-.31-5.98-31.26-3.99-47.16l.99.12c-1.97,15.74,3.92,46.53,3.98,46.84l-.98.19h0Z"/>
    <path class="st2" d="M307.29,408.52c-12.93-1-44.79-13.52-46.14-14.05l.37-.93c.33.13,33.07,12.99,45.85,13.98l-.08,1h0Z"/>
    <path class="st2" d="M408.49,381.99s-.08,0-.11-.01c-.36-.07-.54-.38-.54-.92,0-4.41,2.1-20.29,6.09-26.27l.83.55c-3.63,5.44-5.71,19.96-5.91,25,1.6-2.63,5.61-11.92,9.03-20.46l.93.37c-8.21,20.5-9.76,21.75-10.32,21.75h0Z"/>
    <path class="st6" d="M435.18,237.15c-1.42-4.02,1.07-7.93,1.17-8.1l1.26.81s-2.19,3.47-1.02,6.79l-1.41.5h0Z"/>
    <path class="st6" d="M444.36,238.25c-3-1.25-3.08-7.63-3.08-8.35h1.5c0,2.35.59,6.31,2.16,6.97l-.58,1.39h0Z"/>
    <path class="st6" d="M427.27,234.79c-.46-4.18,2.42-8.23,2.55-8.4l1.22.88s-2.67,3.76-2.27,7.36l-1.49.16h-.01Z"/>
    <path class="st12" d="M544.32,442.3c-1.09-2.09-7.3-6.23-9.6-7.65l.53-.85c.35.21,8.53,5.29,9.97,8.04l-.89.46h-.01Z"/>
    <path class="st12" d="M550.48,438.67c-1.69-2.38-9.4-6.91-9.47-6.95l.51-.86c.32.19,7.97,4.68,9.78,7.24l-.81.58h-.01Z"/>
  </g>
  <path class="st16" d="M404.44,173.88c5.45-6.69,8.72-15.22,8.72-24.52,0-21.46-17.4-38.86-38.86-38.86s-38.86,17.4-38.86,38.86,17.4,38.86,38.86,38.86c7.31,0,14.15-2.02,19.99-5.53l13.32,4.83-3.17-13.63h0Z"/>
  <g class="st3">
    <text class="st1" transform="translate(348.09 143.54)"><tspan x="0" y="0">HELLO</tspan></text>
    <text class="st1" transform="translate(348.09 160.34)"><tspan x="0" y="0">I’M MATT</tspan></text>
  </g>
</svg>