<?xml version="1.0" encoding="UTF-8"?>
<svg id="Layer_1" xmlns="http://www.w3.org/2000/svg" version="1.1" viewBox="0 0 700 500">
  <!-- Generator: Adobe Illustrator 29.8.1, SVG Export Plug-In . SVG Version: 2.1.1 Build 2)  -->
  <defs>
    <style>
      .st0 {
        fill: #304f91;
      }

      .st1 {
        fill: #fff;
      }

      .st2 {
        fill: #e6f5ff;
      }

      .st3 {
        fill: #464559;
      }

      .st4 {
        fill: #385aa3;
      }

      .st5 {
        fill: #4972c7;
      }

      .st6 {
        fill: #1a5680;
      }

      .st7 {
        fill: #c7e1f8;
      }

      .st8 {
        fill: #e6996f;
      }

      .st9 {
        fill: #547cd1;
      }

      .st10 {
        fill: #cc835b;
      }

      .st11 {
        fill: #214a6a;
      }

      .st12 {
        fill: #226b9e;
      }

      .st13 {
        fill: #dcedfd;
      }

      .st14 {
        fill: #3c3b4d;
      }

      .st15 {
        fill: #f0f3fa;
      }

      .st16 {
        fill: #fec164;
      }

      .st17 {
        fill: #313042;
      }

      .st18 {
        fill: #f3aa81;
      }

      .st19 {
        fill: #dde1eb;
      }
    </style>
  </defs>
  <g>
    <path class="st13" d="M178.5,275.68l-.03-.06s.04-.04.05-.07c.16-.39,15.4-39.51-.58-82.5-.08-.21-.28-.35-.52-.34-.23.02-.42.18-.47.4-.09.42-9.08,41.96.11,80.41-2.03-3.08-4.55-5.95-7.09-8.7-1.78-1.92-3.57-3.84-5.38-5.74v-.08c-2.08-9.67.76-31.11,2.84-46.77.51-3.81.98-7.41,1.34-10.43,1.82-15.56-1.95-24.67-2.11-25.05-.07-.17-.23-.29-.4-.31-.18-.03-.36.05-.47.19-.31.39-7.7,9.79-9.77,33.26-1.73,19.7,4.75,41.02,6.91,47.46-6.93-7.21-14.07-14.26-21.4-21.09,0,0,.02-.02.02-.03.16-.39,15.4-39.51-.58-82.5-.08-.21-.29-.35-.52-.34-.23.02-.42.18-.47.4-.09.43-9.23,42.63.33,81.33-4.35-4.03-8.76-8-13.22-11.87-.96-.83-1.93-1.66-2.9-2.49-1.61-9.84,2.03-30.95,4.7-46.4.65-3.79,1.27-7.36,1.74-10.38,2.43-15.48-.98-24.73-1.12-25.12-.06-.17-.21-.29-.39-.33-.18-.03-.36.03-.48.17-.33.38-8.08,9.48-11.06,32.85-2.53,19.84,3.26,41.66,5.11,47.9-.76-.65-1.52-1.31-2.29-1.96-4.35-3.72-8.74-7.47-13.02-11.34.44-3.71,4.47-43.55-18.91-80.19-.12-.19-.36-.28-.58-.22-.22.07-.37.27-.37.5,0,.43.86,42.6,17.66,77.9-6.37-5.88-12.41-12.07-17.64-18.83-1.09-2.69-17.87-43.28-42.11-58.85-.19-.12-.45-.11-.62.05-.17.15-.22.4-.12.61.97,1.96,23.84,48.2,42.13,58.94,4.88,6.3,10.46,12.09,16.35,17.6-5.71-3.08-16.92-8.48-29.16-10.78-17.39-3.28-28.6-6.44-28.71-6.47-.2-.05-.42,0-.54.18-.13.16-.15.39-.05.57.07.13,7.16,12.7,21.3,16.54,10.54,2.86,28.21,3.22,36.41,3.22,2.22,0,3.73-.03,4.24-.04,4.3,3.89,8.71,7.66,13.08,11.4.98.84,1.94,1.67,2.92,2.51-3.01.62-13.16,2.07-27.35-2.86-17.3-6.01-39.54.63-39.76.7-.24.07-.39.3-.36.55s.23.44.48.46c7.03.5,13.94,3.09,20.61,5.6,7.42,2.79,15.08,5.66,22.95,5.66.5,0,1,0,1.5-.04,13.86-.66,21.44-7.49,23.05-9.1.88.76,1.77,1.51,2.65,2.27,4.36,3.78,8.66,7.65,12.91,11.58-4.96-.73-19.51-2.4-33.8.37-17.38,3.36-28.96,4.55-29.08,4.57-.21.02-.38.16-.44.37-.06.2,0,.42.17.55.1.08,9.55,7.72,22.34,7.72,1.16,0,2.35-.06,3.55-.2,13.46-1.52,35.71-10.66,38.78-11.95,7.58,7.07,14.98,14.37,22.13,21.85-3.02.74-13.08,2.56-27.41-1.79-17.52-5.32-39.48,2.18-39.7,2.26-.24.08-.38.32-.34.57s.25.43.49.44c7.05.22,14.05,2.54,20.82,4.79,7.11,2.36,14.44,4.78,21.85,4.78.93,0,1.87-.04,2.8-.12,13.38-1.17,20.67-7.89,22.52-9.84,1.75,1.84,3.49,3.69,5.21,5.55,2.76,2.98,5.49,6.11,7.56,9.48-4.44-.68-19.5-2.56-34.28.29-17.38,3.36-28.96,4.55-29.08,4.57-.21.02-.38.16-.44.36-.06.2,0,.42.17.55.1.08,9.55,7.72,22.34,7.72,1.16,0,2.35-.06,3.55-.2,13.2-1.49,34.82-10.3,38.57-11.86,1.34,2.47,2.29,5.07,2.61,7.85.03.26.25.46.51.46h.06c.28-.03.49-.29.45-.57-.34-2.98-1.36-5.73-2.79-8.33,0-.06.04-.11.04-.17h0Z"/>
    <path class="st15" d="M432.68,108.15c3.73-.34,43.53-4.68,74.52-35.15.17-.16.2-.41.09-.62-.11-.2-.34-.31-.57-.25-.42.1-41.49,9.69-72.53,33.45,4.43-7.45,9.23-14.64,14.75-21.16,2.34-1.58,38.61-26.44,48.82-53.42.08-.22.01-.46-.18-.6-.19-.14-.44-.13-.62.01-1.72,1.35-42.2,33.33-48.9,53.45-5.15,6.09-9.65,12.75-13.82,19.65,1.83-6.22,4.78-18.31,4.49-30.76-.4-17.69.36-29.32.37-29.43.01-.21-.1-.4-.29-.5-.19-.09-.41-.06-.57.07-.11.1-10.94,9.65-11.76,24.27-.61,10.9,2.71,28.26,4.41,36.29.46,2.18.8,3.65.92,4.14-2.91,5.01-5.69,10.11-8.43,15.16-.61,1.13-1.23,2.25-1.85,3.38-1.23-2.81-4.76-12.42-2.88-27.34,2.28-18.17-8.83-38.55-8.94-38.75-.12-.22-.38-.32-.62-.24-.24.08-.38.31-.35.56.97,6.99-.13,14.28-1.2,21.33-1.18,7.84-2.41,15.93-.77,23.63.1.49.22.98.35,1.46,3.53,13.42,11.78,19.42,13.69,20.66-.56,1.02-1.11,2.05-1.67,3.06-2.79,5.04-5.68,10.06-8.65,15.03-.32-5-1.71-19.58-7.38-32.99-6.9-16.3-10.47-27.39-10.51-27.5-.06-.2-.24-.34-.45-.36-.21-.02-.41.09-.5.28-.06.12-5.57,10.95-2.91,23.46.24,1.13.55,2.28.93,3.43,4.29,12.86,17.85,32.71,19.74,35.45-5.34,8.89-10.95,17.64-16.78,26.18-1.35-2.77-5.23-12.21-3.94-27.18,1.57-18.25-10.33-38.17-10.45-38.37-.13-.21-.39-.3-.62-.22s-.37.33-.33.57c1.24,6.94.43,14.27-.36,21.36-.83,7.45-1.68,15.11-.14,22.37.19.91.42,1.82.7,2.72,3.92,12.84,12.01,18.58,14.3,19.99-1.44,2.1-2.89,4.18-4.35,6.25-2.35,3.32-4.83,6.64-7.7,9.36-.26-4.48-1.54-19.61-7.41-33.47-6.89-16.3-10.47-27.38-10.51-27.49-.06-.2-.24-.34-.45-.36-.21-.02-.41.09-.5.28-.06.12-5.57,10.95-2.91,23.46.24,1.13.55,2.28.93,3.43,4.2,12.6,17.3,31.92,19.61,35.26-2.14,1.82-4.48,3.3-7.14,4.19-.25.08-.39.34-.34.6,0,.02,0,.04.02.06.09.27.38.42.65.33,2.84-.95,5.32-2.52,7.57-4.46.06,0,.12.02.18,0,.02,0,.03-.03.05-.04.03,0,.05.03.08.04.41.07,41.84,6.86,80.58-17.7.19-.12.27-.35.22-.58-.06-.22-.26-.37-.49-.38-.43,0-42.94-.17-78.64,16.8,2.59-2.62,4.87-5.68,7.03-8.74,1.51-2.14,3.01-4.29,4.5-6.46.02,0,.05,0,.07-.02,9.02-4.04,30.59-5.72,46.33-6.94,3.83-.3,7.45-.58,10.49-.86,15.6-1.45,23.73-7.03,24.07-7.26.15-.1.23-.28.22-.46-.01-.19-.12-.34-.28-.43-.45-.23-11.17-5.5-34.56-2.65-19.63,2.4-39.14,13.16-44.99,16.62,5.62-8.27,11.03-16.73,16.19-25.32.01,0,.02,0,.03.02.41.07,41.84,6.86,80.58-17.7.19-.12.28-.35.22-.58-.06-.22-.26-.37-.49-.37-.44,0-43.62-.17-79.49,17.22,3.04-5.1,6.01-10.23,8.87-15.4.61-1.11,1.22-2.24,1.83-3.36,9.29-3.62,30.7-4.44,46.37-5.04,3.84-.15,7.46-.29,10.51-.45,15.65-.84,23.99-6.09,24.34-6.31.15-.1.24-.27.24-.45s-.11-.35-.26-.43c-.44-.24-10.95-5.93-34.43-4-19.93,1.64-40.07,11.84-45.8,14.94.48-.88.97-1.76,1.45-2.65,2.73-5.03,5.5-10.1,8.39-15.09v.02Z"/>
    <path class="st13" d="M658.74,304.68c-.13-.16-.35-.23-.55-.18-.11.03-11.32,3.19-28.71,6.47-12.24,2.31-23.45,7.7-29.16,10.78,5.88-5.51,11.46-11.3,16.34-17.6,18.29-10.74,41.16-56.98,42.13-58.94.1-.21.05-.46-.12-.61s-.43-.17-.62-.05c-24.24,15.57-41.03,56.17-42.11,58.85-5.23,6.76-11.27,12.95-17.64,18.83,16.79-35.29,17.65-77.47,17.66-77.9,0-.23-.15-.44-.37-.5-.22-.07-.46.02-.58.22-23.38,36.65-19.35,76.49-18.91,80.19-4.28,3.87-8.67,7.63-13.02,11.34-.77.65-1.52,1.31-2.29,1.96,1.84-6.24,7.64-28.06,5.1-47.9-2.98-23.37-10.74-32.48-11.06-32.85-.12-.14-.3-.2-.48-.17s-.33.16-.39.33c-.15.39-3.55,9.64-1.12,25.11.47,3.01,1.09,6.59,1.74,10.37,2.67,15.45,6.31,36.57,4.7,46.4-.97.83-1.94,1.66-2.9,2.49-4.46,3.87-8.87,7.84-13.22,11.87,9.56-38.7.43-80.91.33-81.33-.05-.22-.24-.39-.47-.4-.22-.02-.44.12-.52.34-15.98,43-.74,82.11-.58,82.5,0,.01.02.02.02.03-7.33,6.83-14.48,13.88-21.4,21.09,2.16-6.44,8.65-27.76,6.91-47.46-2.07-23.47-9.45-32.87-9.77-33.26-.11-.14-.29-.21-.47-.19s-.33.14-.4.31c-.16.38-3.93,9.49-2.11,25.05.35,3.03.83,6.63,1.34,10.43,2.08,15.66,4.92,37.1,2.83,46.77v.08c-1.81,1.9-3.61,3.82-5.38,5.74-2.54,2.75-5.06,5.61-7.09,8.69,9.19-38.45.2-79.99.11-80.41-.05-.22-.24-.39-.47-.4-.22-.02-.44.12-.52.34-15.98,43-.74,82.11-.58,82.5.01.03.04.04.05.07,0,.02-.02.04-.03.06,0,.06.02.11.04.17-1.43,2.6-2.45,5.36-2.79,8.33-.03.28.17.54.46.57h.06c.26,0,.48-.2.51-.46.32-2.78,1.27-5.39,2.61-7.85,3.76,1.56,25.38,10.37,38.57,11.86,1.21.14,2.39.2,3.55.2,12.79,0,22.24-7.64,22.35-7.72.16-.13.23-.35.17-.55-.06-.2-.23-.34-.44-.36-.11-.01-11.7-1.21-29.08-4.57-14.78-2.86-29.84-.97-34.28-.29,2.07-3.37,4.81-6.49,7.56-9.48,1.72-1.86,3.46-3.71,5.21-5.55,1.86,1.95,9.15,8.67,22.52,9.84.93.08,1.87.12,2.8.12,7.42,0,14.74-2.43,21.85-4.78,6.77-2.24,13.77-4.56,20.82-4.79.25,0,.46-.19.49-.44.04-.25-.11-.48-.34-.57-.22-.08-22.18-7.58-39.7-2.26-14.32,4.35-24.39,2.54-27.41,1.79,7.15-7.48,14.55-14.78,22.13-21.85,3.08,1.29,25.32,10.43,38.78,11.95,1.21.14,2.39.2,3.55.2,12.79,0,22.24-7.64,22.34-7.72.16-.13.23-.35.17-.55s-.23-.34-.44-.36c-.11-.01-11.7-1.21-29.08-4.57-14.29-2.76-28.84-1.09-33.8-.37,4.25-3.93,8.55-7.8,12.91-11.58.88-.76,1.77-1.52,2.65-2.28,1.61,1.61,9.19,8.44,23.05,9.1.5.02,1,.04,1.5.04,7.87,0,15.53-2.88,22.95-5.66,6.67-2.51,13.58-5.1,20.61-5.6.25-.02.45-.21.48-.46.03-.25-.12-.48-.36-.55-.22-.07-22.46-6.7-39.76-.7-14.18,4.92-24.34,3.48-27.34,2.86.97-.83,1.94-1.67,2.91-2.5,4.37-3.73,8.78-7.51,13.08-11.4.51.01,2.02.04,4.24.04,8.21,0,25.87-.36,36.41-3.22,14.14-3.84,21.23-16.41,21.3-16.54.1-.18.08-.41-.05-.57l.02.02Z"/>
    <g>
      <path class="st13" d="M138.57,318.34c-9.18-5.35-20.67-11.15-33.85-15.98l-24.62,12.65,2.55-19.26c-9.27-2.15-19.08-3.64-29.3-4.1,0,0-3.87,16.93-1.52,39.02,4.62-1.91,11.68-4.36,17.85-3.83,0,0-9.68,11.05-14.52,22.16,3.23,12.26,8.77,25.05,17.98,36.8,1.69-6.44,5.2-17.24,10.9-22.93,0,0-2.06,19.51-.52,34.18,7.79,7.21,17.39,13.75,29.17,19.14.39-7.31,1.44-20.04,4-23.2,0,0,2.02,15.98,7.36,27.79,11.12,3.94,23.88,6.97,38.52,8.81v-94.87s-4.08-3.47-11.4-8.44c-18.88,4.1-30.55,14.07-30.55,14.07,3.71-9.68,13.14-18.15,17.93-22h.02Z"/>
      <path class="st7" d="M159.35,399.6c-16.11-9.71-31.17-20.89-45-33.66-23.46-21.66-42.94-47.1-61.23-73.18-.79,4.1-3.29,19.14-1.29,37.91,4.62-1.91,11.68-4.36,17.85-3.83,0,0-9.68,11.05-14.52,22.16,3.23,12.26,8.77,25.05,17.98,36.8,1.69-6.44,5.2-17.24,10.9-22.93,0,0-2.06,19.51-.52,34.18,7.79,7.21,17.39,13.75,29.17,19.14.39-7.31,1.44-20.04,4-23.2,0,0,2.02,15.98,7.36,27.79,11.12,3.94,23.88,6.97,38.52,8.81v-28.06c-1.08-.63-2.16-1.27-3.24-1.92h.02Z"/>
    </g>
    <path class="st15" d="M318.98,181.97c-2.22-17.04-5.82-31.87-10.46-44.78-13.77-6.15-32.38-8.42-32.38-8.42,3.67-3.01,18.47-4.29,26.97-4.79-6.34-13.68-13.99-24.81-22.43-33.84-17.08-1.71-39.77.79-39.77.79,6.59-6.65,19.13-10.8,26.62-12.8-13.73-10.65-28.64-17.03-42.92-20.72-12.9,5.69-25.71,17.01-25.71,17.01-.65-7.18,2.17-15.41,4.36-20.79-.75-.08-1.49-.14-2.23-.21-.24-.02-.49-.04-.73-.06-.5-.04-1-.08-1.49-.12-.27-.02-.54-.04-.8-.06-.47-.03-.93-.06-1.39-.09-.27-.02-.53-.03-.8-.04-.47-.03-.94-.05-1.4-.07-.24,0-.49-.02-.73-.03l-1.59-.06c-.16,0-.32,0-.49,0-.69-.02-1.38-.03-2.06-.04h-.28c-.58,0-1.15,0-1.71,0h-2.61c-.44,0-.88,0-1.31.02-.2,0-.4,0-.6,0-.46,0-.91.03-1.36.04-.16,0-.32,0-.48.02-.59.02-1.17.05-1.74.07h-.03c-.6.03-1.2.06-1.78.1-.1,0-.2,0-.29.02-.47.03-.93.06-1.39.09-.15,0-.29.02-.44.03-.4.03-.8.06-1.2.09-.15,0-.3.02-.45.04-.39.03-.77.06-1.15.1-.13,0-.27.02-.4.04-.41.04-.82.08-1.22.12-.09,0-.17.02-.26.03-.98.1-1.9.2-2.78.31-.09,0-.17.02-.25.03-.35.04-.68.08-1.01.13-.11,0-.22.03-.33.04-.29.04-.58.08-.85.12-.12.02-.24.03-.36.05-.26.04-.52.07-.77.11-.11.02-.22.03-.32.05-.28.04-.55.08-.81.12-.06,0-.13.02-.19.03-.32.05-.62.1-.92.15-.09,0-.17.03-.25.04-.2.03-.4.07-.58.1-.11.02-.21.04-.32.06-.15.03-.29.05-.43.08-.12.02-.23.04-.34.06-.1.02-.2.04-.3.06-.12.02-.24.04-.35.06-.07,0-.13.03-.19.04-1.07.21-1.65.34-1.65.34.6,11.88,2.38,23.29,4.93,34.07l22.4-3.08-14.59,28.72c5.7,15.32,12.51,28.64,18.79,39.3,4.46-5.6,14.26-16.62,25.5-20.99,0,0-11.54,13.64-16.2,35.63,5.82,8.49,9.88,13.21,9.88,13.21l77.74-.37h0l32.65-.15h.03Z"/>
    <g>
      <path class="st13" d="M590.91,112.07c.64,4.2,1.16,10.33.28,16.84,0,0-6.52-5.95-16.59-7.72-10.1,6.53-18.46,13.73-25.36,21.12,3.97.95,8.36,2.54,11.8,5.21,0,0-11.4,1.79-19.86,4.3-21.78,28.37-24.39,56.31-24.39,56.31l20.38,53.23c9.03-5.51,17.14-11.09,24.44-16.71.44-8.23-1.09-19.28-1.09-19.28,3.2,3.56,6.45,9.82,8.24,13.55,12.11-10.11,21.68-20.27,29.19-30.26-.9-10.85-6.28-20.14-6.28-20.14,7.78,2.43,11.63,6.27,13.54,9.55,9.99-16.07,14.95-31.41,17.03-44.93-4.11-11.63-10.4-16.28-10.4-16.28,4.62-2.94,8.62-4.35,11.57-5.03-.83-18.24-6.09-29.82-6.09-29.82-9.7,2.84-18.46,6.25-26.39,10.07h-.02Z"/>
      <path class="st7" d="M611.83,136.85c4.62-2.94,8.62-4.35,11.57-5.03-.83-18.24-6.09-29.82-6.09-29.82-.37.11-.72.22-1.09.33-7.72,28.86-23.81,55.8-42.24,78.84-14.59,18.24-31.34,34.52-48.03,50.84l11.23,29.34c9.03-5.51,17.14-11.09,24.44-16.71.44-8.23-1.09-19.28-1.09-19.28,3.2,3.56,6.45,9.82,8.24,13.55,12.11-10.11,21.68-20.27,29.19-30.26-.9-10.85-6.28-20.14-6.28-20.14,7.78,2.43,11.63,6.27,13.54,9.55,9.99-16.07,14.95-31.41,17.03-44.93-4.11-11.64-10.4-16.28-10.4-16.28h-.02Z"/>
    </g>
  </g>
  <g>
    <path class="st4" d="M549.86,430.86H150.03V171.59c0-5.73,4.65-10.38,10.38-10.38h379.07c5.73,0,10.38,4.65,10.38,10.38v259.27h0Z"/>
    <path class="st0" d="M219.41,161.21h-59.01c-5.73,0-10.38,4.65-10.38,10.38v259.27h339.04L219.41,161.21Z"/>
    <path class="st1" d="M529.94,415.37H169.94v-227.25c0-5.16,4.18-9.35,9.35-9.35h341.31c5.16,0,9.34,4.18,9.34,9.35v227.25h0Z"/>
    <path class="st15" d="M265.51,178.77h-86.22c-5.16,0-9.35,4.18-9.35,9.35v227.25h332.15l-236.59-236.59h.01Z"/>
    <path class="st5" d="M537.98,465.99H161.91c-19.11,0-34.61-15.49-34.61-34.61h0c0-1.43,1.16-2.58,2.58-2.58h440.12c1.43,0,2.58,1.16,2.58,2.58h0c0,19.12-15.5,34.61-34.61,34.61h0Z"/>
    <path class="st9" d="M570,428.8h-202.04l37.19,37.19h132.82c19.11,0,34.61-15.49,34.61-34.61,0-1.43-1.16-2.58-2.58-2.58h0Z"/>
  </g>
  <g>
    <path class="st16" d="M247.71,275.15l-7.99-8.29v-9.71c0-2.75-2.23-4.98-4.98-4.98h-48.09c-2.75,0-4.98,2.23-4.98,4.98v16.21c0,2.75,2.23,4.98,4.98,4.98h59.7c1.66,0,2.5-1.99,1.35-3.18h0Z"/>
    <g>
      <path class="st1" d="M200.14,265.33c0,2.58-2.09,4.67-4.67,4.67s-4.67-2.09-4.67-4.67,2.09-4.67,4.67-4.67,4.67,2.09,4.67,4.67Z"/>
      <path class="st1" d="M215.36,265.17c0,2.58-2.09,4.67-4.67,4.67s-4.67-2.09-4.67-4.67,2.09-4.67,4.67-4.67,4.67,2.09,4.67,4.67Z"/>
      <path class="st1" d="M230.58,265.17c0,2.58-2.09,4.67-4.67,4.67s-4.67-2.09-4.67-4.67,2.09-4.67,4.67-4.67,4.67,2.09,4.67,4.67Z"/>
    </g>
  </g>
  <g>
    <path class="st18" d="M514.99,314c7.37-11.55,15.77-22.44,25.08-32.5.67-.73,1.37-1.48,1.72-2.41.34-.93.25-2.1-.5-2.76-1.19-1.05-3.04-.22-4.35.66-3.07,2.06-5.84,4.04-8.59,6.51,3.22-4.89,6.43-9.78,9.65-14.68.48-.74.98-1.49,1.19-2.35.21-.86.09-1.85-.54-2.47-.62-.62-1.6-.75-2.45-.53-.85.22-1.59.73-2.29,1.26-4.41,3.35-7.91,7.74-11.36,12.08,3.83-6.24,7.2-12.77,10.07-19.5.59-1.39,1.13-3.1.21-4.3-.68-.88-1.97-1.1-3.04-.8-1.07.31-1.96,1.05-2.76,1.83-5.13,4.98-7.8,11.9-10.33,18.59,1.49-5.8,2.86-11.27,3.23-17.25.09-1.43-.04-3.19-1.33-3.81-.91-.44-2.05-.04-2.77.67-.72.72-1.1,1.69-1.47,2.64-2.23,5.76-4.32,11.58-6.28,17.44-.36,1.07-3.48,12.67-6.4,8.7-.42-.58-.57-1.3-.71-2.01-.44-2.3-.89-4.59-1.33-6.89-.23-1.18-.48-2.4-1.22-3.34-1.55-1.98-3.9-1.18-4.33,1.12-1.92,10.52,3.7,21.07,3.19,31.76,6.86,2.06,13.41,6.62,17.7,12.35h0Z"/>
    <path class="st12" d="M229.88,415.37s19.84-82.74,28.8-104.5,15.03-33.04,45.92-42.12c30.89-9.08,88.5-6.84,106.74,8.84s45.77,83.21,45.77,83.21l39.68-61.13s14.4,5.76,20.16,13.76c0,0-40.01,97.29-59.85,98.57s-48.01-61.13-48.01-61.13l10.56,64.5h-189.78.01Z"/>
    <path class="st6" d="M265.51,307.18c1.86-7.22,4.12-14.46,7.14-21.31-6.03,6.53-9.67,14.55-13.97,25-8.96,21.76-28.8,104.5-28.8,104.5h7.98c.08-.15,25.29-98.97,27.66-108.19h-.01Z"/>
    <path class="st6" d="M515.54,315.38c-6.82,8.57-13.64,17.36-20.01,26.26-7.05,9.84-12.41,20.8-20.73,29.73-9.24,9.92-23.1,14.57-34.19,4.45-6.37-5.8-9.92-14.44-14.1-21.81-4.8-8.47-9.65-16.91-14.03-25.6-2.39-4.74-4.63-9.56-6.65-14.46-.03,2.26-.02,4.51.07,6.75.46,11.51,2.73,23.12,5.2,34.41,6.76,14.02,29.33,57.96,46.01,56.88,18.99-1.23,56.43-90.36,59.62-98.03-.39.48-.8.94-1.18,1.42h-.01Z"/>
    <path class="st11" d="M392.01,265.66c-5.39-2.53-10.9-4.81-16.51-6.83-4.35-1.57-8.45-3.92-13.03-4.41-11.13-1.2-22.63-.03-33.36,3.08-11.86,3.45-22.95,8.07-34.41,12.95-3.12,1.33-6.49,2.87-8.05,5.89-2.17,4.2.11,9.34,3,13.09,2.85,3.7,6.32,6.91,8.93,10.78s4.33,8.71,3.09,13.21c-1.52,5.53-7.1,9.29-8.39,14.87-.94,4.05.57,8.23,2.05,12.11,3.01,7.89,6.01,15.78,9.02,23.68,5.29,13.89,11.19,28.58,23.29,37.22,5.23,3.74,12,6.13,18.12,4.16,5.29-1.71,9.07-6.29,12.3-10.81,9.12-12.76,16.28-26.78,22.7-41.05,2.74-6.09,5.67-11.95,8.57-17.83,2.53-5.14,1.71-12.06-2.57-16.03-2.04-1.89-4.75-3.25-5.87-5.8-1.51-3.46.59-7.33,2.52-10.57,5.12-8.6,9.47-17.65,12.98-27.02.78-2.09,1.52-4.42.68-6.48-.84-2.09-3.03-3.25-5.07-4.21h.01Z"/>
    <path class="st1" d="M324.74,255.81s-17.04,79.42-9.88,159.56h58.21c.31,0-6.94-128.14-2.23-154.75l-46.1-4.81h0Z"/>
    <path class="st19" d="M327.51,415.37h.61c-.06-1.06-.1-2.12-.15-3.19-.16,1.06-.31,2.12-.46,3.19Z"/>
    <path class="st19" d="M370.84,260.62l-7.75-.81c-4.08,25.92-3.74,52.5-2.79,78.65.63,17.48,1.58,34.92,1.99,52.41.19,8.11.24,16.15,1.67,24.15.02.11.04.23.06.34h9.04c.31,0-6.94-128.14-2.23-154.75h.01Z"/>
    <g>
      <path class="st8" d="M368.51,218.54c.25-.18.51-.36.76-.53.96,2.89.72,6.02.51,9.06-.38,5.43-.8,10.79-.99,16.23-.17,5.01.8,9.49,1.82,14.44.2.95.39,1.93.24,2.89-.17,1.09-.79,2.07-1.48,2.93-5.09,6.33-14.18,7.63-22.31,7.37-6.76-.21-14.13-1.22-19.86-5.11-3.43-2.33-2.28-3.4-2.21-7.04.06-2.7.03-4.92.56-7.65.39-1.98,3.48-18.52.85-18.48,7.49-.12,14.95-1.47,22.06-3.83,3.46-1.15,6.97-2.51,10.3-3.91,3.45-1.45,6.65-4.14,9.76-6.36h-.01Z"/>
      <path class="st10" d="M370.6,257.73c-1.01-4.94-1.99-9.42-1.82-14.43.19-5.43.61-10.8.99-16.23.21-3.04.46-6.17-.51-9.06-.25.17-.51.35-.76.53-3.11,2.21-6.3,4.91-9.76,6.36-3.33,1.4-6.85,2.77-10.3,3.91-7.11,2.36-14.56,3.71-22.06,3.83,1.69-.03,1.02,6.76.22,12.16,8.85,4.18,20.33.14,27.94,7.61,4.36,4.28,6.35,10.29,7.61,16.33,2.79-1.14,5.27-2.81,7.19-5.19.69-.86,1.31-1.83,1.48-2.93.15-.96-.04-1.94-.24-2.89h.02Z"/>
      <path class="st3" d="M386.62,142.68c2.79,4.28,4.46,9.84,5.89,14.72,1.34,4.59,2.04,9.37,2.07,14.15.02,5.04.36,9.92-.46,14.94-1.21,7.37-4.01,14.41-8.32,20.52-4.39,6.23-10.3,10.7-15.26,16.4-1.35,1.55-3.46,3.93-5.8,2.55-1.74-1.02-1.55-3.55-1.21-5.54,1.72-10.11,1.47-20.54-.71-30.56-2.1-9.64-5.15-18.82-6.3-28.73-.71-6.14-5.25-3.53-9.23-2.18-5.17,1.75-10.83,2.94-16.16,1.14-1.77-.6-3.43-1.51-5.25-1.94-1.91-.45-3.89-.35-5.85-.25-10.82.57-20.26,3.01-30.71-1.62-6.49-2.87-10.61-9.26-9.09-16.58,1.55-7.47,9.2-12.86,16.75-12,2.24.25,4.46,1,6.71.77,2.91-.31,3.73-2.49,5.43-4.39,1.86-2.08,4.4-3.8,6.8-5.19,5.01-2.91,10.72-4.58,16.48-5.06,13.2-1.11,29.68,2.61,37.4,14.27,1.04,1.57,1.96,3.3,3.46,4.45,1.31,1.01,2.95,1.47,4.46,2.14,3.69,1.65,6.7,4.6,8.91,7.99h-.01Z"/>
      <path class="st14" d="M384.15,209.18c3.32-7.69,5.52-15.65,1.58-23.33-2.57-5.01-6.35-7.6-6.56-13.55-.23-6.76.63-13.57-.92-20.24-1.57-6.78-6.48-15.39-11.83-19.9-5.24-4.41-12.88-7.28-19.43-8.96-7.23-1.85-14.65-1.83-22.05-1.33-5.28.36-10.47,1.42-15.7,2.07-.04.04-.08.09-.12.13-1.7,1.9-2.52,4.08-5.43,4.39-2.25.24-4.47-.51-6.71-.76-.79-.09-1.59-.1-2.38-.05-1.43,3.3-1.18,7.32,2.52,8.59,2.22.76,5.02.55,7.34.52,7.87-.1,16.25-5.07,24.17-5.04,11.53.04,24.59.57,33.84,8.45,9.77,8.33,9.14,29.43,8.53,40.94-.43,8.11-2.64,15.55-6.45,22.28.25,5.69-.07,11.41-1.03,17.02-.34,1.99-.53,4.52,1.21,5.54,2.34,1.38,4.46-1,5.8-2.55,4.36-5.01,9.46-9.07,13.61-14.22h.01Z"/>
      <path class="st18" d="M327.25,149.34c-8.15,1.21-14.28,7.04-22.27,8.66-.13.03-.28.06-.34.18-.07.11-.04.24,0,.37.86,3.38,1.89,6.57,2.2,10.07.6,6.74.6,13.67-.46,20.37-1.05,6.64-2.69,13.32-2.07,20.1.74,8.13,4.9,15.89,11.25,21.02,8.82,7.12,21.14,8.15,31.91,5.77,18.03-4,28.74-22.39,27.67-40.12-.03-.47-.04-1.01.3-1.34.17-.17.41-.25.64-.32,4.01-1.33,7.51-3.12,8.81-7.52.53-1.77.56-3.78-.34-5.39-2.86-5.1-9.91-1.36-11.97,2.36-.71,1.28-.61,2.24-2.16,2.69-2.71.79-3.88.58-4.91-2.18-1.24-3.31-.08-6.21-.08-9.54,0-3.53.44-6.34-1.44-9.33-.96-1.52-2.27-2.82-3.02-4.45-.76-1.66-.89-3.53-.86-5.36.07-3.22.64-6.43,1.67-9.48-2.32,1.93-4.77,3.79-7.62,4.77-4.28,1.48-8.99.84-13.44-.03s-8.98-1.95-13.47-1.28v-.02Z"/>
      <path class="st8" d="M384.53,181.17c-2.86-5.1-9.91-1.36-11.97,2.36-.71,1.28-.61,2.24-2.16,2.69-2.71.79-3.88.58-4.91-2.18-1.24-3.31-.08-6.21-.08-9.54,0-3.53.44-6.34-1.43-9.33-.96-1.52-2.27-2.82-3.02-4.45-.76-1.66-.89-3.53-.86-5.36.07-3.22.64-6.43,1.67-9.48-2.32,1.93-4.77,3.79-7.62,4.77-4.28,1.48-8.99.84-13.44-.03s-8.98-1.95-13.47-1.29c-8.15,1.21-14.28,7.04-22.27,8.66-.13.03-.28.06-.34.18-.07.11-.04.24,0,.37.14.55.29,1.09.43,1.63,3.57-.32,7.11-.85,10.57-1.82,3.44-.96,6.69-2.43,10.08-3.52,2.84-.91,5.8-1.6,8.81-1.51,3.13.09,6.12,1.11,9.14,1.86,3.35.83,7.95.05,9.43,3.9,1.4,3.62.77,7.81,1.02,11.6.4,6.13,2.45,12.12,3.49,18.17.97,5.65,1.28,11.35.57,17.05-1.22,9.87-5.07,20.12-12.92,26.6-2.12,1.76-4.45,3.15-6.9,4.29,3.06-.05,6.12-.27,9.1-.94,18.03-4,28.74-22.39,27.67-40.12-.03-.47-.04-1.01.3-1.34.17-.17.41-.25.64-.32,4.01-1.33,7.51-3.12,8.81-7.52.53-1.77.56-3.78-.34-5.39h0Z"/>
      <path class="st3" d="M320.24,161.91c-1.03-1.69-4.13-1.63-5.67-.97-3.6,1.52-8.82,5.79-10,9.66-.2.64-.11,1.41.38,1.87.5.47,1.29.5,1.93.26.64-.23,1.17-.68,1.71-1.11,2.39-1.91,5.03-3.5,7.85-4.7,1.11-.47,2.27-.9,3.13-1.75.86-.84,1.31-2.24.69-3.27h-.02Z"/>
      <path class="st3" d="M342.67,161.22c1.03-1.69,4.13-1.63,5.67-.97,3.6,1.52,8.82,5.79,10,9.66.2.64.11,1.41-.38,1.87-.5.47-1.29.5-1.93.26-.64-.23-1.17-.68-1.71-1.11-2.39-1.91-5.03-3.5-7.85-4.7-1.11-.47-2.27-.9-3.13-1.75-.86-.84-1.31-2.24-.68-3.27h0Z"/>
      <path class="st17" d="M321.17,178.56c0,1.72-1.4,3.12-3.12,3.12s-3.12-1.4-3.12-3.12,1.4-3.12,3.12-3.12,3.12,1.4,3.12,3.12Z"/>
      <path class="st17" d="M345.68,178.56c0,1.72-1.4,3.12-3.12,3.12s-3.12-1.4-3.12-3.12,1.4-3.12,3.12-3.12,3.12,1.4,3.12,3.12Z"/>
    </g>
    <path class="st10" d="M330.44,172.89c.24,3.58.6,7.17.74,10.79.04,1.82.18,3.6-.03,5.53-.21,1.89-.78,3.75-1.74,5.45-.48.84-1.08,1.64-1.79,2.33-.71.71-1.55,1.25-2.23,1.74-.7.5-1.28,1.02-1.5,1.57-.23.52-.18,1.23.1,1.83.28.61.81,1.13,1.44,1.48.62.34,1.35.48,2.12.45,1.54-.1,3.11-.91,4.5-1.93h0c.23-.18.55-.13.72.1.15.21.13.49-.04.66-1.29,1.35-2.95,2.52-5.02,2.82-2.06.35-4.45-.71-5.43-2.76-.5-1.01-.62-2.26-.13-3.4.51-1.12,1.4-1.79,2.15-2.33.78-.55,1.47-.99,2.04-1.55.58-.56,1.09-1.21,1.51-1.93.84-1.43,1.34-3.08,1.6-4.76.24-1.66.17-3.48.18-5.27-.05-3.58-.2-7.18-.21-10.8,0-.29.23-.52.52-.52.27,0,.5.21.52.48l-.02.02Z"/>
    <path class="st1" d="M328.96,212.21c-2.07.52-4.11,1.1-6.07,1.83-1.44.53-1.74.17-1.79,1.68-.03.81.76,2.02,1.17,2.68.98,1.59,2.44,2.97,4.15,3.74,3.07,1.43,6.9,1.1,9.68-.83,1.94-1.35,3.3-3.4,3.82-5.7.37-1.65.89-6.31-1.78-5.6-2.99.79-6.12,1.44-9.19,2.21h.01Z"/>
    <g>
      <g>
        <circle class="st2" cx="378.91" cy="185.12" r="12.21" transform="translate(-19.92 322.15) rotate(-45)"/>
        <circle class="st12" cx="378.91" cy="185.11" r="6.34"/>
      </g>
      <path class="st2" d="M378.22,178.37c-1.36-.07-2.44-1.19-2.44-2.56-.04-7.07-.08-14.38-1.35-21.36-1.39-7.65-4.11-13.91-8.08-18.62-3.55-4.2-8.07-7.47-13.14-9.6-5.8-2.43-12.13-3.38-18.39-3.42-9.57-.05-19.14,1.91-28.2,4.91-.99.33-1.96.72-2.95,1.04-.21.07-.45.13-.66.04-.25-.11-.37-.4-.35-.67.07-1.18,1.3-2.45,2.06-3.26,2.97-3.19,7.52-4.16,11.61-5.14,5.57-1.33,11.34-1.96,17.06-2.06,6.63-.1,13.33.7,19.6,2.94,6.71,2.39,12.7,6.45,17.3,11.9,4.56,5.4,7.67,12.48,9.22,21.03,1.35,7.42,1.39,14.96,1.44,22.25,0,1.43-1.14,2.59-2.57,2.6h-.15v-.02Z"/>
      <g>
        <path class="st2" d="M347.91,226c-.65,0-1.26-.41-1.47-1.07-.27-.81.18-1.69.99-1.95,6.92-2.26,15.54-5.07,20.7-11.26,4.42-5.3,5.99-12.6,7.38-19.03.18-.84,1.01-1.37,1.84-1.19.84.18,1.37,1,1.19,1.84-1.46,6.79-3.11,14.48-8.03,20.37-5.74,6.88-14.82,9.84-22.12,12.23-.16.05-.32.08-.48.08v-.02Z"/>
        <path class="st12" d="M346.51,229.58l-2.65.73c-2.46.68-5.01-.76-5.69-3.22h0c-.68-2.46.76-5.01,3.22-5.69l2.65-.73c2.46-.68,5.01.76,5.69,3.22h0c.68,2.46-.76,5.01-3.22,5.69Z"/>
      </g>
    </g>
    <polygon class="st6" points="270.82 415.37 280.39 354.12 278.45 415.37 270.82 415.37"/>
  </g>
</svg>