<svg height="512" viewBox="0 0 512 512" width="512" xmlns="http://www.w3.org/2000/svg" xmlns:xlink="http://www.w3.org/1999/xlink"><linearGradient id="linear-gradient" gradientUnits="userSpaceOnUse" x1="33.119" x2="494.776" y1="254.811" y2="254.811"><stop offset="0" stop-color="#e600c7"/><stop offset=".1734" stop-color="#e600bc"/><stop offset=".483" stop-color="#e8029d"/><stop offset=".89" stop-color="#e9036c"/><stop offset="1" stop-color="#ea045d"/></linearGradient><radialGradient id="radial-gradient" cx="273.421" cy="324.812" gradientTransform="matrix(.765 -.644 .489 .58 -94.417 312.436)" gradientUnits="userSpaceOnUse" r="270.534"><stop offset="0"/><stop offset="1" stop-color="#fff" stop-opacity="0"/></radialGradient><radialGradient id="radial-gradient-2" cx="219.554" cy="149.352" fx="270.328" fy="297.528" gradientUnits="userSpaceOnUse" r="219.386"><stop offset="0" stop-color="#fff"/><stop offset=".0736" stop-color="#fff" stop-opacity=".824"/><stop offset=".1652" stop-color="#fff" stop-opacity=".633"/><stop offset=".262" stop-color="#fff" stop-opacity=".463"/><stop offset=".362" stop-color="#fff" stop-opacity=".32"/><stop offset=".4663" stop-color="#fff" stop-opacity=".203"/><stop offset=".5761" stop-color="#fff" stop-opacity=".113"/><stop offset=".6941" stop-color="#fff" stop-opacity=".05"/><stop offset=".8259" stop-color="#fff" stop-opacity=".012"/><stop offset="1" stop-color="#fff" stop-opacity="0"/></radialGradient><g isolation="isolate"><g id="Layer_1" data-name="Layer 1"><circle cx="263.948" cy="254.811" fill="url(#linear-gradient)" r="230.829"/><path d="m263.9479 81.5317a173.28 173.28 0 1 0 173.28 173.28 173.28 173.28 0 0 0 -173.28-173.28zm5.1957 23.6925q52.57 0 92.9151 38.4039-24.4515 32.6586-77.3271 53.5232-18.0331-32.0535-55.3216-86.4843a156.828 156.828 0 0 1 39.7336-5.4428zm-69.6859 16.0258q16.5051 20.5638 55.9322 84.0656-58.9872 17.8417-137.232 18.7481 15.5874-69.8513 81.2998-102.8137zm-84.3564 131.844v-2.7217q79.4662 0 149.1522-20.8645s5.8077 10.4826 15.5879 24.7957q-79.4673 25.0986-126.5349 98.58-38.2065-40.218-38.2052-99.7895zm57.1546 117.3283q37.8984-64.1073 116.7546-91.3223 19.5611 43.5448 33.01 110.6761c-45.6964 31.4894-124.7019 6.0473-149.7646-19.3538zm175.1315 6.3507q-7.9463-41.7309-28.73-104.931a233.5652 233.5652 0 0 1 34.843-2.721 176.9042 176.9042 0 0 1 57.46 9.3741q-11.9197 64.1075-63.573 98.2779zm-3.3614-130.6336a271.5625 271.5625 0 0 0 -34.5374 2.1164 137.3773 137.3773 0 0 0 -7.03-14.5146q-4.5849-9.677-6.418-14.8176 51.6521-19.6556 82.8284-57.4543 32.3965 38.1013 33.9254 91.6247a363.4654 363.4654 0 0 0 -68.7684-6.9546z" fill="#fff"/><path d="m476.2084 163.9832a230.5153 230.5153 0 0 1 2.6011 34.522c0 129.4458-107.6157 234.3828-240.3662 234.3828-75.187 0-142.3008-33.67-186.3769-86.3814 35.4755 81.8599 116.9836 139.1334 211.8813 139.1334 127.4829 0 230.8286-103.3452 230.8286-230.8286a230.064 230.064 0 0 0 -18.5679-90.8282z" fill="url(#radial-gradient)" mix-blend-mode="multiply"/><path d="m48.042 219.547c21.96 56.25 116.2212 71.9992 210.5376 35.1772s158.5388-114.7754 131.0114-168.5215c-16.263-31.7537-69.4149-60.3147-132.1229-62.1182h-.3424c-100.9337 2.9301-185.6031 70.6642-213.8983 163.0386a77.3993 77.3993 0 0 0 4.8146 32.4239z" fill="url(#radial-gradient-2)"/></g></g></svg>