<?xml version="1.0" encoding="UTF-8"?>
<svg id="Layer_1" data-name="Layer 1" xmlns="http://www.w3.org/2000/svg" viewBox="0 0 2209.9 1386.93">
  <defs>
    <style>
      .cls-1 {
        fill: #8be276;
      }

      .cls-2 {
        fill: #ff9773;
      }

      .cls-3 {
        fill: #9583ff;
      }

      .cls-4 {
        fill: #ffb39f;
      }

      .cls-5 {
        fill: #e28876;
      }

      .cls-6 {
        fill: #fff;
      }

      .cls-7 {
        fill: #6091d8;
      }

      .cls-8 {
        fill: #f9a38c;
      }

      .cls-9 {
        fill: #4881d3;
      }

      .cls-10 {
        fill: #7ca7f2;
      }

      .cls-11 {
        fill: #49ad31;
      }

      .cls-12 {
        fill: #f3f3ff;
      }

      .cls-13 {
        fill: #4a386d;
      }

      .cls-14 {
        fill: #487fc1;
      }

      .cls-15 {
        fill: #ea8f7d;
      }

      .cls-16 {
        fill: #e1e1ff;
      }

      .cls-17 {
        fill: #9566d8;
      }

      .cls-18 {
        fill: #ffd3ca;
      }

      .cls-19 {
        fill: #c5cfea;
      }

      .cls-20 {
        fill: #7063ea;
      }
    </style>
  </defs>
  <path class="cls-16" d="M1947.62,1346.86c92.56-40.82,164.29-187.35,183.53-399.01s-154.24-425.43-356.86-512.44-194.49-186.09-318.07-322.55c-112.26-123.96-513.55-179.46-648.29,44.6-131.9,219.34-317.98,193.44-441.08,245.7C124.11,506.22,61.95,728.8,94.51,938.98c32.56,210.18,251.62,421.01,251.62,421.01l1601.49-13.12Z"/>
  <path class="cls-16" d="M272.03,672.36c20.92-51.15,50.09-96.7,86.71-135.39,39.36-41.58,87.79-75.7,143.97-101.42,31.4-14.38,66.74-23.01,104.17-32.14,103.56-25.28,220.94-53.93,311.71-216.75,26.23-47.06,64.11-84.65,112.58-111.74,43.32-24.2,93.89-39.48,150.32-45.42,68.94-7.26,144.12.27,211.69,21.2,66.49,20.59,120.18,52.27,151.19,89.21,39.06,46.52,64.85,89.61,87.6,127.64,47.54,79.42,85.08,142.15,212.22,201.05,48.44,22.43,94.92,52.73,138.16,90.06,43.28,37.37,81.28,80.01,112.91,126.76,32.81,48.45,57.42,99.35,73.16,151.29,16.75,55.29,22.97,110.36,18.48,163.7-8.92,105.74-30.22,199.89-61.61,272.25-10.26,23.65-21.53,44.87-33.66,63.43-13.16,20.15-27.33,37.18-42.3,50.85h-20.76c16.74-12.67,32.61-29.74,47.32-50.85,13.71-19.67,26.41-42.86,37.86-69.25,30.77-70.93,51.68-163.49,60.45-267.67,19.12-226.77-158.35-436.11-335.04-517.95-130.72-60.55-171.13-128.04-217.91-206.21-23.59-39.42-47.98-80.17-86.34-125.86-29.44-35.08-81.03-65.34-145.27-85.24-66.06-20.46-139.55-27.82-206.94-20.73-115.97,12.21-205.89,65.68-253.23,150.58-41.71,74.81-92.77,128.79-156.08,165-55.22,31.58-112.87,45.65-163.73,58.06-36.84,8.99-71.65,17.49-101.99,31.39-281.65,128.97-272.02,421.6-254.81,541.43,15.76,109.75,79.25,219.96,129.75,293.1,13.42,19.44,26.65,37.36,39,53.35,15.73,20.36,30.02,37.59,41.41,50.85h-17.29c-11.72-13.93-25.65-31.11-40.63-50.85-10.48-13.8-21.47-28.87-32.58-44.96-32.65-47.27-59.99-94.08-81.26-139.13-26.68-56.52-43.84-110.45-50.99-160.27-16.82-117.05-5.84-227.49,31.73-319.37Z"/>
  <path class="cls-16" d="M261.05,1355.36l2.71-.02,1587.18-13.01,1.25-.55c47.11-20.77,89.09-68.28,121.43-137.37,32.74-69.96,54.95-160.97,64.24-263.2,4.69-51.56-1.79-104.81-19.26-158.25-16.41-50.21-42.08-99.42-76.29-146.26-33-45.18-72.61-86.41-117.74-122.54-45.09-36.09-93.56-65.39-144.07-87.08-132.59-56.94-171.74-117.58-221.3-194.35-23.73-36.76-50.62-78.42-91.35-123.39-32.34-35.71-88.33-66.34-157.66-86.25-70.45-20.23-148.85-27.51-220.74-20.49-58.85,5.74-111.59,20.52-156.75,43.92-50.55,26.19-90.04,62.53-117.4,108.02-94.65,157.4-217.05,185.1-325.04,209.54-39.02,8.83-75.88,17.17-108.62,31.07-58.58,24.87-109.09,57.86-150.13,98.05-38.19,37.4-68.61,81.44-90.42,130.88C1.9,712.91-9.54,819.68,7.99,932.83c7.46,48.17,25.35,100.3,53.18,154.93,22.17,43.54,50.68,88.8,84.73,134.5,57.92,77.75,112.66,130.69,113.21,131.22l1.95,1.88ZM1848.07,1329.08l-1581.68,12.96c-10.12-10.01-58.78-59.12-109.99-127.89-52.65-70.71-118.86-177.26-135.3-283.36C3.16,814.95-6.87,532.05,286.82,407.37c31.64-13.43,67.94-21.65,106.36-30.34,53.03-12,113.15-25.6,170.73-56.13,66.02-35,119.26-87.18,162.76-159.51,49.35-82.07,143.13-133.77,264.06-145.57,70.27-6.86,146.9.26,215.79,20.04,66.98,19.23,120.78,48.49,151.48,82.4,40,44.17,65.44,83.57,90.04,121.68,48.78,75.56,90.91,140.82,227.22,199.35,184.24,79.12,369.31,281.49,349.38,500.72-9.16,100.71-30.96,190.2-63.05,258.77-30.66,65.53-69.89,110.54-113.52,130.3Z"/>
  <path class="cls-3" d="M1502.12,1339.49h-586.73s-56.83-315.42,35.09-425.86c88.74-106.62,356.94-92.71,445.78,1.99,63.61,67.81,145.71,251.41,172.77,349.69,11.07,40.21-66.91,74.19-66.91,74.19Z"/>
  <path class="cls-5" d="M1232.85,844.09s4.91,76.5-68.47,76.5-68.47-76.5-68.47-76.5c0,0,2.49-22.91,2.49-47.33s-2.49-66.4-2.49-66.4h136.95s-2.49,35.13-2.49,66.4,2.49,47.33,2.49,47.33Z"/>
  <path class="cls-18" d="M2209.9,1357.23v11.96c0,9.8-7.94,17.74-17.74,17.74H86.22c-9.8,0-17.74-7.94-17.74-17.74v-11.96c0-9.8,7.94-17.75,17.74-17.75h2105.94c9.8,0,17.74,7.95,17.74,17.75Z"/>
  <path class="cls-20" d="M1460.47,1195.74c98.39,19.35,120.83,66.7,107.13,104.33-13.7,37.63-60.11,55.29-154.34,20.98-50.48-18.38-97.08-45.26-127.37-72.05-26.24-23.21-40.23-46.35-33.87-63.82,13.7-37.63,107.62-9.28,208.44,10.55Z"/>
  <path class="cls-8" d="M1142.81,1123.54c-27.74,50.18,7.53,82.81,78.91,113.57,59.21,25.51,90.71,14.37,106.43-18.19,3.27-6.78,11.72-25.83,8.03-48.19-5.75-34.84-34.65-68.34-54.47-77.18-10.56-4.71-16.84,6.79-11.82,14.87,8.37,13.46,29.37,32.64,20.47,33.6-12.55,1.36-46.23-38.67-86.59-50.53-31.35-9.21-47.4,7.53-60.96,32.05Z"/>
  <g>
    <ellipse class="cls-8" cx="1039.42" cy="673.95" rx="24.4" ry="27.54" transform="translate(-105.54 201.01) rotate(-10.52)"/>
    <ellipse class="cls-5" cx="1043.9" cy="673.12" rx="19.85" ry="22.4" transform="translate(-105.31 201.82) rotate(-10.52)"/>
  </g>
  <g>
    <ellipse class="cls-8" cx="1289.39" cy="674.04" rx="27.54" ry="24.4" transform="translate(391.36 1818.76) rotate(-79.48)"/>
    <ellipse class="cls-5" cx="1284.91" cy="673.2" rx="22.4" ry="19.85" transform="translate(388.51 1813.67) rotate(-79.48)"/>
  </g>
  <path class="cls-8" d="M1289.5,661.49c0,38.4-21.65,73.64-37.69,101.16-20.75,35.59-51.28,58.28-87.43,58.28s-67.38-23.16-88.12-59.36c-15.67-27.36-37-62.18-37-100.08,0-88.06,15.73-159.45,125.12-159.45,109.39,0,125.12,71.39,125.12,159.45Z"/>
  <path class="cls-13" d="M1138.42,622.21l-49.69,2.87c-13.31,1.2-21.43,5.74-22.54,3.55s8.57-20.3,22.04-21.08c13.47-.78,49.69-2.87,49.69-2.87,3.39-.2,3.56,3.94,3.7,8.78.14,4.84.19,8.55-3.2,8.75Z"/>
  <path class="cls-13" d="M1302.54,511.66c-27.23-49.41-76.03-93.83-137.28-63.93-.32.16-.64.29-.96.43.8-4.47,2.33-8.8,6.45-11.68,6.33-4.43,20.24-6.93,6.27-5.98-13.01.89-20.44,10.7-23.31,19.5-14.03-.24-32.75-7.67-69.89,1.32-39.93,9.67-62.3,60.68-76.08,106.87-11.74,39.33,16.84,47.23,24,91.79,15.64,97.31,29.15,135.89,40.7,153.42,11.55,17.53,31.53,35.92,91.99,35.92s85.74-24.62,91.99-35.92c6.25-11.29,28.47-39.49,40.5-158.85,2.47-24.55,32.72-83.74,5.63-132.9ZM1284.88,647.95c0,117.33-80.95,78.68-120.49,78.68s-96.74,29.77-121.34-73.22c-2.44-10.23-2.21-26.75-.53-40.9,2.06-17.3,6.43-30.06,17.23-31.76,8.85-1.39,14.44,7.68,21.86,8.5,15.43,1.7,22.66-13.48,27.78-20.12,4.68-6.06,14.42-4.84,19.33,7.26s15.65,16.32,25.43,3.51c9.78-12.81,11.22-33.28,18.93-27.59,7.72,5.69,41.17,29.89,61.23,33.44,20.06,3.56,26.44-12.15,37.02-6.48,11.82,6.33,13.89,55.27,13.9,55.95,0,2.25,0,5.82-.35,12.72Z"/>
  <path class="cls-13" d="M1190.34,622.21l49.69,2.87c13.31,1.2,21.43,5.74,22.54,3.55s-8.57-20.3-22.04-21.08c-13.47-.78-49.69-2.87-49.69-2.87-3.39-.2-3.56,3.94-3.7,8.78-.14,4.84-.19,8.55,3.2,8.75Z"/>
  <circle class="cls-13" cx="1113.26" cy="660.1" r="14.23" transform="translate(-167.87 476.28) rotate(-22.5)"/>
  <path class="cls-3" d="M802.15,775.84c9.18,68.47,59.47,207.89,114.09,270.51s241.87-157.82,132.93-191.95c-49.1-15.38-106.04-120.98-124.32-168.42-19.76-51.29-132.37,17.71-122.7,89.86Z"/>
  <circle class="cls-6" cx="1105.66" cy="651.13" r="3.91"/>
  <path class="cls-3" d="M916.04,656.88c49.75,147.57-12.01,173.54-57.01,175.8s-60.75-23.64-68.84-179.31c-4.34-83.4-8.84-173.32,4.77-232.55,11.79-51.33,29.14-84.97,50.03-86.02,45-2.26,7.52,133.65,71.05,322.08Z"/>
  <g>
    <path class="cls-5" d="M834.35,276.13c-73.63,25.91-58.84,26.97-62.85,75.98-5.78,70.72,26.42,85.79,64.62,87.84,7.95.43,31.25,1.8,49.89-13.76,28.63-23.9,13.9-48.82,9.27-57.45-6.52-12.16,4.9-22.02-4.3-67.39-9.26-45.66-28.59-35.11-56.63-25.24Z"/>
    <path class="cls-8" d="M857.55,288.24c2.44,6.1,11.93,27.56,14.14,43.4,1.31,9.33,1.45,18.25-4.68,20.84-2.99,1.26-9.86,1.44-13.93-3.62-11.21-13.94-21.58-48.98-22.19-53.66-1.31-10.03,5.24-19.48,13.71-17.48,10.56,2.49,12.96,10.54,12.96,10.54Z"/>
    <path class="cls-8" d="M831.33,297.19c2.15,6.09,9.6,24.04,11.55,39.84,1.15,9.31,1.26,18.21-4.18,20.8-2.65,1.26-8.75,1.45-12.35-3.6-9.92-13.9-18.14-45.41-18.67-50.08-1.15-10.01,4.67-19.45,12.18-17.47,9.36,2.47,11.48,10.5,11.48,10.5Z"/>
    <path class="cls-8" d="M808.25,307.25c1.86,5.8,7.71,19.8,8.78,34.61.63,8.72.23,16.99-5.53,19.03-2.81.99-9.1.75-12.51-4.18-9.4-13.58-15.24-40.22-15.52-44.59-.59-9.37,5.96-17.74,13.58-15.39,9.49,2.93,11.2,10.53,11.2,10.53Z"/>
    <path class="cls-5" d="M885.48,426.47c27.77-24.96,34.65-66.31,31.24-89-1.82-12.09-16.77-11.59-19.98-2.07-5.44,16.12-2.1,24.03-5.76,32.76-8.59,20.44-23.31,74.32-5.49,58.3Z"/>
    <path class="cls-8" d="M883.5,279.2c3.77,7.07,16.09,27.7,21.83,46.8,3.38,11.25,5.52,22.22.06,26.54-2.66,2.1-9.39,3.59-14.54-1.9-14.17-15.12-30.41-52.32-32.06-57.97-3.54-12.12.79-24.97,9.58-24.07,10.96,1.13,15.13,10.6,15.13,10.6Z"/>
  </g>
  <circle class="cls-13" cx="1215.58" cy="660.09" r="14.23" transform="translate(140.55 1530.53) rotate(-67.5)"/>
  <path class="cls-6" d="M1210.39,649.98c0,1.9-1.54,3.43-3.44,3.43s-3.44-1.54-3.44-3.43,1.54-3.43,3.44-3.43,3.44,1.54,3.44,3.43Z"/>
  <path class="cls-8" d="M1164.34,782.5c-34.7,0-48.72-24.45-46.71-33.38s23.55-2.58,46.71-2.58,41.01-6.42,46.71,2.58c5.71,9-12.02,33.38-46.71,33.38Z"/>
  <path class="cls-12" d="M1164.38,773.76c-24.78,0-33.36-20.7-33.36-20.7,0,0,16.82,8.27,33.36,8.27s33.36-8.27,33.36-8.27c0,0-8.58,20.7-33.36,20.7Z"/>
  <path class="cls-5" d="M1164.38,723.77c-13.81,0-18.59-11.56-18.59-11.56,0,0,9.37,6.1,18.59,6.1s18.59-6.1,18.59-6.1c0,0-4.78,11.56-18.59,11.56Z"/>
  <polygon class="cls-6" points="1476.89 974.4 1440.13 1339.48 888.64 1339.48 851.87 974.4 1476.89 974.4"/>
  <polygon class="cls-19" points="1034.95 1339.48 1020.14 1339.48 993.89 974.4 1008.71 974.4 1034.95 1339.48"/>
  <polygon class="cls-19" points="967.5 974.4 993.76 1339.48 986.89 1339.48 960.65 974.4 967.5 974.4"/>
  <polygon class="cls-19" points="1346 974.4 1319.76 1339.48 1311.49 1339.48 1337.75 974.4 1346 974.4"/>
  <g>
    <path class="cls-19" d="M1179.01,1179.09c-3.5,7.62-8.75,12.47-14.63,12.47s-11.13-4.85-14.63-12.47c4.19,2.78,9.22,4.4,14.63,4.4s10.44-1.62,14.63-4.4Z"/>
    <path class="cls-19" d="M1179.01,1134.79c-4.19-2.78-9.22-4.4-14.63-4.4s-10.44,1.62-14.63,4.4c3.5-7.62,8.75-12.47,14.63-12.47s11.13,4.85,14.63,12.47Z"/>
    <path class="cls-19" d="M1137.83,1156.94c0,5.41,1.62,10.44,4.4,14.63-7.62-3.5-12.47-8.75-12.47-14.63s4.85-11.13,12.47-14.63c-2.78,4.19-4.4,9.22-4.4,14.63Z"/>
    <path class="cls-19" d="M1199,1156.94c0,5.88-4.85,11.13-12.47,14.63,2.78-4.19,4.4-9.22,4.4-14.63s-1.62-10.44-4.4-14.63c7.62,3.5,12.47,8.75,12.47,14.63Z"/>
  </g>
  <circle class="cls-19" cx="1164.38" cy="1156.94" r="13.92"/>
  <g id="Text">
    <g>
      <g>
        <path class="cls-16" d="M1437.71,417.31h.01s0-232.4,0-232.4c0-19.95,16.17-36.12,36.12-36.12h412.85c19.95,0,36.12,16.17,36.12,36.12v275.7c0,19.95-16.17,36.12-36.12,36.12h-338.29c-4.74,0-9.44.93-13.82,2.75l-56.09,23.23c-25.69,10.64-53.27-10.52-49.64-38.09l8.86-67.32Z"/>
        <path class="cls-6" d="M1461.71,409.58h0s0-207.45,0-207.45c0-18.69,15.15-33.83,33.83-33.83h368.22c18.69,0,33.83,15.15,33.83,33.83v244.98c0,18.69-15.15,33.83-33.83,33.83h-302.32c-4.44,0-33.32-.62-37.43,1.08l-45.15,19.82c-16.15,7.34-36.7.37-24.82-34.13,8.95-25.98,7.65-58.13,7.65-58.13Z"/>
      </g>
      <g>
        <path class="cls-17" d="M1561.55,279.98l22.77,34.09,22.77-34.09c1.25-1.78,3.01-2.66,5.27-2.66,1.78,0,3.28.63,4.51,1.88,1.23,1.25,1.85,2.77,1.85,4.54,0,1.45-.32,2.66-.97,3.63l-27.01,40.33v40.09c0,1.78-.63,3.29-1.88,4.54-1.25,1.25-2.77,1.88-4.54,1.88s-3.24-.62-4.51-1.88c-1.27-1.25-1.91-2.77-1.91-4.54v-40.09l-26.95-40.33c-.69-1.05-1.03-2.26-1.03-3.63,0-1.78.62-3.29,1.88-4.54,1.25-1.25,2.77-1.88,4.54-1.88,2.26,0,4,.89,5.21,2.66Z"/>
        <path class="cls-17" d="M1701.16,361.37c1.78,0,3.29.63,4.54,1.88,1.25,1.25,1.88,2.77,1.88,4.54s-.63,3.29-1.88,4.54c-1.25,1.25-2.77,1.88-4.54,1.88h-56.02c-.93,0-1.78-.16-2.54-.48-.77-.32-1.44-.78-2.03-1.36-.58-.59-1.04-1.26-1.36-2.03-.32-.77-.48-1.61-.48-2.54v-84.05c0-.89.16-1.73.48-2.51.32-.79.78-1.47,1.36-2.06.58-.58,1.26-1.04,2.03-1.36.77-.32,1.61-.48,2.54-.48h56.02c1.78,0,3.29.63,4.54,1.88,1.25,1.25,1.88,2.77,1.88,4.54s-.63,3.29-1.88,4.54c-1.25,1.25-2.77,1.88-4.54,1.88h-49.6v29.19h35.61c1.78,0,3.29.63,4.54,1.88,1.25,1.25,1.88,2.77,1.88,4.54s-.63,3.29-1.88,4.54c-1.25,1.25-2.77,1.88-4.54,1.88h-35.61v29.19h49.6Z"/>
        <path class="cls-17" d="M1740.07,320.31c-2.99-2.74-5.08-5.56-6.27-8.45-1.19-2.89-1.79-5.94-1.79-9.17,0-3.96.75-7.54,2.24-10.75,1.49-3.21,3.69-6.07,6.6-8.57h-.06c4.64-4.04,10.09-6.06,16.35-6.06,2.02,0,4.04.25,6.06.76,2.02.51,3.97,1.27,5.84,2.3,1.88,1.03,3.63,2.31,5.27,3.84,1.64,1.53,3.1,3.33,4.39,5.39.61,1.05.91,2.2.91,3.45,0,.93-.16,1.78-.48,2.54-.32.77-.78,1.45-1.36,2.03-.59.59-1.27,1.04-2.06,1.36-.79.32-1.63.48-2.51.48-.81,0-1.52-.12-2.15-.36-.63-.24-1.19-.59-1.69-1.03-.51-.44-.99-.96-1.45-1.54-.46-.58-.96-1.26-1.48-2.03-.97-1.41-2.29-2.47-3.97-3.18-1.68-.71-3.48-1.06-5.42-1.06-1.54,0-3.03.31-4.48.94-1.45.63-2.75,1.48-3.88,2.57-1.13,1.09-2.05,2.38-2.76,3.88-.71,1.49-1.06,3.11-1.06,4.84,0,3.11.86,5.56,2.57,7.36,1.72,1.8,4.67,3.3,8.87,4.51,7.11,2.02,12.68,4.8,16.71,8.36,4.04,3.55,6.78,7.04,8.23,10.48s2.18,7.04,2.18,10.84c0,9.45-3.49,17.12-10.48,23.01h.06c-5.61,4.76-11.99,7.15-19.14,7.15-2.38,0-4.76-.29-7.15-.88-2.38-.59-4.67-1.44-6.87-2.57-2.2-1.13-4.26-2.54-6.18-4.24s-3.58-3.61-5-5.75c-.85-1.09-1.27-2.38-1.27-3.88,0-.89.16-1.72.48-2.51.32-.79.78-1.47,1.36-2.06.58-.58,1.26-1.04,2.03-1.36.77-.32,1.61-.48,2.54-.48,2.38,0,4.18.99,5.39,2.97,1.7,2.62,3.81,4.6,6.36,5.93,2.54,1.33,5.29,2,8.24,2,2.3,0,4.47-.45,6.51-1.36,2.04-.91,3.81-2.13,5.33-3.66,1.51-1.53,2.71-3.34,3.6-5.42.89-2.08,1.33-4.29,1.33-6.63,0-2.22-.41-4.31-1.24-6.27-.83-1.96-2.42-3.9-4.78-5.81s-6.11-3.64-11.23-5.18c-5.86-1.74-10.28-3.98-13.26-6.72Z"/>
        <path class="cls-17" d="M1819.78,365.61c0,1.21-.23,2.34-.7,3.39-.46,1.05-1.09,1.96-1.88,2.72-.79.77-1.71,1.37-2.76,1.82-1.05.44-2.14.67-3.27.67s-2.27-.22-3.3-.67c-1.03-.44-1.94-1.05-2.72-1.82-.79-.77-1.41-1.67-1.88-2.72-.46-1.05-.7-2.18-.7-3.39s.22-2.28.67-3.33c.44-1.05,1.06-1.97,1.85-2.76.79-.79,1.7-1.41,2.76-1.88,1.05-.46,2.16-.7,3.33-.7s2.28.23,3.33.7c1.05.46,1.97,1.09,2.76,1.88s1.4,1.71,1.85,2.76c.44,1.05.66,2.16.66,3.33ZM1804.88,283.73c0-1.78.59-3.28,1.79-4.51,1.19-1.23,2.7-1.85,4.51-1.85s3.32.62,4.51,1.85c1.19,1.23,1.79,2.74,1.79,4.51v63.22c0,.85-.17,1.66-.52,2.42-.34.77-.8,1.43-1.36,2-.57.57-1.23,1.01-2,1.33-.77.32-1.57.48-2.42.48-.89,0-1.72-.17-2.48-.52-.77-.34-1.43-.8-2-1.36s-1.01-1.22-1.33-1.97c-.32-.75-.48-1.54-.48-2.39v-63.22h0Z"/>
      </g>
    </g>
  </g>
  <g id="Lamp">
    <g>
      <path class="cls-10" d="M2033.88,1339.48h-289.61c-2.98,0-5.39-2.73-5.39-6.09v-24.54c0-3.37,2.41-6.09,5.39-6.09h289.61c2.98,0,5.39,2.73,5.39,6.09v24.54c0,3.37-2.41,6.09-5.39,6.09Z"/>
      <path class="cls-7" d="M1963.98,1303.1h-149.79l13.94-16.84c1.99-2.4,4.94-3.79,8.06-3.79h105.79c3.12,0,6.07,1.39,8.06,3.79l13.94,16.84Z"/>
      <rect class="cls-9" x="1875.54" y="907.76" width="27.07" height="374.7"/>
      <path class="cls-10" d="M2102.48,960.28s-50.74,11-125.34,16.8c-15.19,1.19-31.37,2.16-48.31,2.77-8.56.31-17.31.53-26.22.64-4.47.06-8.98.09-13.53.09s-9.06-.03-13.53-.09c-113.25-1.42-199.87-20.21-199.87-20.21l122.89-330.55h181.02l122.89,330.55Z"/>
    </g>
  </g>
  <g id="Plant">
    <g>
      <polygon class="cls-4" points="463.88 1121.11 437.91 1325.22 234.92 1325.22 228.8 1277.19 208.95 1121.11 463.88 1121.11"/>
      <path class="cls-15" d="M463.88,1121.11l-25.97,204.11h-202.99l-6.11-48.03c143.5-.36,157.44-62.17,159.78-156.08h75.29Z"/>
      <path class="cls-2" d="M234.91,1339.49h203l15.17-14.82c3.94-3.85,1.22-10.54-4.29-10.54h-224.76c-5.51,0-8.23,6.69-4.29,10.54l15.17,14.82Z"/>
      <path class="cls-11" d="M329.6,1093.26l6.92-.42c-5.86-97.63-7.52-239.89,17.79-363.18,18.03-87.81,60.16-160.88,112.7-195.44l-3.81-5.79c-24.74,16.28-48.19,41.9-67.81,74.11-22.08,36.24-38.18,78.54-47.87,125.73-25.47,124.03-23.81,266.94-17.92,364.99Z"/>
      <path class="cls-11" d="M339.24,1093.25c3.78-69.21,10.66-112.04,39.55-168.24,25.38-49.38,60.93-73.74,115.27-78.98l-.67-6.9c-56.95,5.49-94.2,31-120.77,82.71-29.46,57.32-36.47,100.82-40.3,171.04l6.92.38Z"/>
      <path class="cls-11" d="M331.52,1095.51l6.92-.47c-.92-13.43-1.71-26.7-2.48-39.53-4.77-79.67-8.89-148.47-38.5-218.13-29.51-69.43-62.91-114.41-108.3-145.84l-3.95,5.7c44.24,30.65,76.89,74.7,105.86,142.85,29.14,68.55,33.23,136.8,37.96,215.83.77,12.85,1.57,26.13,2.49,39.59Z"/>
      <path class="cls-2" d="M203.95,1128.24h264.93c4.41,0,7.98-3.57,7.98-7.98v-19.22c0-4.41-3.57-7.98-7.98-7.98H203.95c-4.41,0-7.98,3.57-7.98,7.98v19.22c0,4.41,3.57,7.98,7.98,7.98Z"/>
      <path class="cls-1" d="M342.77,671.52c-54.32-55.59-10.39-121.04,47.74-162.4,58.13-41.36,123.9-60.44,144.64-66.32,20.73-5.88,19.67,10.14,10.16,32.04-36.08,83.05-21.13,129.35-63.45,186.61-27.04,36.58-84.76,65.66-139.08,10.07Z"/>
      <path class="cls-1" d="M302.77,794.52c13.56-51.02-25.7-90.57-79.18-104.59-53.48-14.02-106.39-9.79-123.03-8.35s-11.48,12.75,1.43,26.01c48.95,50.29,58.59,80.12,97.22,117.83,25.23,24.62,88.09,27.33,103.57-30.89Z"/>
      <path class="cls-1" d="M356.34,901.53c-1.43-43.23,32.52-70.39,77.3-77.18,44.34-6.72,66.54.24,105.76,22.44,11.91,6.74,6.04,12.49-8.41,17.07-72.93,23.11-61.15,40.97-97.82,74.02-21.46,19.34-75.2,12.97-76.83-36.36Z"/>
      <path class="cls-11" d="M276.66,798.02c-16.4-24.44-31.85-43.7-57.88-62.26-36.98-26.36-79.86-34.44-79.86-33.23s47.8,16.11,76.32,39.91c19.13,15.96,37.96,29.51,69.7,83.69,1.69-1.67,5.09-5.53,5.09-5.53,0,0-5.65-11.08-13.37-22.59Z"/>
      <path class="cls-11" d="M358.54,685.3c18-55.18,34.52-95.9,66.98-138.97,32.46-43.08,73.77-63.88,74.95-62.55,1.18,1.33-31.59,16.38-70.96,67.27-40.4,52.22-57.31,110.03-64.93,138.35-4.16-2.75-6.03-4.09-6.03-4.09Z"/>
      <path class="cls-11" d="M367.37,932.4c17.14-35.25,30.94-57.93,56.57-71.24,36.98-19.2,79.28-14.94,73.57-14.46s-39.33-.42-72.09,18.49c-30.59,17.65-52.8,72.32-52.8,72.32-2.94-2.03-5.25-5.11-5.25-5.11Z"/>
    </g>
  </g>
  <g id="Cup">
    <g>
      <g>
        <path class="cls-6" d="M661.25,1213.16c43.15-20.55,16.86-47.31,10.82-57.81-6.04-10.5-3.21-18.68,2.72-37.38,5.93-18.7-10.15-36.87-10.15-36.87,0,0,9.04,15.39,2.35,32.8-6.7,17.41-10.47,29.99-3.41,44.13,7.06,14.14,20.23,33.71-11.64,48.89l9.32,6.24Z"/>
        <path class="cls-6" d="M692.79,1213.16c52.44-24.98,20.49-57.5,13.15-70.26-7.34-12.76-3.9-22.7,3.3-45.42,7.2-22.72-12.33-44.8-12.33-44.8,0,0,10.99,18.7,2.85,39.86-8.14,21.16-12.73,36.44-4.15,53.62s24.58,40.97-14.15,59.42l11.33,7.58Z"/>
        <path class="cls-6" d="M730.39,1215.2c39.47-18.8,15.42-43.27,9.9-52.87s-2.94-17.08,2.48-34.18c5.42-17.1-9.28-33.72-9.28-33.72,0,0,8.27,14.07,2.15,30-6.12,15.93-9.58,27.43-3.12,40.35,6.46,12.93,18.5,30.83-10.65,44.71l8.52,5.71Z"/>
      </g>
      <path class="cls-7" d="M627.97,1211.38l13.19,123.06c.3,2.83,2.69,4.97,5.54,4.97h102.45c2.85,0,5.24-2.14,5.54-4.97l1.66-15.47,11.53-107.59c.35-3.29-2.23-6.16-5.54-6.16h-128.83c-3.32,0-5.9,2.87-5.54,6.16Z"/>
      <path class="cls-7" d="M639,1310.96c15.75,0,28.94-4.33,29.87-4.64l-3.15-9.38c-.34.11-34.35,11.22-54.95-3.61-12.35-8.89-20.33-22.56-20.32-34.8,0-4.67,1.25-11.12,7.14-15.35,11.28-8.09,24.56-4.23,44.42,12.9l6.46-7.49c-15.93-13.75-36.77-27.7-56.65-13.44-7.26,5.21-11.26,13.51-11.27,23.38-.01,15.33,9.58,32.15,24.43,42.84,10.29,7.41,22.8,9.61,34.01,9.61Z"/>
      <path class="cls-14" d="M627.97,1211.38l13.19,123.06c.3,2.83,2.69,4.97,5.54,4.97h102.45c2.85,0,5.24-2.14,5.54-4.97l1.66-15.47c-85.2-3.08-89.1-44.06-88.24-113.75h-34.6c-3.32,0-5.9,2.87-5.54,6.16Z"/>
      <rect class="cls-6" x="725.74" y="1205.22" width="3" height="32.26"/>
      <path class="cls-6" d="M714.46,1275.1h25.56c1.66,0,3.01-1.35,3.01-3.01v-28.15c0-1.08-.58-2.07-1.51-2.61l-12.78-7.35c-.93-.53-2.07-.53-3,0l-12.78,7.35c-.93.54-1.51,1.53-1.51,2.61v28.15c0,1.66,1.35,3.01,3.01,3.01Z"/>
    </g>
  </g>
</svg>