<?xml version="1.0" encoding="UTF-8"?>
<svg id="Layer_1" data-name="Layer 1" xmlns="http://www.w3.org/2000/svg" viewBox="0 0 408.98 439.42">
  <defs>
    <style>
      .cls-1 {
        fill: #e13139;
      }

      .cls-2 {
        fill: #fff;
      }

      .cls-3 {
        fill: #ff9f87;
      }

      .cls-4 {
        fill: #ff7e6a;
      }

      .cls-5 {
        fill: #ff495c;
      }

      .cls-6 {
        fill: #3f3538;
      }

      .cls-7 {
        fill: #f5f2ee;
      }

      .cls-8 {
        fill: #21191b;
      }

      .cls-9 {
        fill: #e6d7d4;
      }

      .cls-10 {
        fill: #7393ff;
      }

      .cls-11 {
        fill: #5d74d9;
      }
    </style>
  </defs>
  <g>
    <path class="cls-9" d="M82.75,144.11c5.57-23.11,18.87-43.83,38.11-58.41,13.43-10.18,31.17-18.54,51.36-15.43,45.08,6.94,92.98,68.95,143.24,59.25s90.69,29.87,84.05,92.34-117.05,111.16-214.98,84.12c-84.14-23.23-117.3-97.53-101.78-161.87Z"/>
    <g>
      <path class="cls-9" d="M404.95,98.23s-4.6-15.71-14.56-14.56c-9.96,1.15-11.49,5.75-19.92,2.3-8.43-3.45-11.49-14.56-25.28-11.88-13.79,2.68-15.32,18.01-31.03,16.86s-21.07-1.53-26.82,7.28h117.61Z"/>
      <path class="cls-9" d="M216.11,36.96s-6.3-13.93-23.51-9.78c-17.01,4.11-24.34-20.26-39.48-18.69-15.15,1.57-13.78,11.06-33.1,14.2-19.32,3.13-20.86,0-29,14.27,0,0,125.09,0,125.09,0Z"/>
    </g>
    <path class="cls-9" d="M402.14,244.31c.59,0,1.13-.39,1.3-.99,5.15-18.52,6.72-35.97,4.67-51.87-1.64-12.76-5.6-24.55-11.77-35.05-10.52-17.91-23.65-25.72-24.2-26.05-.64-.38-1.47-.16-1.85.48-.38.64-.16,1.47.48,1.84h0c.13.08,13.16,7.86,23.31,25.21,9.37,16.01,18.14,43.7,6.74,84.7-.2.72.22,1.46.94,1.66.12.03.24.05.36.05Z"/>
    <path class="cls-9" d="M93.46,105.56c.42,0,.83-.19,1.09-.56,20.68-28.57,43.02-37.57,58.11-40.08,16.28-2.71,27.78,1.3,27.89,1.34.7.25,1.47-.11,1.72-.82.25-.7-.11-1.47-.82-1.72-.49-.18-12.27-4.29-29.24-1.46-9.94,1.65-19.59,5.37-28.69,11.04-11.33,7.06-21.82,17.2-31.17,30.12-.44.6-.3,1.45.3,1.88.24.17.52.26.79.26Z"/>
    <path class="cls-9" d="M140.99,302.5c.48,0,.95-.26,1.19-.72.35-.66.1-1.47-.56-1.82-20.25-10.69-34.83-28-43.49-40.64-9.4-13.71-14.03-25-14.07-25.11-.28-.69-1.07-1.02-1.76-.74s-1.02,1.07-.74,1.76c.05.11,4.79,11.67,14.35,25.62,8.83,12.89,23.71,30.56,44.46,41.5.2.11.41.16.63.16Z"/>
  </g>
  <g>
    <g>
      <g>
        <path class="cls-3" d="M78.28,116.62c-3.38.08-18.34-7.34-23.6-12.12-2.54-2.31-1.07-8.83,1.14-14.96,2.61-7.25,9.97-11.65,17.61-10.62.83.11,1.61.21,2.29.27,2.47.23,6.58-1.79,10.26-3.68.36-.19.71-.37,1.06-.55,2.95-1.53,5.47-2.82,6.38-2.53,2.12.68,1.48,3.69-1.69,6.89-3.17,3.2-9.11,6.23-9.11,6.23,0,0,11.71,4.49,14.37,9.04,2.15,3.68-1.11,5.53-2.44,6.1-.31.14-.52.2-.52.2,0,0,.25.35.51.92h0c.47,1.04.93,2.78-.18,4.3-1.11,1.52-2.37,2.04-3.12,2.23-.4.1-.66.1-.66.1,0,0,.04.22-.01.6-.1.71-.56,1.94-2.35,3.16-1.63,1.12-3.23,1.2-4.25,1.07-.68-.08-1.09-.24-1.09-.24,0,0-.06.19-.2.48-.47.96-1.78,3.07-4.39,3.13Z"/>
        <path class="cls-4" d="M85.97,75.5c.36-.19.71-.37,1.06-.55.93.33,2.17.49,3.53-.1.5-.22,1.02-.54,1.55-.99.2-.17.49-.15.66.05.17.2.15.49-.05.66-2.71,2.31-5.29,1.66-6.75.93Z"/>
        <path class="cls-4" d="M87.9,96.14c-.1-.22,0-.48.21-.6,2.28-1.24,1.74-3.87,1.72-3.98-.05-.25.11-.5.36-.56.25-.05.5.1.56.36.26,1.18.14,3.75-2.19,5.01-.23.12-.51.04-.64-.19,0-.01-.01-.03-.02-.04Z"/>
        <path class="cls-4" d="M84.4,103.11c-.1-.24,0-.52.24-.62,1.98-.86,1.59-3.34,1.58-3.36-.04-.26.13-.5.39-.54.26-.04.5.13.54.39.19,1.11-.02,3.46-2.14,4.38-.24.1-.52,0-.62-.24Z"/>
        <path class="cls-4" d="M79.4,108.77s0-.01,0-.02c-.09-.24.03-.51.27-.61,2.57-1,2.55-2.69,2.55-2.76,0-.26.19-.48.45-.49.26-.01.48.18.49.44,0,.1.09,2.42-3.14,3.68-.24.09-.5-.02-.6-.25Z"/>
        <path class="cls-4" d="M73.47,113.78s-.03-.08-.04-.12c-.04-.26.15-.49.4-.53,2.17-.29,2.61-2.43,2.62-2.45.05-.26.3-.42.55-.37.25.05.42.3.37.55-.19.98-1.15,2.9-3.42,3.2-.21.03-.41-.09-.49-.28Z"/>
        <path class="cls-4" d="M94.52,101.8c-1.7-1.14-3.62-2.21-3.65-2.23-.09-.05-.16-.13-.2-.22-.06-.13-.06-.28.02-.42.13-.23.41-.31.64-.18.1.06,1.65.92,3.2,1.93-.31.14-.52.2-.52.2,0,0,.25.35.51.92Z"/>
        <path class="cls-4" d="M90.55,109.02c-1.48-.95-2.9-1.74-2.92-1.75-.09-.05-.16-.13-.2-.22-.06-.13-.06-.28.02-.42.13-.23.41-.31.64-.18.1.05,1.6.89,3.13,1.88-.4.1-.66.1-.66.1,0,0,.04.23,0,.6Z"/>
        <path class="cls-4" d="M82.66,113.49c-.99-.72-1.7-1.31-1.76-1.36-.06-.05-.1-.11-.13-.17-.07-.16-.05-.35.07-.49.17-.2.46-.23.66-.05.02.02,1.1.92,2.45,1.85-.68-.08-1.09-.24-1.09-.24,0,0-.06.19-.2.48Z"/>
      </g>
      <path class="cls-3" d="M40.98,71.16c2.6,1.54,6.04,3.23,9.55,4.84,1.39.64,2.78,1.26,4.14,1.85,6.14,2.68,11.47,4.76,11.47,4.76l-11.37,19.61-9.99-3.87-7.73-2.99L0,81.79v-34.51s32.69,18.98,40.98,23.88Z"/>
      <path class="cls-4" d="M37.04,95.37l13.49-19.36c1.39.64,2.78,1.26,4.14,1.85l-9.9,20.5-7.73-2.99Z"/>
    </g>
    <g>
      <path class="cls-10" d="M59.64,79.17l-10.36,22.45c-.24.51-.85.74-1.36.5l-5.71-2.63c-.51-.24-.74-.85-.5-1.36l10.32-22.47c.24-.51.85-.74,1.36-.5l5.74,2.65c.51.24.74.85.5,1.36Z"/>
      <path class="cls-10" d="M58.46,93.01l.59-1.28c1.15-2.49.88-5.41-.7-7.66l-.81-1.15c-1.58-2.24-4.25-3.47-6.98-3.22l-1.4.13c-2.74.25-5.13,1.94-6.28,4.44l-.59,1.28c-1.15,2.49-.88,5.41.7,7.66l.81,1.15c1.58,2.24,4.25,3.47,6.98,3.22l1.4-.13c2.74-.25,5.13-1.94,6.28-4.44Z"/>
      <path class="cls-11" d="M49.57,82.3l1.01-.09c1.97-.18,3.88.7,5.02,2.32l.59.83c1.14,1.62,1.33,3.71.51,5.51l-.42.92c-.83,1.79-2.55,3.01-4.52,3.19l-1.01.09c-1.97.18-3.88-.7-5.02-2.32l-.59-.83c-1.14-1.62-1.33-3.71-.51-5.51l.42-.92c.83-1.79,2.55-3.01,4.52-3.19Z"/>
    </g>
  </g>
  <g>
    <g>
      <path class="cls-3" d="M95.85,215.18c-2.95,1.66-19.64,2.13-26.53.39-3.33-.84-5.09-7.29-6.02-13.74-1.1-7.63,3.33-14.97,10.56-17.65.79-.29,1.52-.58,2.15-.84,2.29-.95,4.97-4.67,7.33-8.07.23-.33.45-.66.68-.98,1.89-2.74,3.5-5.06,4.44-5.23,2.19-.4,3.04,2.56,1.75,6.87s-5.12,9.78-5.12,9.78c0,0,12.45-1.54,16.93,1.23,3.62,2.24,1.61,5.4.71,6.53-.21.27-.36.42-.36.42,0,0,.39.2.88.57h0c.9.7,2.13,2.01,1.86,3.88-.27,1.86-1.14,2.92-1.71,3.43-.31.28-.53.39-.53.39,0,0,.14.18.27.53.24.67.41,1.98-.59,3.89-.92,1.76-2.29,2.57-3.24,2.94-.64.25-1.08.3-1.08.3,0,0,.03.2.04.52.04,1.07-.13,3.54-2.4,4.82Z"/>
      <path class="cls-4" d="M83.33,175.26c.23-.33.45-.66.68-.98.97-.14,2.14-.58,3.07-1.75.34-.43.65-.96.9-1.6.09-.24.37-.36.61-.26.24.09.36.37.26.61-1.3,3.31-3.89,3.95-5.53,3.99Z"/>
      <path class="cls-4" d="M94.72,192.58c-.19-.15-.23-.42-.1-.63,1.43-2.16-.28-4.23-.35-4.32-.17-.2-.14-.49.06-.66s.49-.15.66.05c.78.92,1.88,3.24.42,5.45-.14.22-.43.28-.65.13-.01,0-.02-.01-.03-.02Z"/>
      <path class="cls-4" d="M94.9,200.37c-.2-.16-.24-.46-.07-.66,1.34-1.69-.17-3.69-.18-3.71-.16-.21-.12-.5.09-.66.21-.16.5-.12.66.09.69.9,1.61,3.07.17,4.87-.16.2-.46.24-.66.08Z"/>
      <path class="cls-4" d="M93.15,207.72s0,0-.01-.01c-.2-.17-.22-.47-.05-.66,1.8-2.09.99-3.57.95-3.63-.13-.22-.05-.51.17-.64.22-.13.51-.06.64.16.05.08,1.22,2.1-1.05,4.73-.16.19-.45.22-.65.06Z"/>
      <path class="cls-4" d="M90.27,214.92s-.06-.06-.09-.09c-.15-.21-.1-.51.11-.66,1.78-1.27,1.17-3.37,1.16-3.39-.07-.25.07-.51.31-.59.25-.08.51.07.59.31.29.95.34,3.1-1.51,4.43-.18.12-.41.11-.57-.01Z"/>
      <path class="cls-4" d="M103.23,194.46c-2.04-.21-4.23-.25-4.26-.25-.11,0-.21-.04-.28-.1-.11-.09-.18-.23-.18-.38,0-.26.22-.47.48-.46.11,0,1.89.04,3.74.2-.21.27-.36.42-.36.42,0,0,.39.2.88.57Z"/>
      <path class="cls-4" d="M103.11,202.7c-1.75-.14-3.38-.18-3.4-.17-.11,0-.21-.04-.28-.1-.11-.09-.18-.23-.18-.38,0-.26.22-.46.48-.46.11,0,1.83.03,3.65.19-.31.28-.53.39-.53.39,0,0,.14.18.27.53Z"/>
      <path class="cls-4" d="M98.25,210.35c-1.21-.17-2.11-.36-2.19-.38-.07-.01-.14-.05-.19-.09-.14-.11-.21-.29-.17-.47.05-.25.3-.42.56-.36.02,0,1.4.3,3.03.48-.64.25-1.08.3-1.08.3,0,0,.03.19.04.52Z"/>
    </g>
    <path class="cls-3" d="M69.16,190.85l-.83,22.66-10.64,1.28-8.23.99-.37.05-7.38.89-9.24,1.11-7.55.9-24.93,3v-29.09s17.89-.28,30.93-.24c1.05,0,2.07,0,3.04.02,2.24.02,4.25.05,5.88.1l.6.02c.4.01.78.03,1.12.04.73.03,1.51.05,2.31.05,2.56.02,5.47-.09,8.39-.26,1.52-.09,3.05-.2,4.53-.31,6.68-.52,12.36-1.19,12.36-1.19Z"/>
    <path class="cls-4" d="M49.1,215.82l-7.38.89c-2.53-7.49-2.15-19.43-1.87-24.21l.6.02,3.44.1,5.21,23.21Z"/>
    <path class="cls-4" d="M33.97,192.4l-1.49,25.42-7.55.9,6-26.34c1.05,0,2.07,0,3.04.02Z"/>
    <path class="cls-11" d="M32.08,191.61s-3.25,15.89-2.75,26.97c0,0,3.5,1.67,6.75-.08,0,0,.92-22.25,2.75-26.42,0,0-3.33-2.01-6.75-.47Z"/>
    <path class="cls-5" d="M40.75,191.61s1.27,14.94,5.83,25.06c0,0,3.79,1.29,5.92-.83,0,0-6.17-20-5.08-24.23,0,0-4.06-2.69-6.67,0Z"/>
  </g>
  <g>
    <g>
      <g>
        <path class="cls-3" d="M118.42,338.83c-1.3,3.13-14.13,13.8-20.63,16.68-3.14,1.39-8.51-2.6-13.22-7.09-5.58-5.32-6.62-13.83-2.59-20.4.44-.72.84-1.39,1.18-1.99,1.21-2.17,1.03-6.74.78-10.87-.03-.4-.05-.8-.07-1.19-.21-3.32-.37-6.14.27-6.86,1.48-1.66,3.97.14,5.61,4.33,1.64,4.19,2.01,10.86,2.01,10.86,0,0,8.85-8.89,14.08-9.48,4.23-.48,4.6,3.26,4.59,4.7,0,.34-.03.56-.03.56,0,0,.43-.09,1.04-.09h0c1.14,0,2.92.27,3.86,1.9.94,1.64.91,3,.77,3.76-.07.41-.18.64-.18.64,0,0,.22.05.54.25.6.38,1.55,1.3,1.94,3.43.36,1.95-.21,3.44-.73,4.32-.35.59-.67.9-.67.9,0,0,.15.13.36.38.69.82,2.08,2.87,1.09,5.28Z"/>
        <path class="cls-4" d="M83.93,315.16c-.03-.4-.05-.8-.07-1.19.68-.71,1.33-1.78,1.34-3.27,0-.55-.08-1.15-.28-1.82-.08-.25.07-.51.32-.58.25-.08.51.07.58.32,1.02,3.41-.62,5.51-1.89,6.55Z"/>
        <path class="cls-4" d="M103.58,321.75c-.24,0-.44-.19-.46-.43-.21-2.58-2.83-3.16-2.94-3.18-.25-.05-.42-.3-.37-.55s.3-.42.55-.37c1.18.24,3.48,1.39,3.69,4.03.02.26-.17.49-.43.51-.02,0-.03,0-.04,0Z"/>
        <path class="cls-4" d="M108.54,327.77c-.26,0-.47-.21-.47-.47.02-2.16-2.41-2.8-2.43-2.81-.25-.07-.4-.32-.34-.57.07-.25.32-.4.57-.34,1.09.28,3.16,1.42,3.14,3.73,0,.26-.21.47-.47.47Z"/>
        <path class="cls-4" d="M111.69,334.63h-.02c-.26-.01-.46-.23-.45-.49.13-2.76-1.43-3.42-1.5-3.45-.24-.1-.36-.37-.26-.61.09-.24.36-.36.6-.27.09.04,2.25.9,2.1,4.37-.01.25-.22.45-.47.45Z"/>
        <path class="cls-4" d="M113.87,342.07s-.09,0-.13-.02c-.25-.07-.39-.33-.32-.58.61-2.1-1.16-3.37-1.18-3.39-.21-.15-.26-.44-.11-.65.15-.21.44-.26.65-.12.81.57,2.18,2.23,1.55,4.42-.06.21-.25.34-.46.34Z"/>
        <path class="cls-4" d="M111.44,317.98c-1.73,1.09-3.49,2.42-3.51,2.43-.08.07-.19.1-.29.1-.14,0-.28-.07-.37-.19-.16-.21-.12-.5.09-.66.09-.07,1.51-1.13,3.07-2.15,0,.34-.03.56-.03.56,0,0,.43-.09,1.04-.09Z"/>
        <path class="cls-4" d="M116.43,324.53c-1.47.97-2.76,1.95-2.78,1.96-.08.07-.19.1-.29.1-.14,0-.28-.07-.38-.19-.15-.21-.11-.5.09-.66.09-.07,1.46-1.1,2.99-2.1-.07.41-.18.64-.18.64,0,0,.22.05.54.25Z"/>
        <path class="cls-4" d="M117.33,333.56c-1.06.61-1.89,1.02-1.96,1.05-.07.03-.14.05-.21.05-.17,0-.34-.1-.42-.27-.11-.23-.02-.51.22-.63.02,0,1.28-.63,2.68-1.49-.35.59-.67.9-.67.9,0,0,.15.13.35.38Z"/>
      </g>
      <path class="cls-3" d="M61.76,354.54c2.46-1.76,5.4-4.22,8.29-6.77,1.14-1.01,2.28-2.04,3.37-3.04,4.94-4.53,8.99-8.57,8.99-8.57l13.34,18.34-7.58,7.57-5.86,5.86-43.31,43.27-19.43-25.19s34.36-25.87,42.2-31.47Z"/>
    </g>
    <polygon class="cls-2" points="68.22 347.4 74.68 341.56 91.11 360.22 85.79 365.42 68.22 347.4"/>
    <polygon class="cls-5" points="14.8 439.42 87.19 365.73 68.39 345.38 0 399.43 0 439.42 14.8 439.42"/>
    <path class="cls-1" d="M45.63,402.33c-.05-.06-.09-.14-.11-.22-2.01-9.23.33-19.49,2.65-26.48,2.5-7.55,5.52-13.01,5.55-13.07.13-.24.44-.33.68-.19s.33.44.19.68c-.12.21-11.85,21.6-8.1,38.85.06.27-.11.54-.38.6-.18.04-.37-.03-.48-.16Z"/>
    <path class="cls-1" d="M70.52,377.87c-.96.85-2.43.75-3.27-.21-.85-.96-.75-2.43.21-3.27.96-.85,2.43-.75,3.27.21.85.96.75,2.43-.21,3.27Z"/>
    <path class="cls-1" d="M77.94,370.61c-.96.85-2.43.75-3.27-.21-.85-.96-.75-2.43.21-3.27.96-.85,2.43-.75,3.27.21.85.96.75,2.43-.21,3.27Z"/>
  </g>
  <g>
    <path class="cls-3" d="M319.86,394.42s-1.13,14.01-5.25,26.76c-4.12,12.76-5.72,15.15-5.72,15.15,0,0-19.89-49.51,10.97-41.91Z"/>
    <polygon class="cls-8" points="308.31 439.42 316 398.6 244.2 401.04 240.83 439.42 308.31 439.42"/>
    <g>
      <path class="cls-8" d="M254.41,439.42c5.75-20.17,9.81-34.37,9.81-34.37l-77.12-20.61-8.2,54.98h75.51Z"/>
      <path class="cls-6" d="M191.88,439.42l6.75-45.38c.12-.8-.43-1.54-1.23-1.65-.8-.12-1.54.43-1.65,1.23l-6.81,45.8h2.94Z"/>
    </g>
    <g>
      <g>
        <path class="cls-1" d="M318.05,399.69c3.56-.75,6.28-3.65,6.83-7.25,3.77-24.64.9-72.08-3.63-104.11-8.56-60.54-19.93-148.33-19.93-148.33-7.54,40.8-12.16,208.19-.57,257.53,6.05,2.36,11.86,3.29,17.3,2.15Z"/>
        <path class="cls-5" d="M313.88,346.89c-.22-2.33-.45-4.67-.67-7.04-.08-.83-.16-1.67-.24-2.5-.22-2.23-.43-4.46-.64-6.69-.11-1.15-.22-2.29-.33-3.43-.11-1.2-.23-2.4-.33-3.59-.06-.66-.12-1.33-.18-2-.06-.61-.11-1.22-.16-1.84-.14-1.45-.26-2.89-.38-4.33-.04-.38-.07-.76-.1-1.13-.03-.38-.06-.77-.09-1.14-.17-1.98-.32-3.95-.46-5.89-.07-.96-.14-1.93-.2-2.88-.06-.77-.11-1.55-.15-2.31-.02-.24-.03-.48-.05-.72-.03-.48-.06-.95-.08-1.42-.05-.77-.1-1.56-.14-2.33-.03-.66-.07-1.33-.1-1.98-.04-.79-.08-1.56-.11-2.33-.07-1.62-.12-3.2-.17-4.76-.06-2.48-.09-4.87-.08-7.15.01-1.25.04-2.46.08-3.65.01-.38.02-.76.03-1.15.02-.82.04-1.65.04-2.52.03-3.12,0-6.52-.08-10.15-.02-.87-.04-1.76-.07-2.65,0-.05,0-.1,0-.14-.02-.81-.04-1.63-.07-2.46-.03-.89-.06-1.81-.08-2.73,0-.04,0-.06,0-.1-.01-.34-.02-.68-.04-1.03-.02-.4-.03-.8-.05-1.2-.01-.38-.04-.76-.05-1.14-.04-1.11-.08-2.24-.12-3.37-.05-1.11-.1-2.23-.14-3.36-.03-.74-.06-1.49-.09-2.24-.08-1.98-.16-3.98-.25-6.01-.02-.41-.03-.82-.05-1.23-.01-.33-.03-.68-.04-1.02-.1-2.46-.2-4.96-.3-7.47-.02-.79-.05-1.58-.08-2.38-.02-.73-.06-1.45-.08-2.19-.02-.79-.05-1.59-.08-2.38,0-.07,0-.13,0-.19-.03-.97-.06-1.95-.08-2.92-.02-.6-.04-1.2-.05-1.8-.12-4.61-.2-9.22-.22-13.79-.01-1.6-.01-3.2,0-4.79,0-.3,0-.6,0-.89.06-9.25-.33-20.19-.34-28.35-.03-25.55-10.14-43.03-32.4-50.24l-16.95-5.5c-5.94-1.92-12.39-1.49-18.03,1.2-9.77,4.65-25.48,12.86-37.14,22.51-1.46,1.21-2.85,2.43-4.16,3.68-5.7,5.41-9.85,11.17-10.84,16.94-.24,1.41-.52,3.5-.83,6.18-.16,1.46-.35,3.1-.53,4.9-1.22,11.86-2.74,30.78-4.12,52.9-.04.6-.07,1.2-.11,1.82-.11,1.8-.22,3.63-.34,5.48-.04.73-.08,1.46-.12,2.2-.04.78-.09,1.57-.14,2.36-.06,1.01-.12,2.02-.17,3.04-.04.79-.09,1.58-.13,2.37-.04.73-.07,1.45-.12,2.18-.04.64-.06,1.29-.1,1.92-.05,1.05-.11,2.11-.16,3.18-.04.61-.06,1.21-.09,1.82-.13,2.58-.26,5.19-.38,7.82-.18,3.97-.36,7.98-.52,12-.02.63-.05,1.27-.07,1.9-.05,1.42-.1,2.83-.15,4.25-.09,2.24-.17,4.49-.25,6.74-.15,4.77-.29,9.55-.41,14.31-.04,2.05-.1,4.09-.14,6.13-.01.52-.02,1.02-.03,1.54-.03,1.49-.05,2.97-.09,4.45,0,.29,0,.57,0,.85-.02.98-.04,1.97-.04,2.95-.01,1.09-.03,2.17-.04,3.24-.01,1.15-.02,2.29-.03,3.42-.02,1.98-.03,3.96-.03,5.92,0,.71,0,1.41,0,2.11v1.83c0,1.05,0,2.08,0,3.12.01,3.14.04,6.23.09,9.26.02,1.69.06,3.36.1,5.02.01.69.03,1.38.04,2.06.02.71.04,1.42.06,2.12.86,30.45,3.7,53.19,9.87,56.71,19.97,11.4,109.23,12.76,122.73,5.68,7.59-3.99,5.62-32.18,2.67-63.57ZM188.66,318.37l-6.92-27.2c3.62-11.86,7.74-23.35,12.36-34.48l-5.44,61.68Z"/>
        <path class="cls-1" d="M212.97,336.01c-.69,0-1.29-.52-1.37-1.23-.08-.76.47-1.43,1.22-1.51h0c.15-.02,15.13-1.71,31.81-10.92,15.33-8.46,35.3-25.21,43.35-56.94.19-.74.93-1.18,1.67-.99s1.18.93.99,1.67c-3.66,14.44-10.02,27.11-18.89,37.65-7.1,8.43-15.81,15.52-25.89,21.07-17.15,9.44-32.12,11.13-32.75,11.19-.05,0-.1,0-.15,0Z"/>
        <path class="cls-1" d="M276.06,141.22c.14,1.58-1.03,2.97-2.61,3.11-1.58.14-2.97-1.03-3.11-2.61-.14-1.58,1.03-2.97,2.61-3.11,1.58-.14,2.97,1.03,3.11,2.61Z"/>
        <path class="cls-1" d="M277.18,154.22c.14,1.58-1.03,2.97-2.61,3.11-1.58.14-2.97-1.03-3.11-2.61-.14-1.58,1.03-2.97,2.61-3.1,1.58-.14,2.97,1.03,3.11,2.61Z"/>
        <path class="cls-1" d="M278.61,170.81c.14,1.58-1.03,2.97-2.61,3.11-1.58.14-2.97-1.03-3.11-2.61-.14-1.58,1.03-2.97,2.61-3.11,1.58-.14,2.97,1.03,3.11,2.61Z"/>
        <path class="cls-1" d="M274.85,134.77s-.04,0-.05,0c-20.61.8-36.59-10.91-37.26-11.41-.51-.38-.61-1.09-.23-1.6s1.09-.61,1.6-.24c.16.12,16.02,11.73,35.8,10.96.63-.02,1.16.47,1.18,1.1.02.61-.44,1.13-1.04,1.18Z"/>
        <path class="cls-1" d="M207.87,382.61c.12,0,.25-.02.37-.06.6-.2.91-.85.71-1.45-10.69-31.1-21.6-63.66-27.21-89.93,7.94-27.3,25.77-66.26,43.02-103.95.26-.57.01-1.25-.56-1.51-.57-.26-1.25,0-1.51.56-17.34,37.89-35.27,77.06-43.21,104.54-.05.18-.06.37-.02.55,5.62,26.45,16.58,59.2,27.34,90.48.16.47.61.77,1.08.77Z"/>
        <path class="cls-1" d="M216.35,204.46c.22,0,.45-.06.64-.2l12.55-8.56c.52-.35.65-1.06.3-1.59-.35-.52-1.07-.66-1.59-.3l-12.55,8.56c-.52.36-.65,1.07-.3,1.58.22.32.58.5.94.5Z"/>
        <path class="cls-1" d="M240.06,377.92c12.48,0,24.31-2.31,33.55-4.84,16.85-4.63,28.95-11,29.07-11.07.71-.38.98-1.26.6-1.97-.38-.71-1.26-.98-1.97-.6-.47.25-47.45,24.79-86.42,11.75-.77-.26-1.59.16-1.85.92-.26.76.16,1.59.92,1.85,8.58,2.87,17.49,3.97,26.09,3.97Z"/>
        <path class="cls-1" d="M251.29,391.58c6.77,0,13.71-.7,19.24-2.82.75-.29,1.13-1.13.84-1.88-.29-.75-1.13-1.13-1.88-.84-15.35,5.86-43.49,0-43.78-.06-.79-.17-1.56.34-1.73,1.12-.17.79.34,1.56,1.12,1.73.78.17,13.18,2.75,26.18,2.75Z"/>
      </g>
      <g>
        <g>
          <path class="cls-5" d="M228.36,171.07v.03c-2.35,4.96-4.72,10.07-7.05,15.13l-6.96,15.24c-4.6,10.17-9.13,20.36-13.54,30.57-4.4,10.2-8.7,20.42-12.69,30.57-1.98,5.07-3.89,10.12-5.58,15.02-.84,2.44-1.61,4.84-2.25,7.04-.3,1.08-.6,2.15-.79,2.97-.06.23-.09.4-.13.57l-.06.26s0,.02,0,.03v-.02s0-.02,0-.03c0,0,0-.02-.02-.02v.05c0,.07-.03.14-.05.21,0,.29-.05.5-.04.92,0,.19,0,.36,0,.57l.02.66c0,.43.07.96.09,1.44l.15,1.59c.25,2.19.64,4.58,1.1,7.03.93,4.92,2.16,10.07,3.5,15.25,2.72,10.37,5.95,20.89,9.36,31.38,3.42,10.5,7.06,21,10.83,31.47,1.88,5.24,3.8,10.47,5.75,15.68l2.95,7.81,2.97,7.72.1.26c2.98,7.77-.62,16.59-8.32,20.01-7.94,3.52-17.25-.06-20.77-8l-3.5-7.88-3.42-7.84c-2.26-5.23-4.49-10.48-6.68-15.74-4.39-10.53-8.66-21.12-12.77-31.85-4.09-10.74-8.03-21.59-11.6-32.85-1.38-4.41-2.72-8.86-3.94-13.5-.35-1.31-.68-2.62-1-3.96-.73-3.05-1.42-6.19-1.98-9.57l-.4-2.61c-.11-.92-.24-1.78-.32-2.76l-.13-1.45c-.04-.49-.07-1.03-.09-1.54-.07-.99-.07-2.19-.08-3.31l.07-1.9.03-.47.05-.54.11-1.08.06-.54.07-.49.12-.79c.08-.53.16-1.05.25-1.5.34-1.95.72-3.61,1.11-5.26.77-3.25,1.61-6.24,2.46-9.17,0-.04.03-.09.04-.13,1.7-5.79,3.52-11.32,5.38-16.79,3.76-11.01,7.72-21.74,11.77-32.43,4.05-10.67,8.2-21.26,12.42-31.82l6.37-15.81c2.15-5.28,4.29-10.49,6.52-15.82.12-.28.27-.64.4-.91,5.22-11.07,18.43-15.82,29.5-10.6,11.07,5.22,15.81,18.43,10.59,29.5Z"/>
          <path class="cls-1" d="M231.01,158.27c-.07.03-.15.05-.22.06-.65.12-1.31-.23-1.55-.87-3.46-9.33-8.66-15.28-15.46-17.67-5.46-1.92-11.1-1.24-15.46-.03,1.31-1.25,2.7-2.47,4.16-3.68,3.78-.49,8.01-.36,12.21,1.12,7.61,2.68,13.37,9.17,17.13,19.31.26.71-.1,1.5-.81,1.77Z"/>
        </g>
        <path class="cls-1" d="M145.04,312.82c-.35-1.31-.68-2.62-1-3.96-.73-3.05-1.42-6.19-1.98-9.57l-.4-2.61c-.11-.92-.24-1.78-.32-2.76l-.13-1.45c-.04-.49-.07-1.03-.09-1.54-.07-.99-.07-2.19-.08-3.31l.07-1.9.03-.47.05-.54.11-1.08.06-.54.07-.49.12-.79c.08-.53.16-1.05.25-1.5.34-1.95.72-3.61,1.11-5.26.77-3.25,1.61-6.24,2.46-9.17,0-.04.03-.09.04-.13,4.83,10.25,15.84,37.83-.36,47.07Z"/>
        <path class="cls-3" d="M212.71,439.42l9.69-5.23s.09-.05.14-.08c3.02-1.67,3.79-5.68,1.66-8.4-3.53-4.51-9.59-12.14-9.59-12.14-10.18-1.28-17.67,2.83-23.83,9.58,0,0,.02,9.02,2.66,16.27h19.26Z"/>
        <path class="cls-6" d="M217.94,439.42c9.15-6.36,12.94-13.57,13.19-14.06.4-.78.09-1.74-.69-2.14s-1.74-.09-2.14.69c-.07.13-4.8,9.05-16.53,15.51h6.17Z"/>
        <path class="cls-1" d="M179.51,295.5c.66,0,1.26-.46,1.42-1.13.18-.79-.31-1.57-1.09-1.75l-18.46-4.25c-.78-.18-1.57.31-1.75,1.09-.18.79.31,1.57,1.09,1.75l18.46,4.25c.11.03.22.04.33.04Z"/>
        <path class="cls-1" d="M162.02,298.61c.18,0,.37-.03.55-.11l11.25-4.55c.75-.3,1.11-1.15.8-1.9-.3-.75-1.15-1.11-1.9-.8l-11.25,4.55c-.75.3-1.11,1.15-.8,1.9.23.57.78.91,1.35.91Z"/>
      </g>
    </g>
    <g>
      <path class="cls-8" d="M234.75,48.52s-7.04-9.02-4.27-17.35c2.77-8.33,13.35-9,13.35-9,0,0-1.92-9.17,4.58-12.17s30.69,2.24,43.96-.71c12.55-2.79,15.54-9.29,15.54-9.29,0,0,9.65,29.83-10.17,33.08-19.83,3.25-55.5,1.46-63,15.44Z"/>
      <path class="cls-8" d="M235.55,50.14c-.41-.3-10.13-7.46-7.95-16.43,1.96-8.09,9.09-9.72,14.81-11.03.71-.16,1.39-.32,2.05-.48l.24.97c-.66.17-1.35.32-2.07.49-5.74,1.31-12.24,2.8-14.06,10.29-2.02,8.32,7.47,15.31,7.57,15.38l-.59.81Z"/>
      <path class="cls-8" d="M298.86,33.52c-1.28,0-2.15-.14-2.25-.16l.17-.99c.07.01,6.96,1.12,10.88-3.33,3.43-3.89,3.68-10.79.73-20.49l.96-.29c3.05,10.06,2.73,17.27-.95,21.45-2.86,3.24-7.01,3.81-9.55,3.81Z"/>
      <g>
        <path class="cls-3" d="M275.58,124.63s-.03.01-.11.03c-.63.15-4.15.96-9.07,1.31h-.05c-6.55.16-15.89-1.09-25.74-7.23l.37-18.77.4-20.14,4.62,1.41,28.77,8.78.55,23.43.26,11.17Z"/>
        <path class="cls-8" d="M251.33,85.36s1.96,26.65,24.04,30.05l-.6-25.39-23.44-4.66Z"/>
      </g>
      <path class="cls-4" d="M291.91,50.8s8.6-5.31,12.72,5.18c4.12,10.49-5.4,23.87-15.19,21.69,0,0-1.41-21.48,2.46-26.88Z"/>
      <path class="cls-8" d="M294.38,102.69s9.81-14.18,7.49-38c0,0-2.47,18.58-5.31,21.65l-2.17,16.35Z"/>
      <path class="cls-3" d="M301.87,66.91c-.19,3.47-.52,6.97-1.03,10.43-.33,2.26-.75,4.49-1.26,6.67-1.8,7.77-4.78,14.91-9.5,20.19-9.2,10.29-22.27,5.8-33.43-4.24-7.25-6.52-13.7-15.4-17.74-24.11h0c-.59-1.28-1.13-2.53-1.62-3.78-1.77-4.59-2.79-9.01-2.83-12.91-.01-1.39-.01-2.72,0-4,.02-1.45.06-2.83.12-4.14.04-.86.1-1.69.16-2.5.23-3.08.6-5.77,1.12-8.15,2.11-9.55,6.79-14.12,15.23-17.94,6.15-2.79,16.52-3.73,26.17-2.64,9.26,1.04,17.05,6.65,21.14,14.52.37.68.69,1.38.99,2.1,0,0,0,.02.01.03,1.08,2.57,1.76,5.34,2.02,8.24.53,6.34.87,14.17.43,22.26Z"/>
      <path class="cls-4" d="M301.87,66.91c-.19,3.47-.52,6.97-1.03,10.43-.02,0-.05,0-.07,0-2.91,0-5.27-2.36-5.27-5.27s2.36-5.28,5.27-5.28c.38,0,.74.04,1.1.11Z"/>
      <path class="cls-4" d="M271.59,71.25c0,2.91-2.36,5.27-5.27,5.27s-5.27-2.36-5.27-5.27,2.36-5.28,5.27-5.28c2.91,0,5.27,2.36,5.27,5.28Z"/>
      <path class="cls-8" d="M264.11,56.42s9.02-2.54,16.25-1.08c0,0,.98-6.48-7.23-5.89-5.96.43-9.94,1.31-9.02,6.97Z"/>
      <path class="cls-8" d="M303.7,57.16s-8.35-2.71-15.18-1.61c0,0-.68-6.1,6.98-5.25,5.56.62,9.26,1.59,8.19,6.86Z"/>
      <path class="cls-4" d="M237.29,72.07c.49,1.25,1.02,2.51,1.61,3.77h0c4.42,2.74,8.65,2.99,10.05,2.99.26,0,.42,0,.47-.01.56-.03.99-.52.96-1.09-.03-.56-.53-.99-1.09-.96-.03,0-.16,0-.36,0-1.45,0-6.81-.31-11.64-4.71Z"/>
      <path class="cls-8" d="M294.05,103.32c-3.64,6.72-7.83,8.62-20.6,7.63-6.61-.51-13.63-5.04-17.77-10.57-3.16-4.21-4.24-9.18-4.58-12.36-.79-7.24-4.26-29.89-4.37-30.68-3.72-.21-8.13-1.37-12.26-2.17,0-.71.02-1.4.04-2.08.02-.7.05-1.39.08-2.06.04-.86.1-1.7.16-2.5.23-3.08.6-5.77,1.13-8.15,2.11-9.55,6.78-14.12,15.23-17.94,6.15-2.79,16.52-3.73,26.17-2.64,9.04,1.01,16.7,6.39,20.86,13.98.1.18.2.36.29.53-.12-.15-.26-.29-.4-.43-5.22-5.06-23.06-3.11-29.27-2.13-2.45.39-4.17,2.5-4.17,4.87,0,.35.04.7.12,1.06.32,1.45.22,2.97-.32,4.35-.56,1.44-1.51,2.98-3.03,3.21-2.39.36-4.03,1.21-5.14,2.28-3.14,2.99-2.12,7.67-2.12,7.67,0,0,6.36,23.88,10.35,25.38,3.99,1.49,7.64-.69,22.99.68,0,0,8.45,1.12,11.53,2.27.26.1.47.28.64.53,1.7,2.64-2.2,13.16-5.53,19.3Z"/>
      <path class="cls-6" d="M282.05,98.93c-1.9-.35-3.18-1.09-3.28-1.15-.46-.28-.62-.88-.34-1.34.27-.46.88-.62,1.34-.34.17.1,4,2.28,8.11.1.48-.25,1.07-.07,1.32.4.25.48.07,1.07-.4,1.32-2.5,1.33-4.91,1.35-6.74,1.01Z"/>
      <path class="cls-2" d="M274.9,85.92s11.34,2.45,20.6.71c0,0-4.13,8.09-12.7,6.77-6.69-1.03-7.9-7.48-7.9-7.48Z"/>
      <path class="cls-8" d="M298.13,33.76s-.08.07-.12.1c-5.22-5.06-23.06-3.11-29.26-2.13-2.45.39-4.17,2.5-4.17,4.87,0,.35.04.7.12,1.06.32,1.45.22,2.97-.32,4.35-.56,1.44-1.51,2.98-3.03,3.21-2.39.36-4.03,1.21-5.14,2.28-10.16,1.24-20.8,5.24-21.69,5.58.02-.7.05-1.39.08-2.06.04-.86.1-1.7.16-2.5.23-3.08.6-5.77,1.13-8.15,2.11-9.55,6.78-14.12,15.23-17.94,6.15-2.79,16.52-3.73,26.17-2.64,9.04,1.01,16.7,6.39,20.86,13.98Z"/>
      <path class="cls-8" d="M270.53,31.46s7.38-1.46,11.92,2.2,5.62,4.43,8.3,4.31c2.83-.12,1.76-5.39,5.44-5.39,3.68,0-18.38-8.33-25.66-1.13Z"/>
      <g>
        <path class="cls-3" d="M243.52,50.39s-9.45-4.6-11.77,6.43c-2.32,11.03,8.41,20.72,18.03,20.05,0,0-1.53-21.8-6.25-26.48Z"/>
        <g>
          <path class="cls-4" d="M244.7,68.87c-.48-.01-.89-.35-.98-.84-1.21-6.78-6.37-10.32-6.42-10.36-.47-.31-.59-.95-.28-1.41.31-.47.94-.59,1.41-.28.24.16,5.93,4.04,7.29,11.69.1.55-.27,1.08-.82,1.18-.07.01-.14.02-.2.02Z"/>
          <path class="cls-4" d="M236.87,63.92c-.36,0-.7-.21-.88-.55-.26-.5-.07-1.11.43-1.37.14-.07,3.44-1.78,6.12-1.28.55.1.92.63.82,1.19-.1.55-.63.92-1.19.82-1.65-.3-4.02.68-4.8,1.09-.16.08-.33.12-.49.11Z"/>
        </g>
      </g>
      <path class="cls-4" d="M288.11,79.81c-1.29,0-2.71-.3-3.46-.48-.59-.14-.95-.74-.81-1.33.14-.59.74-.95,1.33-.81,1.42.35,3.03.5,3.66.38-.08-1.81-1.3-10.08-2.49-17.43-.1-.6.31-1.17.91-1.26.6-.1,1.17.31,1.26.91.64,3.92,2.69,16.82,2.51,18.33-.06.49-.33.92-.75,1.22-.53.36-1.31.49-2.15.49Z"/>
      <path class="cls-8" d="M274.1,62.03c.03,1.91-.8,3.48-1.85,3.5-1.06.02-1.94-1.52-1.98-3.43-.03-1.91.8-3.48,1.85-3.5,1.06-.02,1.94,1.52,1.98,3.43Z"/>
      <path class="cls-8" d="M297.41,62.03c.03,1.91-.8,3.48-1.85,3.5-1.06.02-1.94-1.52-1.98-3.43-.03-1.91.8-3.48,1.85-3.5,1.06-.02,1.94,1.52,1.97,3.43Z"/>
      <g>
        <path class="cls-2" d="M288.6,63.68c0-6.18,4.56-11.2,10.16-11.2s10.16,5.03,10.16,11.2-4.56,11.2-10.16,11.2-10.16-5.02-10.16-11.2ZM289.9,63.68c0,5.46,3.97,9.9,8.86,9.9s8.86-4.44,8.86-9.9-3.97-9.9-8.86-9.9-8.86,4.44-8.86,9.9Z"/>
        <path class="cls-2" d="M263.43,63.68c0-6.18,4.56-11.2,10.16-11.2s10.16,5.03,10.16,11.2-4.56,11.2-10.16,11.2-10.16-5.02-10.16-11.2ZM264.74,63.68c0,5.46,3.97,9.9,8.86,9.9s8.86-4.44,8.86-9.9-3.97-9.9-8.86-9.9-8.86,4.44-8.86,9.9Z"/>
        <path class="cls-2" d="M253.93,52.95c5.37,1.16,9.18,3.84,10.83,5.2.54.44.86.74.91.8l-.91.93s-.2-.19-.55-.49c-1.33-1.11-5-3.85-10.25-5.07l-.04-1.37Z"/>
        <path class="cls-2" d="M282.22,58.84c3.61-3.12,7.93-.32,8.11-.2l.72-1.08c-.05-.04-5.31-3.47-9.68.3l.85.99Z"/>
      </g>
    </g>
    <g>
      <path class="cls-2" d="M288.48,246.33c-.33,0-.63-.22-.72-.54-.07-.25-7.42-25.68-18.26-54.06-14.31-37.49-28.16-63.08-40.06-74.01-.3-.28-.32-.76-.04-1.06s.76-.32,1.06-.04c6.75,6.2,14.04,16.85,21.67,31.64,6.08,11.79,12.4,26.25,18.78,42.96,8.73,22.88,15.21,43.84,17.44,51.29,6.93-34.89,3.92-66.56.09-87.21-4.27-23.01-10.44-37.68-10.5-37.83-.16-.38.02-.82.4-.98.38-.16.82.02.98.4.06.15,6.29,14.94,10.59,38.1,2.52,13.6,3.9,27.39,4.1,40.99.25,17-1.37,33.75-4.79,49.78-.07.34-.36.58-.71.59,0,0-.02,0-.03,0Z"/>
      <path class="cls-7" d="M270.76,290.67h32.21c.85,0,1.54-.69,1.54-1.54v-46.19c0-.85-.69-1.54-1.54-1.54h-32.21c-.85,0-1.54.69-1.54,1.54v46.19c0,.85.69,1.54,1.54,1.54Z"/>
      <path class="cls-9" d="M276.77,250.23h19.61c.24,0,.43-.19.43-.43s-.19-.43-.43-.43h-19.61c-.24,0-.43.19-.43.43s.19.43.43.43Z"/>
      <path class="cls-9" d="M276.77,257.12h19.61c.24,0,.43-.19.43-.43s-.19-.43-.43-.43h-19.61c-.24,0-.43.19-.43.43s.19.43.43.43Z"/>
      <path class="cls-9" d="M276.77,263.92h19.61c.24,0,.43-.19.43-.43s-.19-.43-.43-.43h-19.61c-.24,0-.43.19-.43.43s.19.43.43.43Z"/>
      <path class="cls-9" d="M301.64,288.18h-29.55c-.21,0-.38-.17-.38-.38v-43.52c0-.21.17-.38.38-.38h29.55c.21,0,.38.17.38.38v43.52c0,.21-.17.38-.38.38ZM272.47,287.43h28.8v-42.77h-28.8v42.77Z"/>
    </g>
  </g>
</svg>