<?xml version="1.0" encoding="UTF-8"?>
<svg id="Layer_1" xmlns="http://www.w3.org/2000/svg" version="1.1" xmlns:xlink="http://www.w3.org/1999/xlink" viewBox="0 0 3710 3710">
  <!-- Generator: Adobe Illustrator 29.8.1, SVG Export Plug-In . SVG Version: 2.1.1 Build 2)  -->
  <defs>
    <style>
      .st0 {
        fill: url(#linear-gradient2);
      }

      .st1 {
        opacity: .26;
      }

      .st1, .st2, .st3 {
        fill: #fff;
      }

      .st1, .st3 {
        isolation: isolate;
      }

      .st4 {
        fill: url(#linear-gradient10);
      }

      .st5 {
        fill: url(#linear-gradient21);
      }

      .st6 {
        fill: #f8a570;
      }

      .st7 {
        fill: url(#linear-gradient1);
      }

      .st8 {
        fill: url(#linear-gradient9);
      }

      .st9 {
        fill: url(#linear-gradient18);
      }

      .st10 {
        fill: url(#linear-gradient23);
      }

      .st11 {
        fill: url(#linear-gradient8);
      }

      .st12 {
        fill: url(#linear-gradient11);
      }

      .st13 {
        fill: url(#linear-gradient16);
      }

      .st14 {
        fill: url(#linear-gradient24);
      }

      .st15 {
        fill: url(#linear-gradient22);
      }

      .st16 {
        fill: url(#linear-gradient19);
      }

      .st17 {
        fill: url(#linear-gradient12);
      }

      .st18 {
        fill: url(#linear-gradient7);
      }

      .st19 {
        fill: url(#linear-gradient20);
      }

      .st20 {
        fill: url(#linear-gradient4);
      }

      .st21 {
        opacity: .3;
      }

      .st22 {
        fill: url(#linear-gradient14);
      }

      .st23 {
        fill: url(#linear-gradient5);
      }

      .st24 {
        fill: url(#linear-gradient3);
      }

      .st25 {
        fill: url(#linear-gradient25);
      }

      .st26 {
        fill: #7d97f4;
      }

      .st27 {
        fill: url(#linear-gradient15);
      }

      .st28 {
        fill: #91b3fa;
      }

      .st29 {
        fill: url(#linear-gradient17);
      }

      .st30 {
        fill: url(#linear-gradient6);
      }

      .st3 {
        opacity: .56;
      }

      .st31 {
        fill: url(#linear-gradient13);
      }

      .st32 {
        fill: url(#linear-gradient);
      }
    </style>
    <linearGradient id="linear-gradient" x1="3483.41" y1="56.07" x2="1542.28" y2="2122.43" gradientTransform="translate(0 3710) scale(1 -1)" gradientUnits="userSpaceOnUse">
      <stop offset="0" stop-color="#dae3fe"/>
      <stop offset="1" stop-color="#e9effd"/>
    </linearGradient>
    <linearGradient id="linear-gradient1" x1="3109.18" y1="9162.2" x2="2870.22" y2="8558.18" gradientTransform="translate(4788.71 244.43) rotate(-85.92)" gradientUnits="userSpaceOnUse">
      <stop offset="0" stop-color="#ff928e"/>
      <stop offset="1" stop-color="#fe7062"/>
    </linearGradient>
    <linearGradient id="linear-gradient2" x1="2629.92" y1="2458.76" x2="3301.94" y2="3110.87" gradientTransform="translate(0 3710) scale(1 -1)" gradientUnits="userSpaceOnUse">
      <stop offset="0" stop-color="#4f52ff"/>
      <stop offset="1" stop-color="#4042e2"/>
    </linearGradient>
    <linearGradient id="linear-gradient3" x1="2121.34" y1="2982.86" x2="2793.36" y2="3634.97" gradientTransform="translate(0 3710) scale(1 -1)" gradientUnits="userSpaceOnUse">
      <stop offset="0" stop-color="#4f52ff"/>
      <stop offset="1" stop-color="#4042e2"/>
    </linearGradient>
    <linearGradient id="linear-gradient4" x1="2925.52" y1="3340.84" x2="2024.52" y2="2310.41" gradientTransform="translate(0 3710) scale(1 -1)" gradientUnits="userSpaceOnUse">
      <stop offset="0" stop-color="#4f52ff"/>
      <stop offset="1" stop-color="#4042e2"/>
    </linearGradient>
    <linearGradient id="linear-gradient5" x1="6006.3" y1="12308.78" x2="5767.35" y2="11704.76" gradientTransform="translate(3840.53 700.92) rotate(-132.78)" gradientUnits="userSpaceOnUse">
      <stop offset="0" stop-color="#ff928e"/>
      <stop offset="1" stop-color="#fe7062"/>
    </linearGradient>
    <linearGradient id="linear-gradient6" x1="12033.44" y1="20018.38" x2="11794.5" y2="19414.39" gradientTransform="translate(5805.14 -1142.85) rotate(-172.18)" gradientUnits="userSpaceOnUse">
      <stop offset="0" stop-color="#ff928e"/>
      <stop offset="1" stop-color="#fe7062"/>
    </linearGradient>
    <linearGradient id="linear-gradient7" x1="605.93" y1="-1260.19" x2="939.94" y2="-1260.19" gradientTransform="translate(3840.53 700.92) rotate(-132.78)" gradientUnits="userSpaceOnUse">
      <stop offset="0" stop-color="#09005d"/>
      <stop offset="1" stop-color="#1a0f91"/>
    </linearGradient>
    <linearGradient id="linear-gradient8" x1="12352.6" y1="19892.14" x2="12113.66" y2="19288.15" gradientTransform="translate(5805.14 -1142.85) rotate(-172.18)" gradientUnits="userSpaceOnUse">
      <stop offset="0" stop-color="#ff928e"/>
      <stop offset="1" stop-color="#fe7062"/>
    </linearGradient>
    <linearGradient id="linear-gradient9" x1="660.57" y1="-1654.5" x2="881.23" y2="-1654.5" gradientTransform="translate(3840.53 700.92) rotate(-132.78)" gradientUnits="userSpaceOnUse">
      <stop offset="0" stop-color="#09005d"/>
      <stop offset="1" stop-color="#1a0f91"/>
    </linearGradient>
    <linearGradient id="linear-gradient10" x1="1140.27" y1="594.78" x2="1324.7" y2="594.78" gradientTransform="translate(4031.32 3710) rotate(-180)" gradientUnits="userSpaceOnUse">
      <stop offset="0" stop-color="#09005d"/>
      <stop offset="1" stop-color="#1a0f91"/>
    </linearGradient>
    <linearGradient id="linear-gradient11" x1="1157.8" y1="646.7" x2="1211.26" y2="646.7" gradientTransform="translate(4031.32 3710) rotate(-180)" gradientUnits="userSpaceOnUse">
      <stop offset="0" stop-color="#febbba"/>
      <stop offset="1" stop-color="#ff928e"/>
    </linearGradient>
    <linearGradient id="linear-gradient12" x1="802.1" y1="582.9" x2="908.84" y2="582.9" gradientTransform="translate(4031.32 3710) rotate(-180)" gradientUnits="userSpaceOnUse">
      <stop offset="0" stop-color="#09005d"/>
      <stop offset="1" stop-color="#1a0f91"/>
    </linearGradient>
    <linearGradient id="linear-gradient13" x1="857.58" y1="674.58" x2="921.47" y2="674.58" gradientTransform="translate(4031.32 3710) rotate(-180)" gradientUnits="userSpaceOnUse">
      <stop offset="0" stop-color="#febbba"/>
      <stop offset="1" stop-color="#ff928e"/>
    </linearGradient>
    <linearGradient id="linear-gradient14" x1="2903.43" y1="1441.43" x2="2953.22" y2="814.12" gradientTransform="translate(0 3710) scale(1 -1)" gradientUnits="userSpaceOnUse">
      <stop offset="0" stop-color="#09005d"/>
      <stop offset="1" stop-color="#1a0f91"/>
    </linearGradient>
    <linearGradient id="linear-gradient15" x1="2980.63" y1="592.63" x2="2914.25" y2="838.22" gradientTransform="translate(0 3710) scale(1 -1)" gradientUnits="userSpaceOnUse">
      <stop offset="0" stop-color="#09005d"/>
      <stop offset="1" stop-color="#1a0f91"/>
    </linearGradient>
    <linearGradient id="linear-gradient16" x1="1736.27" y1="2020.21" x2="1483.25" y2="1691.05" gradientTransform="translate(4031.32 3710) rotate(-180)" gradientUnits="userSpaceOnUse">
      <stop offset="0" stop-color="#febbba"/>
      <stop offset="1" stop-color="#ff928e"/>
    </linearGradient>
    <linearGradient id="linear-gradient17" x1="5795.52" y1="13187.21" x2="5556.57" y2="12583.19" gradientTransform="translate(4031.32 3710) rotate(-180)" gradientUnits="userSpaceOnUse">
      <stop offset="0" stop-color="#ff928e"/>
      <stop offset="1" stop-color="#fe7062"/>
    </linearGradient>
    <linearGradient id="linear-gradient18" x1="3373.04" y1="3572.12" x2="3134.09" y2="2968.11" gradientTransform="translate(0 3710) scale(1 -1)" gradientUnits="userSpaceOnUse">
      <stop offset="0" stop-color="#ff928e"/>
      <stop offset="1" stop-color="#fe7062"/>
    </linearGradient>
    <linearGradient id="linear-gradient19" x1="1172.31" y1="1807.47" x2="1199.99" y2="1952.79" gradientTransform="translate(4031.32 3710) rotate(-180)" gradientUnits="userSpaceOnUse">
      <stop offset="0" stop-color="#febbba"/>
      <stop offset="1" stop-color="#ff928e"/>
    </linearGradient>
    <linearGradient id="linear-gradient20" x1="1247.2" y1="2074.09" x2="1089.27" y2="1953.25" gradientTransform="translate(4031.32 3710) rotate(-180)" gradientUnits="userSpaceOnUse">
      <stop offset="0" stop-color="#febbba"/>
      <stop offset="1" stop-color="#ff928e"/>
    </linearGradient>
    <linearGradient id="linear-gradient21" x1="1136.03" y1="2169.77" x2="1283.12" y2="1980.39" gradientTransform="translate(4031.32 3710) rotate(-180)" gradientUnits="userSpaceOnUse">
      <stop offset="0" stop-color="#09005d"/>
      <stop offset="1" stop-color="#1a0f91"/>
    </linearGradient>
    <linearGradient id="linear-gradient22" x1="1227.61" y1="2099.69" x2="1069.68" y2="1978.85" gradientTransform="translate(4031.32 3710) rotate(-180)" gradientUnits="userSpaceOnUse">
      <stop offset="0" stop-color="#febbba"/>
      <stop offset="1" stop-color="#ff928e"/>
    </linearGradient>
    <linearGradient id="linear-gradient23" x1="1320.21" y1="1704.24" x2="1209.67" y2="1538.43" gradientTransform="translate(4031.32 3710) rotate(-180)" gradientUnits="userSpaceOnUse">
      <stop offset="0" stop-color="#febbba"/>
      <stop offset="1" stop-color="#ff928e"/>
    </linearGradient>
    <linearGradient id="linear-gradient24" x1="-1761.23" y1="1579.28" x2="-2010.95" y2="1510.84" gradientTransform="translate(4741.97 3696.31) rotate(-2.83) scale(1 -1)" gradientUnits="userSpaceOnUse">
      <stop offset="0" stop-color="#09005d"/>
      <stop offset="1" stop-color="#1a0f91"/>
    </linearGradient>
    <linearGradient id="linear-gradient25" x1="-2097.87" y1="1663.43" x2="-2274.02" y2="1477.25" gradientTransform="translate(4664.05 3710) scale(1 -1)" gradientUnits="userSpaceOnUse">
      <stop offset="0" stop-color="#09005d"/>
      <stop offset="1" stop-color="#1a0f91"/>
    </linearGradient>
  </defs>
  <path class="st32" d="M2900.59,2824.91c-71.66,73.86-135.78,117.28-184.87,150.06-478.77,319.68-1026.06,227.54-1195.27,196.05-273-50.81-503.44-86.66-701.44-265.53-449.9-406.47-428.02-1254.4-84.24-1779.65,40.76-62.28,384.02-571.1,932.49-642.8,13.42-1.75,23.42-2.75,32.19-3.68,84.85-8.98,610.63-56.4,1039.35,302.79,61.37,51.41,160.13,144.16,251.72,285.6,334.87,517.18,335.94,1318.19-89.94,1757.17Z"/>
  <g>
    <path class="st28" d="M3094.94,2458.12H582.62c-20.16,0-36.51-16.34-36.51-36.5V703.94c0-20.16,16.34-36.51,36.51-36.51h2512.32c20.16,0,36.5,16.34,36.5,36.51v1717.68c0,20.16-16.34,36.5-36.5,36.5Z"/>
    <path class="st1" d="M3008.3,2383.17H645.24c-20.16,0-36.51-16.34-36.51-36.5V1013.15c0-20.16,16.34-36.51,36.51-36.51h2363.06c20.16,0,36.5,16.34,36.5,36.51v1333.52c0,20.16-16.34,36.5-36.5,36.5Z"/>
    <path class="st28" d="M3131.44,896.46v-107.88c0-66.91-55.38-121.12-122.29-121.12H675.1c-66.91,0-122.34,54.21-122.34,121.12v107.88h2578.69Z"/>
    <g>
      <circle class="st3" cx="688.32" cy="827.26" r="31.59"/>
      <circle class="st3" cx="787.89" cy="828.64" r="31.59"/>
      <circle class="st3" cx="883.36" cy="833.05" r="31.59"/>
    </g>
    <path class="st3" d="M1499.69,2300.13h-790.99c-6.6,0-12-5.4-12-12v-1215.64c0-6.6,5.4-12,12-12h790.99c6.6,0,12,5.4,12,12v1215.64c0,6.6-5.4,12-12,12Z"/>
    <path class="st3" d="M2944.64,1651.65h-1366.01c-6.6,0-12-5.4-12-12v-567.56c0-6.6,5.4-12,12-12h1366.01c6.6,0,12,5.4,12,12v567.56c0,6.6-5.4,12-12,12Z"/>
    <path class="st3" d="M2938.61,2279.86h-1366.01c-6.6,0-12-5.4-12-12v-533.67c0-6.6,5.4-12,12-12h1366.01c6.6,0,12,5.4,12,12v533.67c0,6.6-5.4,12-12,12Z"/>
  </g>
  <g>
    <g>
      <g class="st21">
        <path class="st26" d="M1297.19,1045.11c-5.34,1.08-10.75-2.02-12.42-7.33-3.65-11.62-6.86-23.57-9.52-35.52-1.3-5.81,2.37-11.58,8.18-12.87.07-.01.14-.03.21-.04,5.74-1.16,11.39,2.48,12.67,8.22,2.53,11.35,5.57,22.71,9.04,33.74,1.79,5.68-1.37,11.74-7.05,13.52-.36.12-.73.21-1.1.28ZM1279.19,952.91c-.41.08-.84.14-1.27.18-5.94.49-11.15-3.92-11.64-9.86-1.01-12.19-1.5-24.55-1.47-36.72.01-5.96,4.83-10.75,10.81-10.76,5.96.02,10.77,4.86,10.76,10.81-.03,11.57.44,23.31,1.4,34.9.45,5.5-3.31,10.38-8.59,11.45ZM1281.93,859.04c-1.18.24-2.41.28-3.67.1-5.89-.85-9.99-6.31-9.15-12.2,1.73-12.08,4-24.24,6.76-36.14,1.35-5.8,7.15-9.41,12.94-8.07,5.8,1.35,9.41,7.14,8.07,12.94-2.62,11.3-4.78,22.84-6.42,34.32-.66,4.64-4.19,8.17-8.53,9.05ZM1305.61,768.12c-1.94.4-4.02.26-6.01-.51-5.56-2.14-8.33-8.38-6.19-13.94,4.39-11.4,9.33-22.75,14.67-33.73,2.61-5.35,9.06-7.58,14.42-4.98,5.35,2.61,7.58,9.06,4.98,14.42-5.07,10.43-9.77,21.2-13.93,32.04-1.38,3.57-4.44,5.99-7.93,6.7ZM1348.96,684.76c-2.73.55-5.66.06-8.16-1.62-4.95-3.32-6.26-10.02-2.94-14.96,6.79-10.12,14.11-20.09,21.76-29.62,3.72-4.65,10.51-5.4,15.16-1.67,4.65,3.72,5.39,10.51,1.67,15.16-7.27,9.07-14.23,18.54-20.69,28.16-1.65,2.45-4.12,4.01-6.81,4.56ZM1409.67,613.08c-3.53.72-7.34-.35-10-3.16-4.09-4.33-3.89-11.16.44-15.24,8.88-8.38,18.22-16.48,27.78-24.08,4.67-3.71,11.45-2.93,15.15,1.73,3.7,4.66,2.93,11.44-1.73,15.15-9.08,7.22-17.96,14.91-26.4,22.88-1.52,1.43-3.34,2.34-5.25,2.72ZM1791.81,509.33c-1.46.3-3.01.29-4.56-.06-11.29-2.6-22.85-4.74-34.34-6.36-5.9-.83-10-6.29-9.17-12.18.83-5.9,6.28-10.01,12.18-9.17,12.11,1.71,24.28,3.96,36.17,6.7,5.81,1.34,9.43,7.13,8.09,12.93-.98,4.26-4.35,7.34-8.37,8.15ZM1484.71,556.66c-4.38.89-9.04-1.03-11.44-5.1-3.02-5.13-1.31-11.74,3.82-14.77,10.52-6.2,21.43-12.01,32.44-17.28,5.38-2.54,11.81-.3,14.38,5.07,2.57,5.37.3,11.81-5.07,14.38-10.46,5-20.82,10.52-30.81,16.41-1.06.62-2.19,1.05-3.33,1.28ZM1698.48,498.7c-.7.14-1.42.22-2.16.22-11.59,0-23.34.49-34.91,1.47-5.94.5-11.15-3.9-11.65-9.84-.5-5.93,3.9-11.18,9.84-11.65,12.18-1.03,24.54-1.55,36.74-1.55,5.96,0,10.78,4.83,10.78,10.79,0,5.21-3.71,9.56-8.63,10.56ZM1570.46,518.43c-5.33,1.08-10.73-2.01-12.41-7.32-1.8-5.68,1.35-11.74,7.03-13.54,11.62-3.68,23.57-6.91,35.49-9.58.07-.02.15-.04.22-.05,5.73-1.16,11.37,2.47,12.66,8.2,1.31,5.81-2.34,11.58-8.16,12.89-11.33,2.55-22.67,5.61-33.71,9.11-.37.11-.75.21-1.12.29Z"/>
        <path class="st26" d="M1863.76,532.92c-2.08.42-4.31.24-6.41-.67-5.1-2.21-10.34-4.34-15.56-6.34-5.56-2.13-8.34-8.37-6.2-13.93,2.13-5.56,8.38-8.34,13.93-6.2,5.49,2.11,11,4.35,16.37,6.67,5.47,2.36,7.99,8.71,5.63,14.17-1.45,3.37-4.42,5.62-7.77,6.3Z"/>
      </g>
      <g class="st21">
        <path class="st26" d="M2090.78,770.72c-5.1,1.03-10.34-1.75-12.23-6.78-1.95-5.2-4.05-10.46-6.23-15.61-2.32-5.49.24-11.81,5.73-14.13,5.51-2.33,11.81.25,14.13,5.73,2.29,5.42,4.5,10.95,6.56,16.43,2.09,5.58-.73,11.79-6.31,13.89-.55.21-1.1.36-1.66.47Z"/>
        <path class="st26" d="M1781.64,1330.12c-4.86.99-9.76,1.9-14.69,2.72-5.87.98-11.44-2.97-12.42-8.85-.99-5.87,3-11.46,8.84-12.42,11.38-1.91,22.66-4.29,33.65-7.08,5.78-1.46,11.64,2.02,13.11,7.79,1.47,5.78-2.02,11.65-7.79,13.11-6.8,1.73-13.76,3.32-20.7,4.73ZM1710.29,1338.43c-.59.12-1.2.19-1.82.21-12.03.37-24.2.24-36.19-.4-5.95-.31-10.51-5.39-10.2-11.34.32-5.95,5.4-10.53,11.34-10.2,11.38.6,22.95.73,34.38.38,5.95-.19,10.93,4.49,11.11,10.44.17,5.33-3.57,9.88-8.62,10.9ZM1856.22,1307.61c-4.98,1.01-10.14-1.63-12.12-6.51-2.24-5.52.41-11.81,5.93-14.05,10.55-4.29,21.07-9.09,31.25-14.28,5.31-2.69,11.8-.59,14.5,4.72,2.7,5.31.59,11.8-4.72,14.51-10.72,5.46-21.8,10.52-32.91,15.04-.64.26-1.28.45-1.93.58ZM1618.11,1331.09c-1.34.27-2.76.29-4.18.02-11.8-2.28-23.65-5.09-35.21-8.35-5.73-1.62-9.06-7.57-7.45-13.3,1.62-5.73,7.57-9.07,13.31-7.45,10.98,3.1,22.23,5.77,33.44,7.93,5.85,1.12,9.67,6.78,8.55,12.63-.85,4.42-4.29,7.69-8.45,8.53ZM1937.43,1263.54c-4.09.83-8.46-.77-11-4.41-3.4-4.89-2.2-11.61,2.69-15.01,9.35-6.5,18.54-13.5,27.34-20.8,4.58-3.8,11.38-3.17,15.19,1.42,3.8,4.58,3.17,11.38-1.42,15.18-9.26,7.68-18.95,15.05-28.79,21.9-1.25.86-2.61,1.43-4.01,1.72ZM2006.99,1202.72c-3.27.66-6.8-.19-9.44-2.62-4.39-4.03-4.68-10.85-.66-15.24,7.72-8.42,15.18-17.26,22.16-26.28,3.64-4.71,10.41-5.58,15.13-1.93,4.71,3.65,5.57,10.42,1.93,15.13-7.35,9.49-15.19,18.79-23.32,27.65-1.6,1.74-3.64,2.84-5.79,3.28ZM2061.64,1128.17c-2.49.5-5.16.14-7.53-1.23-5.16-2.97-6.93-9.57-3.96-14.73,5.71-9.91,11.06-20.16,15.91-30.47,2.53-5.39,8.95-7.71,14.35-5.17,5.39,2.53,7.71,8.95,5.17,14.35-5.1,10.86-10.74,21.65-16.74,32.07-1.61,2.79-4.28,4.59-7.2,5.18ZM2098.73,1043.49c-1.72.35-3.55.28-5.35-.28-5.69-1.77-8.85-7.82-7.08-13.5,3.4-10.91,6.38-22.08,8.84-33.21,1.29-5.81,7.05-9.49,12.86-8.2,5.82,1.29,9.49,7.04,8.2,12.86-2.59,11.73-5.73,23.5-9.31,34.98-1.22,3.89-4.43,6.6-8.16,7.36ZM2116.33,952.7c-.97.2-1.98.26-3.01.18-5.94-.48-10.36-5.68-9.88-11.61.91-11.36,1.35-22.91,1.3-34.33-.02-5.96,4.8-10.8,10.74-10.83,5.96-.03,10.8,4.78,10.83,10.74.05,12.02-.41,24.18-1.37,36.14-.39,4.9-4.01,8.78-8.6,9.71ZM2113.55,860.32c-.22.04-.44.08-.66.11-5.9.83-11.35-3.28-12.18-9.18-1.17-8.33-2.6-16.71-4.27-24.93-.6-2.98-1.24-5.94-1.91-8.89-1.31-5.81,2.34-11.59,8.15-12.89,5.86-1.44,11.58,2.34,12.89,8.14.7,3.1,1.37,6.22,2,9.35,1.75,8.65,3.27,17.47,4.49,26.23.8,5.67-2.98,10.94-8.52,12.06Z"/>
        <path class="st26" d="M1529.58,1303.53c-2.1.43-4.35.23-6.46-.69-5.35-2.34-10.75-4.84-16.05-7.42-5.35-2.61-7.58-9.06-4.97-14.42,2.61-5.35,9.06-7.58,14.42-4.97,5.04,2.45,10.17,4.83,15.24,7.05,5.45,2.38,7.94,8.74,5.56,14.2-1.46,3.34-4.42,5.57-7.74,6.25Z"/>
      </g>
      <g>
        <path class="st26" d="M1518.96,1178.06c1.66,1.36,4.01,1.52,5.84.39l52.21-32.2c25.72,12.62,53.63,21.22,82.86,25.07l25.63,55.69c.9,1.95,2.94,3.12,5.08,2.91l73.22-7.29c2.14-.21,3.91-1.76,4.41-3.85l14.14-59.65c27.9-9.54,53.56-23.48,76.29-40.92l57.54,21.27c2.02.74,4.28.13,5.65-1.53l46.61-56.93c1.36-1.67,1.52-4.01.39-5.84l-32.2-52.21c12.62-25.72,21.22-53.64,25.07-82.86l55.69-25.63c1.95-.9,3.12-2.94,2.91-5.08l-7.29-73.22c-.21-2.14-1.76-3.91-3.85-4.4l-59.65-14.14c-9.54-27.9-23.48-53.57-40.92-76.29l21.27-57.54c.74-2.02.13-4.28-1.53-5.65l-56.93-46.61c-1.66-1.36-4.01-1.52-5.84-.39l-52.21,32.2c-25.72-12.62-53.63-21.22-82.86-25.07l-25.63-55.69c-.9-1.95-2.94-3.12-5.08-2.91l-73.22,7.29c-2.14.21-3.91,1.76-4.4,3.85l-14.14,59.65c-27.9,9.53-53.57,23.48-76.29,40.92l-57.54-21.27c-2.02-.75-4.29-.13-5.65,1.53l-46.61,56.93c-1.36,1.66-1.52,4.01-.39,5.84l32.2,52.21c-12.62,25.72-21.22,53.64-25.07,82.86l-55.69,25.63c-1.95.9-3.12,2.94-2.91,5.08l7.29,73.22c.21,2.14,1.76,3.91,3.85,4.41l59.65,14.14c9.54,27.9,23.48,53.56,40.92,76.29l-21.27,57.54c-.75,2.02-.13,4.28,1.53,5.65l56.93,46.62Z"/>
        <path class="st28" d="M1709.84,977.29c-35.33,7.17-71.62-12.48-84.22-47.37-13.85-38.36,6.08-80.83,44.44-94.68,18.58-6.72,38.67-5.78,56.54,2.61,17.88,8.39,31.43,23.25,38.14,41.83,13.85,38.36-6.08,80.83-44.44,94.68-3.46,1.25-6.95,2.22-10.46,2.93ZM1684.01,849.19c-2.73.55-5.43,1.31-8.1,2.27-29.41,10.62-44.69,43.19-34.07,72.59,10.62,29.41,43.18,44.71,72.6,34.08,29.41-10.62,44.69-43.19,34.07-72.59-5.15-14.25-15.53-25.64-29.24-32.07-11.14-5.23-23.41-6.68-35.26-4.27Z"/>
        <path class="st28" d="M1732.56,1081.68c-6.07,1.23-12.23,2.17-18.48,2.79h0c-1.96.2-3.94.36-5.91.49-9.72.65-19.48.53-29.12-.36-.13-.01-.26-.02-.39-.04-.37-.04-.74-.07-1.12-.11-.73-.07-1.45-.15-2.18-.23-1.91-.21-3.38-1.64-3.74-3.42-.09-.43-.11-.89-.06-1.35.27-2.37,2.41-4.06,4.77-3.8,12.18,1.38,24.59,1.46,36.89.23,61.08-6.07,111.66-43.36,137.5-94.46,14.38-28.42,21.09-61.11,17.71-95.08-.59-5.96-1.48-11.84-2.66-17.63-7.91-38.95-28.8-73.71-59.97-99.23-35.8-29.32-80.87-42.93-126.92-38.35-95.09,9.48-164.67,94.5-155.21,189.54.58,5.86,1.46,11.67,2.63,17.4,5.05,24.85,15.47,48.31,30.62,68.68.39.53.65,1.11.77,1.71.32,1.59-.27,3.29-1.65,4.32-1.92,1.42-4.61,1.03-6.04-.89-15.9-21.38-26.85-46.02-32.15-72.1-1.22-6.02-2.15-12.11-2.76-18.27-9.94-99.79,63.19-189.05,162.94-198.99,48.34-4.82,95.65,9.48,133.24,40.26,32.72,26.79,54.65,63.28,62.96,104.17,1.23,6.08,2.17,12.25,2.79,18.5,4.81,48.34-9.48,95.66-40.26,133.24-26.8,32.72-63.3,54.66-104.2,62.96Z"/>
      </g>
    </g>
    <g>
      <g class="st21">
        <path class="st26" d="M993.07,1396.8c-2.82.57-5.8-.74-7.21-3.42-2.64-5-5.16-10.15-7.5-15.3-1.52-3.35-.04-7.29,3.32-8.82,3.35-1.54,7.3-.03,8.82,3.31,2.23,4.91,4.63,9.82,7.15,14.59,1.72,3.25.47,7.28-2.78,9-.58.3-1.18.51-1.79.64Z"/>
        <path class="st26" d="M973.41,1349.48c-3.31.67-6.65-1.26-7.67-4.55-2.9-9.3-5.34-18.85-7.28-28.38-.41-2.01-.79-4.03-1.16-6.06-.65-3.62,1.97-6.99,5.37-7.75,3.62-.66,7.08,1.75,7.74,5.36.35,1.94.72,3.87,1.11,5.79,1.85,9.1,4.18,18.2,6.94,27.07,1.09,3.51-.87,7.24-4.38,8.34-.22.07-.44.13-.66.17ZM961.1,1281.44c-.31.06-.63.11-.95.13-3.67.21-6.82-2.6-7.03-6.27-.68-11.78-.63-23.71.14-35.45.24-3.67,3.43-6.44,7.08-6.21,3.67.24,6.45,3.41,6.21,7.08-.74,11.2-.78,22.58-.14,33.81.19,3.35-2.12,6.26-5.32,6.91ZM965.65,1212.44c-.83.17-1.7.18-2.58.01-3.61-.69-5.97-4.19-5.28-7.8,2.23-11.57,5.21-23.13,8.86-34.35,1.14-3.5,4.89-5.41,8.39-4.27,3.5,1.14,5.41,4.9,4.27,8.39-3.48,10.7-6.32,21.72-8.45,32.75-.53,2.73-2.65,4.74-5.22,5.27ZM987.03,1146.66c-1.35.27-2.8.13-4.14-.49-3.33-1.56-4.77-5.53-3.21-8.86,5.01-10.69,10.72-21.16,16.99-31.13,1.96-3.11,6.08-4.04,9.18-2.09,3.11,1.96,4.05,6.07,2.09,9.19-5.97,9.49-11.43,19.49-16.2,29.68-.93,1.99-2.72,3.3-4.71,3.7ZM1023.82,1088.1c-1.89.38-3.93-.05-5.54-1.36-2.85-2.32-3.28-6.52-.96-9.37,7.45-9.14,15.53-17.91,24.03-26.05,2.65-2.56,6.87-2.46,9.42.19,2.55,2.66,2.46,6.87-.19,9.42-8.1,7.78-15.81,16.14-22.92,24.86-1.01,1.24-2.38,2.02-3.84,2.32ZM1073.71,1040.26c-2.44.5-5.07-.41-6.67-2.54-2.2-2.94-1.59-7.12,1.35-9.32,9.45-7.05,19.42-13.59,29.65-19.4,3.21-1.81,7.27-.7,9.08,2.5,1.82,3.2.7,7.26-2.49,9.08-9.76,5.55-19.26,11.77-28.27,18.5-.82.61-1.72,1-2.66,1.19ZM1133.76,1006.07c-3.06.62-6.23-.98-7.47-3.97-1.41-3.4.2-7.29,3.6-8.71,10.85-4.51,22.13-8.39,33.52-11.54,3.57-.92,7.22,1.1,8.2,4.65.98,3.54-1.1,7.21-4.64,8.2-10.87,3-21.62,6.71-31.97,11-.41.17-.82.29-1.23.38ZM1234.93,984.68c-.38.08-.77.12-1.17.13-9.71.24-19.57,1.01-29.32,2.3-1.48.19-2.93.39-4.37.61-3.64.54-7.03-1.97-7.57-5.6-.55-3.65,1.97-7.14,5.6-7.57,1.54-.23,3.08-.45,4.63-.64,10.19-1.34,20.53-2.16,30.71-2.4,3.68-.09,6.73,2.82,6.82,6.49.08,3.27-2.22,6.06-5.32,6.69Z"/>
      </g>
      <g class="st21">
        <path class="st26" d="M1301.36,1540.19c-3.56.72-7.06-1.55-7.83-5.12-.78-3.59,1.5-7.14,5.1-7.92,10.82-2.34,21.59-5.36,32.02-8.99,3.46-1.17,7.27.63,8.48,4.11,1.21,3.48-.64,7.27-4.11,8.48-10.93,3.79-22.22,6.96-33.57,9.42-.03,0-.06.01-.09.02ZM1267.69,1545.38c-.24.05-.47.08-.71.1-11.54,1.08-23.27,1.47-34.86,1.16-3.68-.1-6.58-3.16-6.48-6.83.09-3.68,3.18-6.57,6.83-6.48,11.05.3,22.24-.07,33.26-1.1,3.66-.34,6.91,2.35,7.25,6.01.32,3.43-2.01,6.48-5.3,7.15ZM1365.6,1517.86c-2.89.59-5.93-.81-7.3-3.59-1.62-3.29-.26-7.29,3.04-8.91,9.94-4.9,19.66-10.43,28.91-16.47,3.09-2,7.21-1.14,9.22,1.94,2.01,3.08,1.15,7.21-1.94,9.22-9.69,6.33-19.88,12.13-30.3,17.26-.53.26-1.07.44-1.62.56ZM1199.67,1543.51c-.74.15-1.52.18-2.32.06-11.47-1.73-22.96-4.18-34.12-7.3-3.55-.99-5.61-4.66-4.63-8.21.99-3.53,4.66-5.6,8.2-4.62,10.65,2.97,21.59,5.31,32.53,6.96,3.64.55,6.14,3.94,5.59,7.58-.43,2.84-2.6,4.99-5.26,5.53ZM1422.53,1480.67c-2.31.47-4.8-.31-6.42-2.23-2.37-2.82-2.01-7.02.8-9.39,8.45-7.12,16.56-14.83,24.09-22.93,2.51-2.7,6.72-2.84,9.42-.34s2.84,6.72.34,9.42c-7.9,8.49-16.4,16.57-25.26,24.04-.88.74-1.9,1.22-2.96,1.43ZM1468.87,1430.91c-1.77.36-3.67,0-5.24-1.14-2.97-2.16-3.63-6.33-1.47-9.3,6.52-8.96,12.55-18.4,17.92-28.03,1.79-3.22,5.85-4.37,9.06-2.58,3.21,1.79,4.36,5.84,2.57,9.05-5.63,10.11-11.95,20-18.78,29.39-1.02,1.4-2.49,2.29-4.06,2.61ZM1501.97,1371.47c-1.24.25-2.57.16-3.83-.36-3.41-1.39-5.04-5.28-3.65-8.68,4.19-10.25,7.78-20.86,10.67-31.51.97-3.54,4.62-5.64,8.17-4.68,3.55.96,5.65,4.62,4.68,8.18-3.04,11.17-6.8,22.29-11.19,33.05-.88,2.14-2.74,3.58-4.85,4.01Z"/>
        <path class="st26" d="M1133.84,1525.14c-1.26.26-2.6.15-3.88-.38-5.26-2.19-10.48-4.55-15.52-7-3.3-1.61-4.68-5.6-3.07-8.91,1.62-3.3,5.6-4.67,8.91-3.07,4.8,2.34,9.79,4.59,14.81,6.69,3.4,1.41,5,5.32,3.59,8.71-.89,2.12-2.74,3.54-4.83,3.97Z"/>
      </g>
      <g>
        <path class="st26" d="M1122.15,1439.72c1.11.91,2.68,1.02,3.91.26l34.94-21.55c17.21,8.44,35.89,14.2,55.45,16.77l17.15,37.26c.6,1.31,1.97,2.09,3.4,1.95l48.99-4.88c1.43-.14,2.61-1.18,2.95-2.58l9.46-39.91c18.67-6.38,35.84-15.71,51.05-27.38l38.5,14.23c1.35.5,2.87.09,3.78-1.03l31.19-38.09c.91-1.11,1.02-2.68.26-3.91l-21.55-34.94c8.44-17.21,14.2-35.89,16.77-55.45l37.26-17.15c1.31-.6,2.09-1.97,1.95-3.4l-4.88-48.99c-.14-1.43-1.18-2.62-2.58-2.95l-39.91-9.46c-6.38-18.67-15.71-35.84-27.38-51.05l14.23-38.5c.5-1.35.09-2.87-1.03-3.78l-38.09-31.19c-1.11-.91-2.68-1.02-3.91-.26l-34.94,21.55c-17.21-8.44-35.89-14.2-55.45-16.78l-17.15-37.26c-.6-1.31-1.96-2.09-3.4-1.95l-48.99,4.88c-1.43.14-2.61,1.18-2.95,2.58l-9.46,39.91c-18.67,6.38-35.84,15.71-51.05,27.38l-38.5-14.23c-1.35-.5-2.87-.09-3.78,1.03l-31.19,38.09c-.91,1.11-1.02,2.68-.26,3.91l21.55,34.94c-8.44,17.21-14.2,35.89-16.77,55.45l-37.26,17.15c-1.31.6-2.09,1.97-1.95,3.4l4.88,48.99c.14,1.43,1.18,2.61,2.58,2.95l39.91,9.46c6.38,18.67,15.71,35.84,27.38,51.05l-14.23,38.5c-.5,1.35-.09,2.87,1.03,3.78l38.1,31.19Z"/>
        <path class="st28" d="M1249.98,1306.27c-10.53,2.14-21.42.85-31.32-3.8-12.18-5.72-21.41-15.84-25.97-28.5-9.44-26.12,4.14-55.05,30.27-64.49,26.18-9.4,55.06,4.15,64.5,30.27,4.57,12.66,3.94,26.34-1.78,38.52-5.72,12.18-15.84,21.41-28.5,25.98-2.36.85-4.77,1.53-7.19,2.02ZM1232.71,1220.54c-1.76.36-3.51.84-5.24,1.47-19.22,6.95-29.2,28.22-22.26,47.44,3.36,9.31,10.15,16.76,19.11,20.96,8.96,4.21,19.02,4.66,28.34,1.31h0c9.31-3.36,16.76-10.15,20.96-19.11,4.21-8.96,4.67-19.03,1.31-28.34-6.31-17.48-24.5-27.33-42.2-23.73Z"/>
        <path class="st28" d="M1265.71,1378.95c-4.13.84-8.34,1.47-12.61,1.9-8.5.85-17.09.83-25.56-.05-.38-.04-.76-.08-1.14-.13-2.94-.33-5.22-2.53-5.78-5.29-.14-.67-.17-1.37-.09-2.08.41-3.66,3.72-6.26,7.37-5.86,7.9.9,15.93.95,23.88.15h0c.44-.04.87-.09,1.31-.14,18.78-2.05,36.34-8.71,51.45-19.21,8.2-5.7,15.69-12.54,22.25-20.41.05-.06.11-.13.16-.19.16-.2.33-.39.48-.59,18.97-23.18,27.79-52.36,24.82-82.16-.38-3.86-.96-7.66-1.72-11.41-5.12-25.21-18.65-47.72-38.82-64.24-23.18-18.98-52.35-27.79-82.16-24.82-29.79,2.98-56.67,17.37-75.65,40.54-18.98,23.18-27.79,52.36-24.82,82.16.38,3.79.95,7.55,1.7,11.26,3.27,16.09,10.02,31.28,19.82,44.46.6.81,1,1.72,1.18,2.65.5,2.45-.41,5.08-2.55,6.67-2.96,2.19-7.12,1.58-9.32-1.37-10.97-14.75-18.52-31.75-22.18-49.74-.84-4.16-1.48-8.36-1.9-12.6-3.32-33.35,6.54-65.99,27.78-91.93,21.23-25.93,51.27-42.06,84.64-45.35,33.35-3.32,65.99,6.54,91.92,27.78,22.57,18.48,37.71,43.66,43.43,71.87.85,4.19,1.5,8.45,1.93,12.76,6.43,64.57-37.52,122.74-99.79,135.38Z"/>
      </g>
    </g>
  </g>
  <g>
    <path class="st2" d="M1159.07,2387.03s-1.21-5.34-3.1-15.23c-1.07-5.62,2.6-11.04,8.21-12.11,2.48-.48,4.91-.02,6.94,1.1,2.39-3.93,5.14-8.35,8.23-13.16,3.1-4.8,9.5-6.16,14.31-3.08,4.8,3.1,6.18,9.5,3.08,14.31-8.73,13.53-14.4,23.61-17.13,28.45-.79,1.39-1.33,2.35-1.62,2.83l-13.29,21.79-5.64-24.89ZM1147.39,2320.23c-2.45-16.95-4.64-34.37-6.5-51.77-.61-5.67,3.51-10.78,9.19-11.39,5.67-.58,10.78,3.5,11.39,9.2,1.83,17.13,3.99,34.3,6.4,51,.82,5.65-3.1,10.91-8.76,11.72-.98.14-1.95.14-2.89.01-4.46-.61-8.15-4.1-8.83-8.77ZM1211.71,2319.17c-4.49-3.52-5.28-10.04-1.75-14.53,11.14-14.19,22.8-27.61,34.65-39.88,3.97-4.12,10.52-4.24,14.63-.26,4.11,3.97,4.22,10.53.25,14.63-11.36,11.77-22.55,24.65-33.26,38.29-2.36,3-6.03,4.34-9.56,3.86-1.76-.24-3.48-.94-4.97-2.11ZM1282.13,2243.45c-3.59-4.45-2.89-10.97,1.57-14.55,14.31-11.53,29.08-21.7,43.9-30.24,4.94-2.86,11.28-1.16,14.14,3.8,2.85,4.95,1.15,11.28-3.8,14.13-13.89,8.01-27.77,17.57-41.25,28.44-2.31,1.86-5.18,2.56-7.9,2.19-2.52-.35-4.93-1.61-6.65-3.76ZM1136.28,2216.53c-1.24-17.46-2.16-34.99-2.72-52.08-.19-5.71,4.28-10.5,9.99-10.69,5.76-.18,10.5,4.28,10.69,10,.57,16.84,1.47,34.1,2.69,51.3.4,5.71-3.89,10.66-9.59,11.06-.73.05-1.45.02-2.15-.07-4.74-.65-8.55-4.55-8.9-9.52ZM1369.91,2189.44c-1.86-5.41,1-11.3,6.4-13.16,12.25-4.23,24.74-7.5,37.15-9.73,4.91-.88,9.64-1.82,14.23-2.82,5.56-1.19,11.09,2.33,12.31,7.91,1.22,5.58-2.32,11.1-7.91,12.32-4.83,1.05-9.83,2.04-14.98,2.96-11.34,2.03-22.8,5.04-34.03,8.91-1.59.56-3.22.69-4.78.48-3.74-.51-7.07-3.06-8.38-6.87ZM1572.98,2198.65c.1-4.2,2.68-7.76,6.31-9.29,4.66-8.23,11.53-15.63,21.1-22.92,4.54-3.46,11.03-2.58,14.5,1.95,3.46,4.55,2.58,11.04-1.96,14.5-11.59,8.84-17.49,17.11-19.71,27.65l-20.47-2.42.23-9.48ZM1469.74,2162.9c-2.11-5.31.47-11.33,5.78-13.45,16.44-6.54,30.85-14.42,42.84-23.4,4.57-3.42,11.06-2.48,14.48,2.08,3.43,4.58,2.49,11.06-2.08,14.5-13.45,10.07-29.46,18.83-47.58,26.05-1.72.68-3.52.87-5.23.64-3.57-.49-6.78-2.84-8.21-6.42ZM1132.79,2112.28c.08-17.46.54-35.02,1.33-52.17.27-5.71,5.11-10.12,10.82-9.86,5.74.25,10.12,5.11,9.86,10.82-.79,16.86-1.23,34.12-1.32,51.31-.03,5.71-4.68,10.32-10.4,10.29-.47,0-.92-.04-1.38-.1-5.06-.7-8.95-5.06-8.92-10.31ZM1573.79,2146.9c.16-19.97.11-37.33-.16-51.6-.11-5.72,4.44-10.44,10.15-10.55,5.66-.02,10.43,4.43,10.54,10.15.27,14.46.33,32,.17,52.17-.05,5.72-4.72,10.31-10.43,10.26-.45-.01-.9-.04-1.34-.1-5.08-.7-8.97-5.07-8.92-10.34ZM1641.76,2152.84c-2.85-4.95-1.16-11.28,3.79-14.14,13.12-7.58,27.43-16.09,43.13-26.95,4.7-3.25,11.15-2.07,14.4,2.62,3.25,4.7,2.08,11.15-2.62,14.4-16.31,11.29-31.05,20.05-44.56,27.86-2.07,1.19-4.38,1.59-6.58,1.29-3.05-.42-5.89-2.2-7.56-5.08ZM1553.95,2105.36c-4.91-2.92-6.53-9.26-3.61-14.17,8.49-14.29,11.84-27.44,14.06-36.14.94-3.68,1.73-6.65,2.54-8.77.43-1.14.87-2.1,1.28-2.89,2.65-5.05,8.77-6.71,13.84-4.06,5.06,2.64,6.9,9.21,4.24,14.27-.59,1.58-1.13,3.82-1.84,6.57-2.36,9.25-6.32,24.74-16.32,41.58-2.19,3.69-6.31,5.52-10.31,4.97-1.33-.18-2.65-.63-3.87-1.36ZM1137.75,2007.99c1.44-15.53,3.22-31.03,5.28-46.03l.82-5.87c.81-5.64,6.02-9.57,11.67-8.79h.04c5.66.81,9.59,6.06,8.78,11.71l-.81,5.77c-2.02,14.71-3.76,29.89-5.18,45.13-.53,5.69-5.57,9.88-11.26,9.35-.16-.01-.31-.03-.46-.05-5.45-.75-9.4-5.67-8.89-11.21ZM1727.56,2095.36c-3.75-4.31-3.29-10.85,1.02-14.6,12.4-10.78,24.64-22.62,36.39-35.18,3.9-4.17,10.44-4.4,14.62-.49,4.18,3.9,4.39,10.45.49,14.62-12.23,13.08-24.99,25.41-37.92,36.66-2.35,2.04-5.35,2.83-8.2,2.44-2.39-.33-4.68-1.49-6.4-3.46ZM1799.72,2021.5c-4.51-3.52-5.3-10.02-1.79-14.53,2.23-2.85,4.46-5.74,6.69-8.71,7.98-10.54,15.36-21.55,21.94-32.71,2.91-4.91,9.28-6.58,14.17-3.64,4.92,2.9,6.56,9.25,3.65,14.17-6.98,11.83-14.81,23.5-23.25,34.66-2.31,3.05-4.6,6.04-6.89,8.98-2.36,3.01-6.04,4.36-9.57,3.88-1.75-.24-3.46-.93-4.95-2.1ZM1160.8,1916.72c-5.6-1.13-9.23-6.58-8.11-12.18,3.48-17.36,7.48-34.52,11.86-51.01,1.47-5.53,7.23-8.93,12.66-7.34,5.53,1.46,8.81,7.14,7.34,12.66-4.27,16.08-8.17,32.82-11.57,49.77-1.08,5.39-6.17,8.95-11.54,8.21-.21-.03-.42-.07-.64-.11ZM1854.47,1934.06c-5.3-2.13-7.87-8.15-5.74-13.46,6.2-15.42,11.28-31.5,15.1-47.79,1.3-5.55,6.91-9.16,12.44-7.71,5.56,1.3,9.02,6.87,7.71,12.43-4.06,17.31-9.46,34.39-16.04,50.79-1.81,4.49-6.41,7.02-11,6.39-.83-.11-1.65-.33-2.46-.66ZM1186.21,1816.46c-5.41-1.86-8.29-7.74-6.44-13.15,5.74-16.77,12.09-33.26,18.88-49.02,2.27-5.25,8.35-7.66,13.6-5.4,5.25,2.26,7.67,8.36,5.41,13.61-6.58,15.26-12.74,31.26-18.31,47.53-1.63,4.75-6.39,7.56-11.19,6.9-.65-.09-1.3-.24-1.95-.46ZM1871.67,1823.23c1.4-16.53,1.66-33.44.75-50.27-.31-5.7,4.07-10.58,9.77-10.89,5.73-.3,10.58,4.06,10.9,9.77.96,17.79.69,35.67-.8,53.14-.48,5.7-5.49,9.92-11.19,9.44-.18-.01-.36-.04-.54-.06-5.42-.74-9.36-5.61-8.89-11.12ZM1225.74,1720.95c-5.04-2.7-6.92-8.98-4.21-14.01,8.4-15.6,17.52-30.8,27.11-45.16,3.17-4.77,9.62-6.02,14.35-2.86,4.75,3.17,6.03,9.6,2.86,14.35-9.22,13.82-18.01,28.45-26.09,43.48-2.11,3.91-6.37,5.92-10.52,5.35-1.19-.16-2.37-.54-3.49-1.14ZM1866.28,1723.05c-4.83-24.8-10.86-41.14-12.8-45l-13.22-18.7c-3.3-4.67-2.19-11.12,2.48-14.42,4.66-3.3,11.12-2.19,14.42,2.48l12.91,18.26-.15.1c8.6,12.27,16.58,52.86,16.67,53.31,1.1,5.61-2.57,11.04-8.18,12.14-1.15.23-2.29.24-3.39.09-4.26-.59-7.88-3.82-8.75-8.27ZM1281.5,1634.01c-4.4-3.64-5.02-10.17-1.37-14.57,11.27-13.6,23.31-26.65,35.81-38.8,4.1-3.98,10.66-3.87,14.63.22,3.98,4.1,3.89,10.65-.21,14.64-11.96,11.61-23.5,24.11-34.29,37.15-2.37,2.86-5.96,4.12-9.39,3.65-1.84-.25-3.64-1.01-5.18-2.28ZM1353.96,1560.49c-3.51-4.51-2.69-11.02,1.82-14.52,13.76-10.71,28.36-20.82,43.39-30.08,4.86-3,11.24-1.47,14.24,3.38,3,4.87,1.48,11.25-3.39,14.24-14.39,8.86-28.36,18.55-41.54,28.78-2.29,1.78-5.1,2.45-7.76,2.08-2.58-.35-5.03-1.68-6.76-3.9ZM1810.39,1617.12l-29.87-42.24c-3.3-4.67-2.19-11.12,2.48-14.43,4.66-3.3,11.11-2.19,14.42,2.47l29.87,42.24c3.3,4.67,2.19,11.12-2.48,14.43-2.23,1.58-4.87,2.15-7.38,1.8-2.74-.38-5.32-1.84-7.04-4.27ZM1440.63,1504.47c-2.47-5.16-.31-11.33,4.84-13.81,15.47-7.43,31.81-14.32,48.52-20.45,5.38-1.98,11.32.77,13.28,6.15,1.97,5.36-.78,11.31-6.15,13.27-16.1,5.91-31.81,12.53-46.69,19.68-1.9.91-3.94,1.19-5.88.93-3.32-.46-6.37-2.52-7.93-5.77ZM1750.64,1532.63l-29.87-42.24c-3.3-4.67-2.19-11.12,2.48-14.43,4.66-3.3,11.11-2.19,14.43,2.47l29.87,42.24c3.3,4.67,2.19,11.12-2.48,14.43-2.23,1.58-4.87,2.15-7.38,1.8-2.74-.38-5.32-1.84-7.04-4.27ZM1536.84,1467.04c-1.48-5.52,1.79-11.2,7.31-12.68,16.47-4.43,33.69-8.33,51.19-11.6,5.61-1.02,11.02,2.66,12.07,8.28,1.05,5.61-2.65,11.02-8.27,12.07-16.96,3.17-33.65,6.94-49.6,11.23-1.38.37-2.77.45-4.09.26-4-.55-7.48-3.42-8.59-7.57ZM1638.06,1446.49c-.65-5.68,3.43-10.81,9.11-11.46,16.51-1.88,33.63-3.31,50.9-4.23l5.7-.3,4.03,5.69c3.3,4.67,2.19,11.12-2.49,14.42-3.04,2.15-6.83,2.44-10.03,1.07-15.53.9-30.91,2.21-45.77,3.91-.88.1-1.75.09-2.59-.03-4.58-.63-8.32-4.28-8.87-9.07Z"/>
    <path class="st7" d="M1785.39,1585.74s63.34,220.36-93.41,284.3c-156.75,63.94-330.76,89.56-362.01,162.84,0,0-39.79-446.57,401.73-507.65l53.68,60.5Z"/>
    <path class="st0" d="M2255.99,1477.72s134.01,180.87,101.58,249.94c-30.84,65.69-430.35,382.14-469.26,412.87-1.75,1.38-4.21,1.14-5.72-.5h0c-12.53-13.54-17.84-32.18-14.3-50.27,17.1-87.42,70.39-347.99,111.77-421.62,49.97-88.91,275.93-190.42,275.93-190.42Z"/>
    <path class="st28" d="M2010.88,2004.57c1.38.19,2.82-.17,3.98-1.12,2.17-1.78,217.97-178.88,307.89-258.72,16.01-14.21,22.15-36.55,15.64-56.88-10.27-32.07-32.34-94.24-64.74-150.14-1.43-2.46-4.59-3.32-7.07-1.88-2.47,1.43-3.31,4.6-1.88,7.07,31.92,55.06,53.7,116.42,63.84,148.1,5.27,16.44.31,34.49-12.65,45.99-89.77,79.71-305.41,256.68-307.58,258.46-2.21,1.81-2.53,5.07-.72,7.29.86,1.05,2.05,1.67,3.3,1.84Z"/>
    <path class="st24" d="M1900.8,1093.9s-169.96-147.6-241.33-120.62c-67.88,25.66-414.29,399.49-447.94,435.91-1.51,1.64-1.46,4.11.05,5.75h0c12.53,13.54,30.7,20.28,49.02,18.15,88.48-10.28,352.4-43.25,429-78.81,92.51-42.94,211.19-260.37,211.19-260.37Z"/>
    <path class="st28" d="M1361.01,1302.33c1.59.22,3.25-.3,4.44-1.54,1.94-2.03,195.06-203.33,281.48-286.67,12.47-12.03,30.85-15.57,46.83-9.06,30.8,12.57,90.31,39.04,142.72,75.11,2.34,1.65,5.57,1.03,7.19-1.33,1.62-2.35,1.03-5.57-1.33-7.19-50.54-34.79-106.57-60.63-144.67-76.18-19.77-8.06-42.51-3.68-57.92,11.19-86.57,83.48-279.83,284.94-281.77,286.95-1.98,2.06-1.91,5.34.15,7.31.82.79,1.83,1.25,2.87,1.4Z"/>
    <path class="st20" d="M2808.93,962.08c-53.31,95.59-125.63,194.45-223.8,285.83-304.77,283.68-577.85,439.48-656.68,481.7-14.26,7.64-31.49,6.67-45.03-2.18-106.71-69.73-191.44-159.96-254.33-270.58-11.83-20.81-10.88-46.57,2.19-66.63,56.7-87.04,230.91-336.92,524.12-606.68,97.94-90.11,201.28-154.28,300.02-199.98,182.49,112.29,295.16,279.91,353.51,378.53Z"/>
    <path class="st23" d="M2455.41,583.55c218.11-100.93,413.79-111.63,479.35-112.09,12.81-.09,22.88,10.79,21.8,23.56-5.52,65.1-31.17,258.25-147.64,467.06-58.36-98.62-171.02-266.24-353.51-378.53Z"/>
    <g>
      <path class="st30" d="M2248.27,843.58c-79.15,73.25-79.59,201.5-.97,286.46,78.62,84.95,206.52,94.44,285.67,21.19,79.15-73.25,79.59-201.5.97-286.46s-206.52-94.44-285.67-21.19Z"/>
      <path class="st18" d="M2277.22,866.82c-63.07,58.37-63.42,160.56-.78,228.25,62.64,67.69,164.56,75.25,227.63,16.89,63.07-58.37,63.42-160.56.77-228.25-62.64-67.69-164.56-75.25-227.63-16.89Z"/>
      <path class="st28" d="M2491.33,1055.57c2.01.28,4.09-.65,5.18-2.52,27.8-47.77,19.89-110.66-19.24-152.96-9.86-10.65-21.21-19.57-33.73-26.52-2.49-1.4-5.64-.49-7.03,2.01-1.39,2.49-.49,5.65,2.01,7.03,11.56,6.42,22.05,14.68,31.15,24.52,36.07,38.97,43.43,96.84,17.9,140.72-1.44,2.47-.6,5.64,1.87,7.07.6.36,1.25.57,1.9.66Z"/>
    </g>
    <g>
      <path class="st11" d="M2008.55,1162.33c-52.29,48.39-52.58,133.12-.64,189.24,51.94,56.12,136.43,62.39,188.73,14,52.29-48.39,52.58-133.12.64-189.24-51.94-56.12-136.43-62.39-188.73-14Z"/>
      <path class="st8" d="M2027.67,1177.68c-41.67,38.56-41.9,106.07-.51,150.79,41.39,44.72,108.71,49.71,150.38,11.16,41.67-38.56,41.9-106.07.51-150.79-41.38-44.72-108.71-49.72-150.38-11.16Z"/>
      <path class="st28" d="M2168.88,1304.12c2.01.28,4.09-.65,5.18-2.52,18.75-32.22,13.44-74.63-12.94-103.12-6.64-7.18-14.28-13.19-22.73-17.87-2.48-1.4-5.64-.49-7.03,2.01-1.38,2.5-.49,5.64,2.02,7.03,7.48,4.15,14.25,9.49,20.15,15.86,23.31,25.19,28.08,62.56,11.59,90.89-1.44,2.48-.6,5.64,1.87,7.07.6.36,1.25.57,1.9.66Z"/>
    </g>
  </g>
  <g>
    <path class="st26" d="M2706.62,3143.24c32.51,2.81,88.93,7.38,133.41,9.33,26.74,1.18,42.13-1.44,51-4.99-.01,1-.04,1.94-.08,2.82-.21,4.68-4.01,8.43-8.74,8.69-84.05,4.69-150.89,1.62-174.69.18-4.92-.3-7.85-5.65-5.34-9.84,1.26-2.1,2.78-4.15,4.44-6.19Z"/>
    <path class="st4" d="M2840.04,3152.57c-44.48-1.96-100.9-6.52-133.41-9.33,31.96-39.22,133.41-65.65,133.41-65.65h28.65c19.71,28.41,22.56,55.45,22.34,69.99-8.87,3.55-24.26,6.17-51,4.99Z"/>
    <path class="st12" d="M2873.51,3030.81l-2.68,53.06c-.29,5.75-4.59,10.57-10.35,11.4-5.73.82-13.39.92-21.52-1.78-5-1.67-8.72-5.88-9.64-11.02l-9.26-51.65h53.45Z"/>
    <g>
      <path class="st26" d="M3206.07,3204.45c14.1-2.54,20.48-12.01,23.15-22.13.02.09.03.18.05.27,2.07,10.67-2.73,21.74-12.35,27-11.62,6.36-24.32,7.44-34.19,6.92-10.58-.56-20.29-6.22-25.63-15.28l-.08-.14c10.62,6.79,25.53,7.59,49.04,3.35Z"/>
      <path class="st17" d="M3139.6,3047.16h23.63c35.99-.95,58.59,97.16,65.99,135.16-2.68,10.12-9.05,19.58-23.15,22.13-23.51,4.24-38.42,3.44-49.04-3.35-19.45-33.07-29.08-81.51-33.72-109.77-5.27-32.15,16.29-44.16,16.29-44.16Z"/>
    </g>
    <path class="st31" d="M3160.19,2997.91l13.12,52.19c1.61,6.4-1.45,13.02-7.37,16.05-7.34,3.77-17.68,7.73-27.17,6.58-4.47-.54-8.18-3.69-9.65-7.89l-19.26-54.91,50.34-12.02Z"/>
    <path class="st22" d="M2698.62,2310.58s117.26,732.96,115.32,736.98c0,0,32.39,14.72,67.69,1.88,0,0-10.6-391.82-35.45-542.05,0,0,200.12,350.21,263.67,524.71,0,0,33.15-3.95,60.58-22.01,0,0-215.47-630.36-272.96-714.32l-198.86,14.81Z"/>
    <path class="st27" d="M2841.5,2503.57c.63,0,1.26-.17,1.83-.53,1.62-1.02,2.11-3.15,1.1-4.77l-43.82-69.99c-.5-.81-1.32-1.37-2.25-1.56l-32.25-6.49c-1.87-.38-3.7.84-4.08,2.71-.38,1.87.84,3.7,2.71,4.08l30.79,6.2,43.03,68.73c.66,1.05,1.79,1.63,2.94,1.63Z"/>
    <path class="st13" d="M2160.53,1592.86s79.12,17.45,127.25,39.67c9.56,4.41,17.18,12.13,21.52,21.64,14.39,31.53,57.46,110.59,140.97,148.32-12.03,15.96-31.39,49.17-39.83,104.97-50.16-37.33-93.46-99.68-114.25-201.93,0,0-15.83,8.61-35.58-.98-10.43-5.07-22.48-12.26-31.52-17.91-9.01-5.63-15.72-14.39-18.33-24.61-3.44-13.5-1.42-25.38-1.42-38.11l-40.67-12.6s-12.23-4.62-8.15-18.46Z"/>
    <path class="st29" d="M2410.44,1907.46c8.44-55.81,27.8-89.01,39.83-104.97,51.88,23.44,119.36,30.93,205.3,1.15,7.92-2.74,16.18-4.35,24.56-4.84,45.75-2.68,196.5-7.58,321.24,33.64,26.25,8.67,47.52,28.08,58.48,53.23,33.75,77.44,88.38,253.8-63.29,342.83-11.65-28.93-25.1-52.18-36.6-69.27,24.42-41.2,31.66-97.47-11.68-170.74-31.6,85.34-46.43,209.85-49.53,264.96-1.02,18.14,2.16,36.25,9.28,53l.78,1.83c1.52,3.58-.57,7.7-4.41,8.56-85.38,19.18-174.18,13.97-200.72,11.78-4.74-.39-8.67-3.78-9.76-8.36-41.52-174.94-41.61-294.28-31.45-369.71-38.84,8.68-157.6,27.2-252.04-43.08Z"/>
    <path class="st9" d="M2662.31,1955.25c1.71,0,3.2-1.27,3.43-3.01,9.75-73.66,29.61-105.8,29.8-106.12,1.02-1.62.54-3.76-1.08-4.78-1.62-1.02-3.75-.54-4.77,1.07-.85,1.33-20.84,33.52-30.82,108.92-.25,1.9,1.08,3.64,2.98,3.89.15.02.31.03.46.03Z"/>
    <path class="st16" d="M2873.02,1696.89s8.64,91.33,16.24,118.34c1.15,4.1-.63,8.42-4.35,10.55-12.91,7.38-43.86,19.41-86.21-1.35-6.86-3.36-10.98-10.51-10.66-18.08l3.73-88.25,81.25-21.21Z"/>
    <g>
      <path class="st19" d="M2789.9,1580.05s-27.63,63.46-29.48,96.77-9.03,54.92,29.48,61.63,70.96-12.48,88.54-45.66c0,0,27.54-51.13,21.36-72.06-6.18-20.94-109.9-40.68-109.9-40.68Z"/>
      <path class="st5" d="M2865.28,1668.94l-2.19-.97c-2.79-1.23-3.99-4.55-2.58-7.26,5.43-10.49,16.02-34.54,2.34-40.15-17.63-7.23-87.45-21.47-102.52-46.24-14.48-23.81-1.65-54.55,17.63-63.29,1.29-.58,2.81-.12,3.47,1.13l1.61,3.04c1.1,2.08,4.17,1.77,4.83-.49h0c.63-2.17,3.51-2.59,4.71-.68,4.63,7.41,17.13,19.43,50.56,25.6,47.51,8.77,78.93,28,79.71,60.83.05,2.09,2.27,3.25,4.05,2.16,3.51-2.14,9.12-3.14,16.63,3.17,13.05,10.97,7.71,39.44-20.9,62.85-1.36,1.11-1.35,3.23.12,4.19,5.19,3.38,12.92,11.41-7.11,22.12-20.72,11.08-36.19,10.17-42.15,9.18-1.48-.24-2.44-1.68-2.11-3.15l6.36-28.86c.36-1.63-.88-3.18-2.56-3.18h-9.9Z"/>
      <path class="st15" d="M2864.08,1675.03s10.54-40.54,28.72-29.17c18.18,11.37-9.43,45.42-24.04,46.94l-4.67-17.77Z"/>
    </g>
    <path class="st6" d="M2275.09,1696.1c.77,0,1.54-.25,2.18-.78,1.48-1.21,1.71-3.39.5-4.87-2.99-3.68-29.54-36.15-39.77-41.93-3.72-2.1-5.94-4.27-6.42-6.28-.23-.96-.07-2.04.46-3.26l31.2,6.25,17.68,15.17c1.45,1.24,3.64,1.08,4.88-.37,1.25-1.45,1.08-3.64-.37-4.88l-18.36-15.76c-.45-.39-.99-.65-1.57-.77l-34.54-6.92c-1.37-.27-2.77.3-3.55,1.46-2.53,3.76-3.37,7.25-2.56,10.67.96,4.05,4.14,7.55,9.75,10.72,7.7,4.35,29.9,30.54,37.81,40.26.69.84,1.68,1.28,2.69,1.28Z"/>
    <path class="st10" d="M2865.43,2272.38l-122.11,1.51,42.74-40.23c10.62-10,26.84-11.62,39.1-3.67,7.18,4.66,14.97,10.98,21.71,19.35,0,0,76.18-27.84,113.1-90.12,11.5,17.08,24.95,40.34,36.6,69.27-33.1,19.43-76.01,34.72-131.14,43.89Z"/>
    <g>
      <path class="st14" d="M2852.27,2288.13c-.24.01-.47.02-.71.02l-309.97-.33c-7.66,0-13.87-6.16-13.86-13.74,0-7.58,6.25-13.85,13.89-13.71l309.97.33c7.66,0,13.87,6.16,13.86,13.74,0,7.35-5.85,13.34-13.18,13.7Z"/>
      <path class="st25" d="M2262.93,2009.67h258.15c19.04,0,36.38,10.87,44.5,27.92l119.34,250.39h-320.81c-12.27,0-23.3-7.42-27.81-18.71l-92.54-231.69c-5.35-13.39,4.62-27.9,19.17-27.9Z"/>
      <ellipse class="st26" cx="2425.26" cy="2144.21" rx="20.32" ry="32.74" transform="translate(-549.3 866.9) rotate(-18.24)"/>
    </g>
  </g>
</svg>