<?xml version="1.0" encoding="UTF-8"?>
<svg id="Layer_1" data-name="Layer 1" xmlns="http://www.w3.org/2000/svg" xmlns:xlink="http://www.w3.org/1999/xlink" viewBox="0 0 437.22 389.61">
  <defs>
    <style>
      .cls-1 {
        fill: #110909;
      }

      .cls-2, .cls-3, .cls-4, .cls-5, .cls-6, .cls-7, .cls-8, .cls-9, .cls-10, .cls-11, .cls-12, .cls-13, .cls-14, .cls-15, .cls-16 {
        stroke-miterlimit: 10;
      }

      .cls-2, .cls-3, .cls-5, .cls-7, .cls-8, .cls-10, .cls-12, .cls-13, .cls-14, .cls-15, .cls-16 {
        stroke-width: .5px;
      }

      .cls-2, .cls-3, .cls-6, .cls-7, .cls-8, .cls-9, .cls-11, .cls-13, .cls-14, .cls-15 {
        stroke: #000;
      }

      .cls-2, .cls-4, .cls-5, .cls-6, .cls-17, .cls-9, .cls-11, .cls-16 {
        fill: none;
      }

      .cls-3, .cls-18 {
        fill: #d47172;
      }

      .cls-4 {
        stroke: #1b2258;
        stroke-width: .75px;
      }

      .cls-5, .cls-10 {
        stroke: #222221;
      }

      .cls-19, .cls-13 {
        fill: #d1d8ff;
      }

      .cls-6 {
        stroke-linecap: round;
      }

      .cls-6, .cls-9 {
        stroke-width: 2px;
      }

      .cls-7 {
        fill: #5f76e8;
      }

      .cls-8 {
        fill: #95cfb6;
      }

      .cls-20 {
        clip-path: url(#clippath-1);
      }

      .cls-21 {
        isolation: isolate;
        opacity: .41;
      }

      .cls-21, .cls-22, .cls-14 {
        fill: #9cabfc;
      }

      .cls-23 {
        fill: #79483a;
      }

      .cls-10 {
        fill: #fff;
      }

      .cls-24 {
        fill: #edf0ff;
      }

      .cls-11 {
        stroke-width: 3px;
      }

      .cls-12 {
        fill: #222221;
        stroke: #fff;
      }

      .cls-15 {
        fill: #d89cc7;
      }

      .cls-25 {
        clip-path: url(#clippath);
      }

      .cls-16 {
        stroke: #110909;
      }

      .cls-26 {
        fill: #e4aa8c;
      }
    </style>
    <clipPath id="clippath">
      <path class="cls-17" d="M251.36,165.89c-.03-.14-.04-.27-.06-.41.9-3.24,5.55-3.19,8.15-4.55.53-.28.98-.62,1.37-1.01.05-.05.1-.1.15-.16.82-.89,1.32-2.02,1.51-3.29.79-5.22-1.9-9.93-4.22-14.52.07-.13.16-.24.27-.35.59-.56,1.5-.55,2.31-.56,3.04-.03,5.88-.99,8.35-2.76,1.17-.84,2.23-1.83,3.24-2.85.58-.59,1.64-2.64,2.52-2.71.08,0,.15.04.22.07,1.04,4.16,1.12,8.04,3.63,11.77.95,1.41,2.07,2.66,3.4,3.58.7.67,1.55,1.16,2.71,1.35.3.05.6.07.9.08.12.02.24.05.37.06.15.01.27-.02.37-.08,1.88-.08,3.83-.53,5.27.58.68.52,1.11,1.31,1.44,2.1,2.45,5.84.73,13.44-2.37,18.69-2.36,4-6.51,7.7-11.02,8.96-4.3,1.2-8.78.19-12.87-1.3-1.79-.65-3.5-1.3-5.13-2.05-4.92-2.26-9.17-4.78-10.46-10.36-.02-.09-.04-.19-.06-.28Z"/>
    </clipPath>
    <clipPath id="clippath-1">
      <path class="cls-17" d="M362.08,171.35h0c5.77-1.04,9.5-6.69,8.19-12.41l-5.07-23.69-18.68,3.37,3.54,23.97c.77,5.81,6.24,9.8,12.01,8.76Z"/>
    </clipPath>
  </defs>
  <g id="OBJECTS">
    <g>
      <path class="cls-24" d="M93.27,354.85c-7.08-2.75-13.8-6.73-18.42-12.72-4.68-6.06-6.82-13.66-8.66-21.09-7.04-28.51-11.09-58.27-6.38-87.25s19-57.26,42.92-74.3c13.96-9.94,29.93-13.3,41.79-26.37,10.68-11.77,17.68-26.62,23.3-41.34,11.42-29.88,22.23-61.2,52.18-77.27,52.23-28.03,152.4-18.13,162.41,53.22,1.77,12.62.8,25.45-.18,38.16-1.15,14.99.8,30.74-1.14,45.26-2.29,17.17-9.37,33.85-13.92,50.49-3.82,13.97-8.28,28.55-10.68,42.66-2.94,17.27-4.77,34.19-12.23,50.31-7.09,15.31-18.76,37.15-32.54,47.23-12.71,9.3-29.75,9.11-45.5,9.1-28.08-.02-56.16,1.74-84.02,5.27-28.85,3.65-58.92,9.08-86.4-.43-.85-.29-1.7-.6-2.54-.93Z"/>
      <g>
        <g>
          <rect class="cls-13" x="39.94" y="28.73" width="233.89" height="152.14"/>
          <g>
            <path class="cls-21" d="M226.88,147.1c.32-5.49.16-13.47.15-18.56-.01-4.16.15-8.6-2.14-11.75-1.52-2.08-3.66-3.43-5.87-3.38-3.14.07-6.01,2.55-9.14,2.79-2.2.16-4.43-.83-6.16-2.64-4.56-4.76-2.63-10.39-3.7-16.52-1.62-9.33-11.16-17.99-20.93-13.37-4.4,2.08-7.12,6.64-8.68,11.26-2.22,6.56-2.21,17.75-10.37,20.05-3.66,1.03-7.6.29-11.19-.98-7.79-2.74-14.85-6.2-23.39-5.13-18.28,2.29-22.22,22.83-26.22,37.47l127.63.75Z"/>
            <g>
              <polygon class="cls-22" points="115.82 90.13 115.41 146.22 130.94 146.33 131.36 90.13 115.82 90.13"/>
              <rect class="cls-22" x="115.12" y="95.73" width="86.05" height="15.54" transform="translate(53.48 260.88) rotate(-89.58)"/>
              <rect class="cls-22" x="154.53" y="100.77" width="76.49" height="15.54" transform="translate(82.81 300.5) rotate(-89.58)"/>
              <rect class="cls-22" x="205.1" y="119.53" width="39.44" height="15.54" transform="translate(95.86 351.17) rotate(-89.58)"/>
            </g>
            <line class="cls-4" x1="82.45" y1="146.25" x2="239.07" y2="147.43"/>
          </g>
          <g>
            <path class="cls-22" d="M95.17,54.57c-3.99,1.62-7.93,3.36-11.7,5.4.3.87.48,1.81.48,2.78,0,4.26-3.14,7.77-7.23,8.37-.02,4.3-.05,8.6-.04,12.9,11.22-.63,20.13-9.9,20.13-21.27,0-2.9-.58-5.66-1.63-8.18Z"/>
            <path class="cls-18" d="M68.88,73.42c-1.61,2.44-3.24,4.87-4.86,7.31,3.29,2.1,7.19,3.34,11.38,3.36,0-4.28.02-8.57.04-12.85-1.59,0-3.07-.46-4.35-1.22-.73,1.14-1.47,2.28-2.22,3.41Z"/>
            <path class="cls-22" d="M67,62.75c0-.67.09-1.32.24-1.95-4.04-1.52-8-3.23-11.84-5.18-.79,2.23-1.25,4.63-1.25,7.13,0,7.1,3.49,13.38,8.82,17.25,2.39-3.56,4.75-7.14,7.08-10.75-1.86-1.55-3.05-3.89-3.05-6.5Z"/>
            <path class="cls-18" d="M75.47,41.42c-8.82,0-16.39,5.36-19.64,13,3.82,1.95,7.76,3.65,11.78,5.17,1.25-3.11,4.3-5.31,7.86-5.31,3.25,0,6.07,1.83,7.49,4.52.38-.21.77-.41,1.15-.61,3.43-1.77,6.96-3.29,10.52-4.75-3.46-7.1-10.73-12.01-19.17-12.01Z"/>
            <path class="cls-2" d="M89.62,49.87c.56-.85,15.49-11.26,15.49-11.26h47.58"/>
            <polyline class="cls-2" points="87.65 69.02 98.91 76.06 136.5 76.06"/>
            <polyline class="cls-2" points="71.79 77.84 68.03 90.79 47.2 90.79"/>
          </g>
          <rect class="cls-22" x="79.92" y="160.24" width="34.54" height="11.64"/>
          <rect class="cls-22" x="121.59" y="160.24" width="22.18" height="11.64"/>
          <rect class="cls-22" x="154.05" y="160.24" width="22.18" height="11.64"/>
          <g>
            <circle class="cls-22" cx="256.6" cy="109.11" r="3.24"/>
            <circle class="cls-22" cx="256.6" cy="93.39" r="5.12"/>
            <circle class="cls-22" cx="256.6" cy="73.35" r="7.3"/>
            <circle class="cls-22" cx="256.6" cy="49.18" r="9.64"/>
          </g>
          <g>
            <circle class="cls-22" cx="235.86" cy="46.23" r="3.24"/>
            <circle class="cls-22" cx="220.14" cy="46.23" r="5.12" transform="translate(106.66 240.45) rotate(-71.56)"/>
            <circle class="cls-22" cx="200.1" cy="46.23" r="7.3" transform="translate(-2.77 14.3) rotate(-4.07)"/>
            <circle class="cls-22" cx="175.9" cy="46.23" r="9.64"/>
            <path class="cls-22" d="M70.39,115.15c-3.58,0-6.49-2.91-6.49-6.49s2.91-6.49,6.49-6.49,6.49,2.91,6.49,6.49-2.91,6.49-6.49,6.49Z"/>
            <path class="cls-22" d="M70.39,132.08c-3.58,0-6.49-2.91-6.49-6.49s2.91-6.49,6.49-6.49,6.49,2.91,6.49,6.49c0,3.59-2.91,6.49-6.49,6.49Z"/>
            <path class="cls-22" d="M51.39,115.15c-3.58,0-6.49-2.91-6.49-6.49s2.91-6.49,6.49-6.49,6.49,2.91,6.49,6.49-2.91,6.49-6.49,6.49Z"/>
            <path class="cls-22" d="M51.39,132.08c-3.58,0-6.49-2.91-6.49-6.49s2.91-6.49,6.49-6.49,6.49,2.91,6.49,6.49c0,3.59-2.91,6.49-6.49,6.49Z"/>
          </g>
          <circle class="cls-18" cx="153.29" cy="38.62" r="2.82"/>
          <circle class="cls-1" cx="134.99" cy="76.07" r="2.82"/>
          <circle class="cls-1" cx="46.58" cy="90.71" r="2.82"/>
        </g>
        <g>
          <g>
            <rect class="cls-19" x="295.84" y="41.3" width="31.26" height="31.26"/>
            <rect class="cls-19" x="330.02" y="41.3" width="31.26" height="31.26"/>
            <rect class="cls-19" x="364.19" y="41.3" width="31.26" height="31.26"/>
            <rect class="cls-19" x="398.37" y="41.3" width="31.26" height="31.26"/>
          </g>
          <g>
            <rect class="cls-19" x="295.84" y="75.48" width="31.26" height="31.26"/>
            <rect class="cls-19" x="330.02" y="75.48" width="31.26" height="31.26"/>
            <rect class="cls-19" x="364.19" y="75.48" width="31.26" height="31.26"/>
            <rect class="cls-19" x="398.37" y="75.48" width="31.26" height="31.26"/>
          </g>
          <g>
            <rect class="cls-19" x="295.84" y="109.65" width="31.26" height="31.26"/>
            <rect class="cls-19" x="330.02" y="109.65" width="31.26" height="31.26"/>
            <rect class="cls-19" x="364.19" y="109.65" width="31.26" height="31.26"/>
            <rect class="cls-19" x="398.37" y="109.65" width="31.26" height="31.26"/>
          </g>
        </g>
        <g>
          <path class="cls-10" d="M140.38,366.44c.27,1.09.97,7.9,1.48,8.9,1.38,2.73,3.36-.73,6.22.37.81.31,1.69.53,2.55.38.79-.14,1.5-.59,2.12-1.11,3.96-3.33,3.92-3.68,3.88-8.86-.05-6.68,1.02-22.97,0-29.52-.32-2.04-2.48.54-3.82-1.03-3.4-3.97-10.88-2.14-12.82,2.33-.88,2.03-1.05,4.28-1.14,6.49-.19,4.66-.33,9.63.38,14.26.39,2.54.53,5.26,1.15,7.8Z"/>
          <g>
            <polyline class="cls-6" points="32.64 383.15 40.7 297.12 87.54 293.46 109.5 383.15"/>
            <polyline class="cls-6" points="20.2 383.15 31.56 299.94 73.15 299.45 89 383.15"/>
            <path class="cls-14" d="M88.43,284.83c-3.22-.75-6.58-1.14-9.75-2.06-10.84-3.14-18.98-12.37-24.05-22.45-7.13-14.14-7.53-28.7-11.99-43.48-1.15-3.81-2.33-7.69-4.58-10.97s-5.8-5.93-9.78-6.09c-2.06-.09-4.1.49-6.05,1.18C1.8,208.12-.58,224.28.45,243.58c.78,14.51,3.13,29.21,6.83,43.27,4.59,17.51,22.67,20.12,39.01,20.06,15.1-.06,30.19-.91,45.2-2.56,9.96-1.1,11.74-12.47,2.93-17.35-1.88-1.04-3.9-1.68-5.98-2.17Z"/>
          </g>
          <path d="M187.33,379.83c-2.1-.66-4.18-1.38-6.25-2.14-7-2.6-13.79-5.79-20.25-9.53-1.32-.77-2.72-1.69-3.46-2.96-4.9,3.59-11,4.3-17.01,3.61-.14,3.68-.49,7.29-.59,10.96-.02.74-.04,1.48.08,2.21.07.42.2.86.5,1.17,1.82,1.83,7.3,1.08,9.53,1.05,4.07-.05,8.13.1,12.19.28,8.23.36,16.51.85,24.72-.04,1.44-.16,3.27-.77,3.27-2.22,0-1.3-1.49-1.99-2.73-2.38Z"/>
          <g>
            <path class="cls-26" d="M90.83,242.63h0c-.02-.09-.04-.18-.06-.26l.06.26Z"/>
            <polygon class="cls-26" points="76.3 173.58 76.59 174.93 76.59 174.93 76.3 173.58"/>
            <path class="cls-26" d="M90.6,241.61c.05.26.11.51.18.76l-.21-.98c.01.07.01.15.03.22Z"/>
          </g>
          <path class="cls-7" d="M135.11,271.87c-.14-.96-.7-1.85-.74-2.84-.35-7.01-2.41-10.93-13.01-13.52-2.18-.53-5.8-1.16-8.65-1.58-15.1-2.23-33.47-5.83-40.49-6.32-4.3-.3-8.73-.35-12.78,1.13-7.34,2.67-15.32,12.33-15.1,20.42.22,7.85,5.57,16,14.04,16.26.19,0,.37-.01.56,0,12.63.07,25.26.14,37.89.21,6,.03,11.98.64,17.98.69,4.72.04,10.62.9,14.8-1.79,4.29-2.76,6.2-7.85,5.5-12.65Z"/>
          <path class="cls-7" d="M86.26,266.53c-5.37-1.53-9.5-1.37-14.09-4.71-6.33-4.61-3.98-12.38-7.4-18-.79-1.3-2.55-1.54-4.07-1.62-10-.58-20.03-.74-30.05-.5-1.13.03-2.31.07-3.3.62-1.21.68-1.92,1.98-2.52,3.24-6.61,13.71-16.58,43.05,5.91,48.01.22.05.44.07.66.12l90.82,17.93c.2.05.4.12.6.16.49.11.97.19,1.46.24,7.13.81,12.87-3.34,14.45-10.5"/>
          <path class="cls-3" d="M123.14,242.42c-.14-.96-.7-1.8-1.24-2.61-1.77-2.64-3.95-5.27-5.41-8.08-1.41-2.71-2.12-6.01-3.11-8.9-1.66-4.86-2.9-10.26-5.25-14.82-2.1-4.08-2.29-9.3-3.18-13.81-.71-3.57-2.17-6.65-2.91-10.18-.27-1.28-.59-2.73-1.7-3.42-1.46,1.43-2.81,2.94-4.1,4.51-.81-1.04-1.56-1.98-2.03-2.66-2.66-3.91-5.48-4.69-9.49-7.34-8.31-5.49-35.88-1.26-47.58,8.02-7.27,5.77-12.78,13.59-16.05,22.2-3.61,9.5-5.8,19.54-6.49,29.69-.19,2.82.03,5.66-.21,8.45-.25,2.94-.86,5.84-1.16,8.77-.34,3.31-.28,6.67.16,9.97.51,3.72,3.11,3.58,6.29,3.98,3.66.46,7.34.83,11.04.81,5.33-.03,10.65-.57,15.93-1.34,7.82-1.13,15.56-2.73,23.17-4.79,3.81-1.03,7.58-2.17,11.31-3.42,4.51-1.51,3.87-2.89,4.39-7.32.55-6.39,1.17-13.18.79-19.58-.19-3.21.05-6.48.42-9.74,2.61,6.81,6.12,13.27,9.73,19.62,2.22,3.9,3.68,6.63,7.85,8.17.13.05.26.09.4.14,4.43,1.49,9.34.86,13.63-.79,1.24-.48,2.47-1.05,3.42-1.98.95-.92,1.59-2.26,1.4-3.57Z"/>
          <path class="cls-7" d="M109.65,305.35c9.28,21.01,13.97,32.29,24.6,52.65.24.45.48.91.74,1.36,3.42-.33,6.85-.64,10.25-1.13,6.36-.93,12.44-2.95,18.23-5.68,2.95-1.84,5.84-3.81,8.78-5.77-1.26-2.12-2.27-4.38-3.29-6.62-5.6-12.36-11.53-24.58-17.78-36.63-5.4-10.41-10.35-23.38-19.4-31.21"/>
          <g>
            <path class="cls-10" d="M102.22,148.78c-2.76-6.03-11.2-4.9-16.77-5.42-6.56-.6-12.37,4.22-12.98,10.78l-.95,10.31c-.21,2.3,1.29,2.51,1.98,4.66-1.45,2.18-4.46,6.63-6.84,7.21-1.18.29-2.48.13-3.58.66-2.01.96-2.38,3.68-2.09,5.88.67,5.06,3.52,9.9,7.91,12.51.57.34,1.17.64,1.79.9,4.11,1.7,9.03,1.48,12.74-.96.72-.48,1.42-1.06,1.79-1.85.62-1.33.49-2.89,1.1-4.26.42-.94.93-1.85,1.39-2.76.81-1.6,1.62-3.21,2.43-4.82,3.65-.82,6.98-2.94,9.21-6.04,3.56-4.94,4.06-13.72,4.07-19.63,0-2.45-.18-4.96-1.2-7.18Z"/>
            <path class="cls-1" d="M109.17,148.72c-.1-1.19-.62-2.34-1.41-3.23.06-.11.13-.22.18-.33.47-1,.8-2.06.69-3.18-.1-1.02-.3-2.03-.9-2.89-.53-.77-1.17-1.44-1.98-1.92-1.41-.83-3.15-1.01-4.73-.64-.58.14-1.17.37-1.7.66.19-2.2-1.09-4.49-3.12-5.38-1.64-.72-3.62-.44-5.1.55-.92-1.3-2.26-2.24-3.76-2.79-1.59-.58-3.49-.5-5.11-.08-1.87.48-3.58,1.61-4.48,3.36-.45.88-.66,1.88-.68,2.87-1.39-.74-2.98-1.11-4.54-.92-3.36.41-6.2,3.89-5.79,7.28.22,1.78,1.24,3.35,2.34,4.77-1.93.24-3.69,1.49-4.56,3.23-.86,1.74-.8,3.9.17,5.58.69,1.2,1.76,2.09,2.93,2.85-1.17,1.07-2.08,2.4-2.38,4.01-.38,2.03.1,4.2,1.29,5.9,1.24,1.78,3.17,3.25,5.46,3.1,2.59-.17,4.88-1.85,5.58-4.4,0-.03,0-.07.02-.1.78-1,1.42-2.03,1.84-2.87.71-1.43.79-3.05,1.28-4.55.14-.42.32-1.13.77-1.33.63-.29,1.22.43,1.9.25.69-.19,1.31-.62,1.68-1.24.36-.61.45-1.4.17-2.05.38.9,2.13-.08,2.49-.44.83-.85,1.17-2.14.98-3.3,1.19,1.27,2.47,2.58,4.13,3.09,1.66.51,3.81-.09,4.41-1.73,1.48,2.07,4.22,3.14,6.71,2.63,2.93-.6,5.52-3.71,5.26-6.75Z"/>
            <path class="cls-10" d="M79.69,165.92c-.88.52-1.87,1.01-2.89.87-1.08-.15-1.95-1.02-2.44-1.99-.8-1.61-.73-3.63.2-5.17,1.26-2.09,4.83-3.74,7.02-2.1.31.23.55.52.74.82"/>
          </g>
          <path class="cls-10" d="M139.44,341.66c.42,1.4.88,2.79,1.39,4.17,1.01,2.76,1.93,6.67,4.81,8.1,1.57.78,3.46.58,5.14.06,2.26-.7,6.2-2.78,6.84-5.25.32-1.25.15-2.57-.02-3.85-.31-2.31-.63-4.63-.94-6.94-.48-3.54-1-7.19-1.66-10.72-.49-2.61-1.57-5.26-3.72-6.81-1.7-1.22-3.9-1.6-5.98-1.35-2.21.27-4.37,1.26-5.85,2.93-2.88,3.26-2.61,8.18-1.78,12.45.47,2.43,1.06,4.84,1.77,7.22Z"/>
          <path d="M180.11,355.2c-.18-.03-.37-.06-.55-.09-3.12-.51-6.2-1.27-9.2-2.25-2.37-.78-4.11-2.18-6.21-3.49-1.72-1.07-3.36-2.76-5.16-3.64-1.72-.85-3.26.46-5.07,1.06-1.04.34-12.48,2.85-12.59,1.96,0,0,1.35,11.09,1.35,11.09.21,1.72,1.73,2.94,3.38,2.72,7.18-.96,14.07-1.01,21.3-.59,2.54.15,22.21,1.76,21.35-3.1-.08-.43-.41-.77-.75-1.05-2.16-1.76-5.06-2.17-7.84-2.61Z"/>
          <path class="cls-7" d="M114.51,279.67c2.51,9.55,2.91,23.83,5.76,33.28,1.71,5.67,2.85,23.14,4.19,28.9.12.5.31,1.13.56,1.82,2.05-.19,4.11-.35,6.17-.54,7.93-.71,14.25-2.71,21.62-5.84.84-.36,7.25-.18,8.07-.56-.13-2.39-5.76-25.48-6.19-27.78-2.35-12.49-4.01-15.12-6.93-27.49-1.18-5.01-1.68-12.04-4.36-16.49-2.13-3.52-7.04-5.84-10.85-6.82-3.65-.94-7.51-2.04-10.97-2.67"/>
          <path class="cls-10" d="M98.59,199.64c.94,6.71,1.48,13.22,1.63,19.99.14,5.75.27,11.53,1.32,17.18.79,4.26,2.44,7.51,5.54,10.51,2.66,2.57,8.22,3.71,11.64,2.07,2.14-1.02,4.24-2.29,5.63-4.21,3.91-5.44-2.26-16.05-4.11-21.66-2.24-6.82-4.56-13.61-6.95-20.37-1.18-3.34-2.16-6.9-3.64-10.12-1.13-2.47-1.79-5.14-3.02-7.59-3.06-6.12-8.63-7.47-14.99-7.01-2.03.15-4.14.32-5.88,1.38-1.19.73-2.11,1.83-2.96,2.94-.96,1.26-2.84,3.73-2.28,5.46.35,1.08,1.69,1.54,2.81,1.34,1.11-.2,2.07-.88,3.04-1.46.69-.41,1.6-1.04,2.4-1.2.75-.15,1.45.16,2.22.28.58.09,5.74.39,5.82.83.63,3.88,1.21,7.76,1.76,11.65Z"/>
          <path class="cls-10" d="M93.15,238.82c-2.57-1.48-5.6-2.24-8.39-1.35-4.24,1.36-7.46,1.48-11.81.51-1.71-.38-3.42-.76-5.14-1.14-8.1-1.8-16.19-3.61-24.34-5.16-6.32-1.21-12.9-2.58-18.19,2.14-4.72,4.21-6.95,13.36-.94,17.5,1.82,1.26,4.21,1.2,6.42,1.1,16.91-.79,34.48-.1,51.15-3.04,3.04-.54,5.92,1.12,8.9,1.6,3.22.51,6.49,1.22,9.74,1.38,1.24.06,2.74-.1,3.31-1.2.7-1.35-.55-2.85-1.64-3.92-2.52-2.47-4.72-5.29-7.55-7.4-.48-.36-.99-.7-1.52-1Z"/>
          <path class="cls-16" d="M86.71,220.82c-.21-5.75.8-7.59.39-13.33"/>
          <path class="cls-16" d="M46.29,200.17c-2.5,8.75,1.04,16.05-3.54,30.63"/>
          <path class="cls-16" d="M96.33,243.5c2.57,2.22,5.02,4.58,7.32,7.08-1.86-1.9-5.15-5.54-7.32-7.08Z"/>
          <path class="cls-16" d="M100.69,252.09c-1.38-.81-2.76-1.63-4.15-2.44"/>
          <path class="cls-16" d="M97.25,247.49c1.99,1.39,3.9,2.89,5.72,4.49"/>
          <path class="cls-2" d="M90.92,267.34c6.85,1.67,13.93,3.81,19.69,7.42,1.18.74,2.3,1.64,3.08,2.8"/>
          <path class="cls-16" d="M91.34,170.51c1.44,1.23,3.47,1.73,5.31,1.31.98-.23,1.96-.76,2.36-1.68"/>
          <path class="cls-1" d="M84.79,180.89c.27-.34.57-.66.96-.88.06-.04.13-.05.2-.07.32-.32.66-.6,1.13-.77-1.31.47-2.77-1.38-3.49-2.11-1.12-1.15-2.32-.02-1.42,1.37.35.54.85.99,1.37,1.37.3.22,1.02.7,1.24,1.09Z"/>
          <path class="cls-16" d="M15.7,225.67c-.81,4.73-1.62,9.58-.79,14.3.83,4.73,4.53,11.91,10.91,12.19"/>
          <path class="cls-2" d="M46.54,198.02c.07-.88.14-1.75.2-2.63"/>
          <path class="cls-2" d="M23.89,244.77c-.36,1.45.24,3.08,1.45,3.95"/>
          <path class="cls-2" d="M67.02,179.81c1.24-.86,2.38-1.87,3.38-3"/>
          <path class="cls-2" d="M76.58,161.78c.48-.84,1.39-1.41,2.36-1.49s1.96.34,2.57,1.09"/>
          <path class="cls-2" d="M20.47,275.35c-.23,3.82.97,7.72,3.32,10.74"/>
          <path class="cls-2" d="M24.9,287.25c1.92,1.07,3.97,1.89,6.09,2.45"/>
          <path class="cls-2" d="M139.06,264.49c1.51,1.7,2.72,3.66,3.56,5.77"/>
          <path class="cls-2" d="M143.13,273.39c.66.89,1.07,1.98,1.15,3.09"/>
          <path class="cls-2" d="M80.67,187.62c-.08.18-.16.37-.24.55,1.15-2.31,2.92-4.31,5.08-5.74"/>
          <path class="cls-2" d="M81.43,189.25c1.95-2.35,4.26-4.38,6.83-6.02"/>
          <path class="cls-16" d="M102.71,229.6c.03,3.76.97,7.51,2.7,10.84"/>
          <path class="cls-16" d="M107.02,243.27c.32,1.29,1.35,2.38,2.62,2.77"/>
          <path class="cls-16" d="M96.96,187.79c.79.08,1.6-.12,2.25-.57"/>
          <path class="cls-2" d="M24.31,202.3c-1.85,5.36-3.37,10.83-4.56,16.37"/>
          <path class="cls-2" d="M18.78,222.79c-.25,1.19-.5,2.38-.75,3.57"/>
          <path class="cls-2" d="M15.75,261.44c-.08.4.28.74.62.96,1.69,1.11,3.76,1.65,5.78,1.51"/>
          <path class="cls-2" d="M25.54,263.9h1.69"/>
          <path class="cls-2" d="M122.33,303.21c1.52,8.1,2.68,16.27,3.48,24.48"/>
          <path class="cls-2" d="M126.08,332.19c-.08,1.36.21,2.74.85,3.94"/>
        </g>
        <g>
          <polyline class="cls-9" points="313.2 382.99 298.21 279.32 247.57 284.51 228.02 382.99"/>
          <polyline class="cls-9" points="325.87 382.99 305.45 279.32 254.81 284.51 238.88 382.99"/>
          <path class="cls-10" d="M209.04,335.55c.32,1.46.7,2.9,1.14,4.33.68,2.21,1.49,4.37,2.3,6.53.76,2.02,1.52,4.03,2.27,6.05,1.71,4.54,3.12,10.15,4.83,14.69.41,1.09,1.14,1.16,2.02,1.92.57.49,1.28.79,2,1.01,1.44.45,2.96.64,4.46.56,1.76-.09,4.69-.95,5.73-2.46.95-1.37.64-3.21.3-4.85-.74-3.51-3.09-19.2-3.12-22.37-.06-6.46-3.6-11.22-5.46-17.39-.83-2.74-2.07-7-4.91-8.32-2.72-1.27-6.51-1.16-8.93.66-1.81,1.36-2.95,3.49-3.46,5.7s-.46,4.51-.27,6.77c.21,2.41.57,4.81,1.09,7.17Z"/>
          <path class="cls-14" d="M306.86,193.3c-4.42-1.63-9.21-2.68-13.98-2.35-14.73,1.01-24.36,14.23-29.35,26.66-4.99,12.43-8.33,26.38-19.51,35-5.31,4.09-14.19,10.4-16.29,17.17-.55,1.77-.52,3.65-.5,5.5.05,3.4.1,6.8.14,10.2.15,10.85,61.39,7.92,73.81,5.09.58-.13,1.06-.52,1.58-.79,19.05-10.14,23.87-34.18,26-52.3,2.01-17.14-1.79-36.76-21.91-44.16Z"/>
          <path class="cls-10" d="M196.26,263.85c1.03-.5,2.06-.99,3.08-1.51.76-.39,1.52-.78,2.27-1.18,5.24-2.78,4.47,5.98,5.84,1.1,1.72-6.14.77-23.5-.38-29.91-.51-2.82-1.49-5.83-3.9-7.38-1.91-1.23-4.38-1.27-6.59-.74-4.61,1.12-7.13-2.6-8.61,1.92-1.23,3.76,7.3,35.52,8.3,37.7Z"/>
          <path class="cls-7" d="M265.7,245.72s.03,0,.05,0c-.02,0-.04,0-.05,0-.3-.83-.64-1.62-1.03-2.34-2.12-3.9-5.7-6.96-9.85-8.52-1.51-1.94-2.72-3.6-3.21-4.38-11.23-17.62-24.48-43.36-48.22-44.89-3.6-.23-7.27-.32-10.76.59-.39.1-.81.24-1.05.57-.2.28-.23.65-.25,1-.24,6.7,4.24,14.84,6.62,21.07,2.84,7.46,6.5,14.58,9.91,21.8,4.35,9.2,9.38,18.07,15.07,26.05.58,1.09,1.16,2.17,1.77,3.25,2.4,3.56,4.79,7.13,7.23,10.67,2.91.96,6.05,1.32,9.14,1.41,6.84.19,15.32-1.23,20.85-5.54,5.58-4.35,6.21-14.04,3.8-20.71Z"/>
          <path d="M214.12,268.5c-.22-3.1-1.13-6.99-3.4-9.26-.49-.53-1-.96-1.53-1.3-1.65,2.04-4.18,3.36-6.64,4.14-2.18.69-4.85,1.11-7.03.16-4.2,3.63-7.98,8.15-10.15,10.21-2.94,2.8-5.92,5.65-8.05,9.11-.83,1.35-1.53,3.05-.81,4.47.35.69.99,1.19,1.7,1.5,2.47,1.08,5.3-.09,7.74-1.24,7.31-3.45,14.85-6.64,22.07-10.31.76-.39,1.52-.78,2.27-1.18,3.34-1.77,4.12-2.4,3.84-6.3Z"/>
          <path d="M233.41,364.76c-1.18.21-2.66.74-3.33.83-1.81.24-3.64.36-5.47.3-1.99-.07-5.46-1.63-6.99-.42-2.79,2.2-5.44,4.7-8.6,6.32-4.15,2.13-8.53,3.92-12.52,6.34-2.18,1.33-3.84,4.11-1.22,6.03,2.1,1.54,5.13,1.17,7.79.72,3.12-.53,5.86.36,9.07-.17,6.3-1.04,12.73-1.26,19.08-.64.77.08,1.57.16,2.31-.08.57-.19,1.07-.57,1.48-1,1.93-2.05,2.06-5.18,1.86-7.99-.14-1.93-.21-9.31-2.08-10.22-.3-.14-.8-.12-1.37-.02Z"/>
          <path class="cls-7" d="M303.18,235.16c13.16,11.36.56,30.94-10.73,37.91-8.62,5.33-18.77,7.55-28.76,9.22-13.39,2.24-26.91,3.66-40.46,4.25,0,0,.04.87.04.92.38,8.14,3.04,15.93,4.28,23.94,1.2,7.75,4.22,10.58,5.41,18.39.81,5.31,2.94,14.96,3.75,20.27-11.3,1.95-25.15,3.66-36.6,4.17-1.8-5.48-3.62-11.02-3.99-16.78-.19-2.92,0-5.86-.25-8.78-.43-5-2.11-9.74-3.16-14.62-1.06-4.9-1.23-9.89-2.04-14.84-.84-5.17-1.79-10.36-1.79-15.6,0-14.14,8.54-20.89,20.43-26.39,6.45-2.98,13.12-5.6,19.93-7.62,8.51-2.52,14.62-4.02,23.24-6.13"/>
          <path class="cls-15" d="M318.93,193.08c-4-19.04-10.39-37.25-30.59-43.18-1.9-.56-3.98-.86-5.78-1.17-2.27-.39-4.59-.19-6.89.02-8.52.75-16.47,2.95-24.32,6.13-2.59,1.05-5.33,1.71-8.05,2.36-10.64,2.55-21.34,4.49-31.38,8.92-2.95,1.3-6.96,2.49-9.51,4.47-.81.63-1.47,1.46-2.02,2.4-.87,1.49-1.44,3.26-1.82,4.89-3.09,13.23,14.57,12.78,23.24,11.97,4.04-.38,8.07-.9,12.07-1.55,4.38-.72,8.9-1.7,12.89-3.56.36,1.13.71,2.21,1.02,3.25,4.23,14.09,2.61,27.95,1.76,42.26-.61,10.12,7.14,12.17,15.41,15.07,5.35,1.88,10.88,3.57,16.44,4.74,6.39,1.34,12.94,1.25,19.44,1.15,1.79-.03,5.28.64,6.89-.05,1.2-.51,1.92-1.92,3.16-2.78,3.21-2.21,6.43-4.56,7.98-8.29.48-1.16.78-2.39,1.07-3.62,1.51-6.37,2.59-12.01,2.31-18.6-.35-8.34-1.61-16.67-3.32-24.84Z"/>
          <path class="cls-7" d="M209.07,183.82c-2.89-4.64-6.8-6.84-12.2-6.75-7.03.13-12.95,4.43-15.99,10.62-.66,1.35-1.04,2.82-1.41,4.27-.77,3.03-1.55,6.12-1.43,9.25.06,1.66.38,3.3.55,4.96.6,5.75-.26,11.56.57,17.31.65,4.48.27,9.63-.04,14.13-.47,6.84-.94,13.67-1.42,20.51-.02.23-.03.48.09.68.17.3.55.39.89.44,3.26.45,7.43-.09,10.78-.14,3.92-.06,7.87-.53,11.52-2.05,3.62-1.51,6.89-3.99,10.75-4.64.39-.07.81-.12,1.11-.38.54-.47.43-1.32.27-2.02-1.09-4.8-1.7-9.39-2.47-14.19-.43-2.69-.21-5.43-.8-8.13-.31-1.4-.75-2.79-.78-4.22-.07-3.36,2.12-6.73,1.05-9.91"/>
          <path class="cls-10" d="M282.22,148.14c-1.33-.92-2.45-2.17-3.4-3.58-2.05-3.04-2.48-6.19-3.14-9.51-.04-.71-.09-1.41-.1-2.12-.26-1.67-.43-3.34-.91-4.99-.52-1.76-1.4-3.26-1.68-5.05-.31-2.01-.65-4-1.44-5.9-1.02-2.44-2.76-4.67-5.16-5.77-4.15-1.9-9.22.06-12.41,3.33-1.11,1.14-2.08,2.46-2.64,3.96-.68,1.84-.72,3.85-.66,5.81.17,6.01.27,13.08,4.65,17.68,1.23,1.3,2.61,2.11,4.08,2.56.59,1.07,1.22,2.13,1.35,2.44.78,1.79,1.45,3.65,1.73,5.59.36,2.55.1,4.27-.92,5.91-.7,1.14,0,2.64,1.34,2.69.01,0,.02,0,.03,0,4.98.17,10.5-.82,14.65-3.73,3-2.1,5.48-4.83,7.26-7.99-1.13-.21-1.96-.68-2.64-1.34Z"/>
          <path d="M249.6,120.76c-.8-.49-1.5-1.15-2.03-1.99-.99-1.57-.66-4.02.18-5.59.73-1.38,1.99-2.46,3.46-2.99,1.2-.43,2.55-.51,3.64-1.19.57-.35,1.03-.85,1.61-1.18,1.88-1.07,4.23-.07,6.38-.21,1.3-.08,2.46-.61,3.76-.69,1.32-.09,2.66-.13,3.91.39,2.8,1.17,3.91,4.47,5.79,6.86.59.75,1.29,1.44,1.68,2.31.66,1.45.73,3.42,1.1,4.95.47,1.93.39,4.17.15,6.14-.2,1.71-.54,3.48-1.27,5.05-.51,1.1-1.23,2.11-2.37,2.61-1.06.46-2.89.63-3.87-.02-.48-.32-.85-.8-1.35-1.09-1.2-.68-2.77-.31-3.17-1.91-.41-1.62-.95-2.86-1.83-4.31-.51-.84-.18-2.09-.93-2.72-.68-.58-1.74-.2-2.6-.45-1.42-.41-1.71-2.21-3.12-2.66-1.7-.54-3.61-.23-5.35-.25-1.35-.02-2.66-.35-3.78-1.03Z"/>
          <path class="cls-10" d="M262.08,125.63c.98-2.43,4.1-2.48,5.12-2.08,1.43.56,2.42,2.1,2.43,3.72.04,3.55-4.14,5.33-6.45,2.87"/>
          <g class="cls-25">
            <path d="M266.1,143.78c-.02.28-.12.57-.24.83-.62,1.28-1.96,1.67-2.86,2.72-.96,1.11-1.57,2.48-2.61,3.53.27-.28-1.02-3.46-1.17-3.91-.35-1.01-1.13-2.1.26-2.5,1.59-.46,3.18-.72,4.74-1.33.28-.11.57-.23.86-.25s.63.05.83.28c.16.18.21.4.19.63Z"/>
          </g>
          <path class="cls-10" d="M221.12,184.36c-2.25,6.32-12.37,7.8-17.92,4.23-3.19-2.05-3.8-4.9-4.35-8.45-1.6-10.29-3.2-20.58-4.8-30.88-.05-.36-.11-.72-.27-1.04-.26-.54-.77-.9-1.23-1.29-.96-.82-1.75-1.84-2.31-2.97-.46-.93-.43-2.27-1.31-2.91-.41-.3-.94-.38-1.36-.66-.89-.57-1.1-1.77-1.08-2.83.03-1.62.32-4.12,1.59-5.28,1.2-1.09,3.1-1.91,4.56-2.56.91-.4,1.82-.82,2.43-1.64.08-.1.15-.21.18-.34.03-.13.01-.26,0-.4-.22-1.62-.49-3.42-1.17-4.92-.6-1.32-1.33-2.74-.92-4.23.15-.55.67-1.04,1.24-.96.58.08.94.66,1.19,1.19,2.05,4.19,2.93,8.59,4.15,13.01,1.26,4.57,2.43,9.22,4.58,13.49,4.88,9.71,9.85,19.38,14.78,29.06,1.07,2.11,2.17,4.29,2.42,6.62.15,1.39,0,2.64-.39,3.73Z"/>
          <path class="cls-2" d="M292.29,192.55c.29,7.79,3.44,19.38,3.73,27.17.19,5.04-2.25,6.83,1.4,10.3"/>
          <path class="cls-2" d="M223.13,287.99c-.09-2.23-.83-5.15-.92-7.38"/>
          <path d="M255.99,134.83c-.14.04-.28.07-.42.11-.85.21-1.72.26-2.59.17-.38-.04-.82-.16-1.19-.02.11.46.19.93.27,1.39.06.37.11.74.16,1.11,1.09.64,2.61.68,3.81.36,1.02-.28,1.82-.97,1.8-2.04-.02-1.52-.76-1.36-1.84-1.08Z"/>
          <path class="cls-5" d="M267.28,125.76c-.86-.3-1.84-.2-2.63.25-.79.45-1.36,1.26-1.54,2.15"/>
          <path class="cls-8" d="M256.21,222.82l-41.77-1.05c-.84-.02-1.5-.72-1.48-1.55l.65-25.92c.02-.84.72-1.5,1.55-1.48l41.77,1.05c.84.02,1.5.72,1.48,1.55l-.65,25.92c-.02.84-.72,1.5-1.55,1.48Z"/>
          <g>
            <path class="cls-10" d="M299.3,223.54c-5.67-1.36-11.35-2.68-17.11-3.9-5.36-1.13-11.93-1.5-16.93-3.74-2.92-1.31-4.58-4.18-5.87-6.96-.57-1.3-.9-2.39-1.14-3.81-.45.54-.41,1.33-.57,2.01-.23.99-.92,1.87-1.84,2.31-1.22.59-2.97.24-4.24-.05-1.36-.32-2.7-.65-4.08-.96-1.55-.35-3.08-.66-4.67-.81-1.2-.11-2.45-.14-3.56.34-1.02.44-1.82,1.3-2.35,2.27-.7,1.3-.94,2.86-.58,4.29.42,1.7,1.46,2.48,2.78,3.43,1.55,1.12,13.99,5.9,17.05,6.99,2.75.98,5.66,1.92,8.2,3.37,4.4,2.5,8.74,5.14,13.03,7.82,7.57,4.73,15.3,9.48,23.99,11.81,2.3.62,4.69,1.08,7.06.87,5.28-.46,9-4.35,10.65-9.21.9-2.66.76-5.85-1.05-7.99-1.05-1.24-2.53-2.01-3.98-2.74-3.27-1.67-6.57-3.35-10.13-4.21-1.56-.37-3.11-.75-4.67-1.12Z"/>
            <path class="cls-5" d="M236.36,214.52c2.52.77,5.81,2.47,10.95,4.02"/>
            <path class="cls-5" d="M236.4,211.86c3.97,1.38,8.38,2.45,12.41,3.67"/>
            <path class="cls-5" d="M237.21,209.54c4.18.63,9.04,1.63,13.02,3.05"/>
          </g>
          <path class="cls-5" d="M319.5,218.29c.06,2.13.12,4.26.19,6.38"/>
          <path class="cls-5" d="M304.66,245.87c2.14.62,4.47.57,6.58-.15"/>
          <path class="cls-5" d="M313.87,244.2c.44-.5.88-1,1.32-1.5"/>
          <path class="cls-5" d="M201.05,179.43c-.15,2.91,1.43,5.84,3.93,7.32"/>
          <path class="cls-5" d="M285.58,152.41c-2.05,2.79-4.41,5.35-7.02,7.63"/>
          <path class="cls-5" d="M277.09,161.32c-.89.57-1.8,1.09-2.74,1.55"/>
          <path class="cls-5" d="M258.95,159.7c-.29.96.19,2.03.96,2.67s1.78.93,2.77,1.08"/>
          <path class="cls-5" d="M263.71,163.73c.67.15,1.36.19,2.04.12"/>
          <path class="cls-5" d="M273.79,276.35c5.34-.31,10.6-1.91,15.21-4.64"/>
          <path class="cls-5" d="M291.23,270.28c1.5-.94,2.88-2.08,4.09-3.36"/>
          <path class="cls-5" d="M223.88,310.43c1.57,5.02,2.82,10.14,3.74,15.32"/>
          <path class="cls-5" d="M228.16,329.69c.19,1.55.38,3.1.57,4.64"/>
          <path class="cls-5" d="M223.19,315.06c.48,2.25.96,4.5,1.45,6.75"/>
          <path class="cls-5" d="M192.48,275.19c-1.18,3.97-1.31,8.24-.39,12.27"/>
          <path class="cls-5" d="M191.99,290.13c.14,1.36.28,2.72.42,4.08"/>
          <path class="cls-5" d="M183.09,190.17c-1.3,3.43-2.1,7.05-2.35,10.71"/>
          <path class="cls-5" d="M182,249.03c-.2,2.24-.63,4.46-1.28,6.61"/>
          <path class="cls-5" d="M182.98,254.66c-.34,1.01-.58,2.04-.72,3.09"/>
          <path class="cls-5" d="M184.49,239.6c.29,3.09.45,6.19.47,9.29"/>
          <path class="cls-5" d="M189.56,142.19c-.06-.21-.1-.43-.15-.64-.21-1.04-.43-2.09-.64-3.13"/>
        </g>
        <g>
          <g>
            <polyline class="cls-6" points="409.66 382.96 406.3 296.29 360.53 294.05 343.87 382.96"/>
            <polyline class="cls-6" points="427.04 382.96 413.01 289.76 367.55 290.23 354.88 382.96"/>
            <path class="cls-14" d="M347.26,279.21c3.22-.82,6.59-1.23,9.78-2.23,15.59-4.87,20.15-18.77,20.33-33.69.18-15.57,2.14-34.24,13.9-45.8,8.98-8.83,23.57-2.25,30.33,6.91,14.78,20.02,12.33,55.14,7.02,77-4.61,18.95-22.73,21.78-39.11,21.71-15.14-.06-30.27-.99-45.31-2.77-9.98-1.18-11.77-13.49-2.93-18.78,1.88-1.12,3.9-1.82,5.99-2.34Z"/>
          </g>
          <path class="cls-1" d="M331.65,348.27c3.54,6.95.45,12.58-3.6,18.39-1.5,2.16-5.35,5.94-5.84,8.44-.9,4.61,5.64,4.53,8.31,3.55,4.95-1.82,8.93-5.51,12.77-9.12,2.69-2.52,5.38-5.05,8.06-7.57,2.15-2.02,4.46-4.37,4.54-7.32.08-2.84-1.93-5.25-3.83-7.37-2.69-3-5.52-5.91-7.95-9.12,0,0-1.84-2.46-1.84-2.46-3.06-4.08-8.25-5.11-11.51-2.29-2.82,2.44-3.18,7.14-1.1,11.12.69,1.31,1.37,2.55,1.98,3.75Z"/>
          <path class="cls-10" d="M336,379.53l1.9-15.4-.21-11.07c.03-5.1-1.75-5.07-6.05-4.79-3.72.24-8.12,1.5-8.87,5.92-.25,1.46-1.73,3.46-1.97,4.79-.38,2.12-1.3,15.61-2.25,17.46,5.96-.78,11.44,3,17.46,3.1Z"/>
          <path class="cls-1" d="M319.09,372.08c-1.39,2.12-3.32,3.82-5.95,4.74-5.54,1.95-11.08,3.91-16.62,5.86-1.29.45-3.63,1.62-3.95,3.16-.14.67.15,1.41.71,1.8.39.28.87.38,1.34.48,2.71.55,5.5.97,8.31,1.2,3.09.25,6.19.26,9.22-.08,1.67-.18,3.2-.37,4.41-.39,6.12-.12,12.25-.24,18.38-.36,1.63-.02,2.97-1.64,2.97-3.57v-13.54c-6.29-.11-12.61-.24-18.82.7Z"/>
          <path class="cls-23" d="M347.23,241.04h0c.02-.08.04-.17.06-.26l-.05.26Z"/>
          <path class="cls-7" d="M387.91,241.75c-7.27-2.2-15.1-.79-22.5.95-16.45,3.88-32.52,9.34-47.94,16.27-5.16,2.32-10.52,4.38-13.5,7.2-15.18,14.38-3.27,35.22,4.79,56.16,3.63,9.43,7.26,18.87,10.89,28.3,1.9-1.1,3.81-2.17,5.76-3.19,5.03-2.63,10.17-5.05,15.39-7.3-.88-6.01-2.36-13.58-2.56-14.9-1.23-7.82-2.66-15.6-4.3-23.35-.78-3.68-6.35-11.94-4.87-14.97,1.5-3.06,5.04-4.42,8.27-5.51,8.16-2.76,16.32-5.51,24.48-8.27,11.05-3.73,22.55-7.75,30.6-16.18,1.82-1.91,3.51-4.23,3.52-6.86.02-4.15-4.06-7.16-8.03-8.36Z"/>
          <path class="cls-7" d="M408.39,238.43c-4.4-2.97-10.36-2.81-15.27-.81-4.92,2-8.99,5.6-12.8,9.31-5.05,4.92-9.61,8.71-15.73,11.98-4.21,2.25-8.58,4.22-12.87,6.32-8.17,3.99-21.97,8.72-27,16.87-1.35,2.18-2.06,4.49-2.14,6.85-2.61,8.73-2.08,18.18-2.56,27.24-.18,3.4-.74,6.66-1.12,9.99-.43,3.69-.38,7.31-1.13,10.99-1.52,7.47-4.15,14.65-5.76,22.09-.21.97-.4,1.98-.16,2.94.12.49.42.93.81,1.33.77.35,1.56.66,2.37.91,5.38,1.69,11.08,1.61,16.64,1.92,4.24.24,8.48.57,12.72.92.36-.47.57-1.04.76-1.61,4.71-14.31,4.15-28.56,5.88-43.27.63-5.38,1.17-10.78,1.68-16.17,10.52-3.51,21.03-7.03,31.55-10.54,6.34-2.12,15.13-3.33,20.08-7.92,5.05-4.68,8.07-11.28,9.35-17.96,1.67-8.8,3.21-25.66-5.28-31.38Z"/>
          <path class="cls-16" d="M401.58,214.83c.8-6.58,1.36-13.2,1.69-19.82"/>
          <path class="cls-10" d="M356.21,184.42c-2.32-3.24-7.14-6.86-11.23-5.44-3.46,1.2-5.28,4.9-6.71,8.28-1.62,3.85-3.19,7.72-4.69,11.62-.77,1.99-1.32,4.06-1.94,6.1-.89-.82-1.76-1.68-2.52-2.64-3.17-3.95-7.2-7.34-11.14-10.48-2.79-2.22-5.72-4.28-8.32-6.71-1.05-.99-2.23-2.04-3.08-3.28-.99-1.44-1.12-2.83-1.37-4.5-.2-1.35-.71-2.65-1.1-3.93-.41-1.34-.36-2.67-.52-4.05-.04-.35-.11-.7-.32-.98-.21-.28-.6-.45-.92-.3-.23.11-.37.35-.47.59-.61,1.51-.23,3.2-.08,4.82.29,3.09-2.79-.67-3.42-1.54-1.53-2.13-2.22-4.49-3.25-6.86-.76-1.75-1.9-4.17-4.1-4.29-1-.06-1.97.41-2.73,1.07-1.52,1.3-2.33,3.28-2.55,5.27-.21,1.99.12,3.99.59,5.93,1.65,6.93,5.74,11.33,9.9,16.85,4.59,6.09,8.79,12.45,13.1,18.74,5.63,8.22,12.83,17.43,22.91,19.99.72.18,1.95.09,2.91-.03,1.75-.11,3.41-.61,4.56-1.47,5.28-3.94,8.95-9.72,11.72-15.61,1.74-3.71,3.51-9.19,5.19-12.94,1.93-4.32,2.49-10.14-.42-14.22Z"/>
          <polygon class="cls-23" points="361.5 173.21 361.22 174.53 361.22 174.53 361.5 173.21"/>
          <path class="cls-8" d="M340.54,172.88c1.13-2.89,2.61-5.59,4.66-7.97,3.03-3.5,6.99-6.52,11.38-8.55,5.5-2.54,11.62,1.94,10.82,7.95-.59,4.43-1.26,8.84-2.02,13.24-1.75,10.17-2.9,20.23-8.03,29.44-7.54-3.68-17.8-5.8-24.65-10.65,1.51-6.9,5.24-16.76,7.85-23.46Z"/>
          <path class="cls-8" d="M344.23,188.78c.3,2.57,2.93,17.46,4.57,28.78.59,4.09,1.31,8.11.93,12.25-.49,5.33-2.68,11.46-1.15,16.72,1.51,5.18,6.82,8.89,11.28,11.36,16.05,8.87,36.97,10.66,52.37.71,1.28-.83,2.56-1.77,3.28-3.12.86-1.61.8-3.54.71-5.36-1.06-22.21-2.83-45.33-11.46-66.28-3.83-9.29-8.23-17.76-17.08-23.06-7.14-4.28-16.05-6.49-24.32-4.82"/>
          <path class="cls-10" d="M370.25,158.8c-1.05-1.33-1.44-3.14-1.85-4.77-.43-1.74-.83-3.57-.98-5.36-.33-4,.71-7.88,1.93-11.69.07-.41.15-.82.22-1.24.56-3.54-.6-6.87-2.59-9.82-2.61-3.86-6.52-7.05-11.1-7.87-2.82-.51-5.86.03-8.32,1.51-3.3,2-3.66,4.47-4.05,8.07-.07.67-.15,1.34-.22,2-.65,5.88-2.57,12.7-.45,18.46,1.12,3.06,3.32,5.18,6.04,6.44l.67,4.52c.18,1.19.46,2.37.65,3.56.01.09.21,2.76-.3,2.33,3.19,2.7,7.91,3.45,11.79,1.87,1.29-.53,2.48-1.28,3.6-2.12,2.05-1.53,3.89-3.34,5.45-5.36-.17-.17-.33-.34-.48-.53Z"/>
          <path class="cls-1" d="M372.99,126.76c-.11-.2-.23-.39-.33-.59-.93-1.7-1.54-3.57-2.58-5.21-2.73-4.3-7.19-4.66-11.64-5.6-.76-.16-1.5-.4-2.27-.45-.83-.05-1.65.11-2.45.31-2.13.53-4.19,1.29-6.15,2.26-1.2.6-2.39,1.31-3.15,2.41-1.1,1.6-1.13,3.84-2.51,5.2-1.81,1.79-.62,3.53,1.55,4.45,1.23.52,2.54.87,3.86,1.03,1.4.17,2.92.17,4.08.99.37.26.68.6,1.06.86,2.07,1.4,4.19.1,5.12,3.07.28.91.46,1.89,1.07,2.61.17.2.42.4.68.34.14-.03.25-.13.36-.23,1.27-1.15,1.66-1.93,3.21-.98.9.55,1.52,1.75,1.76,2.73.48,1.94.19,5.95,2.33,7.05,2.65,1.36,3.1-3.61,4.2-5.14.41-.57.99-1.01,1.46-1.53,1.48-1.66,1.74-4.04,1.92-6.26.13-1.55.26-3.14-.21-4.62-.31-.96-.84-1.82-1.35-2.69Z"/>
          <path class="cls-10" d="M398.16,188.15c-1.38-3.51-4.12-6.7-7.78-7.64-3.98-1.02-8.29.87-11.09,3.89-5.65,6.09-5.92,16.3-6.73,24.19-1.02,9.89-.53,20.11-2.27,29.88-.23,1.3-11.7,2.97-13.23,3.33-5.01,1.17-10.02,2.34-15.02,3.51-2.94.69-5.87,1.37-8.76,2.24-7.51,2.26-14.7,5.25-21.97,8.02-3.71,1.41-7.04,3.67-9.86,6.43-3.48,3.4-4.66,6.48-5.95,11.1-.1.35-.19.7-.15,1.06.04.35.22.68.4.99.35.63.7,1.26,1.06,1.89.23.41.47.84.86,1.12.42.3.95.39,1.46.43,2.01.14,5.24-.37,6.8-1.77,1.51-1.34,2.08-3.52,3.69-4.93,1.44-1.26,3.04-2.32,4.67-3.34.42-.27.85-.53,1.27-.8,3.16-1.92,6.37-3.77,9.64-5.5,2.93-1.55,5.85-1.47,9.11-1.67,6.28-.39,12.44-.86,18.63-1.68,6.75-.89,13.48-1.84,20.22-2.82,5.96-.87,12.85-2.18,16-8.09.9-1.69,1.74-3.41,2.53-5.15,3.87-8.57,6.39-17.74,7.47-27.07.97-8.4,2.15-19.59-1-27.63Z"/>
          <path class="cls-8" d="M371.58,184.36c-.09.46-.18.91-.26,1.37-.52,2.89-1.53,5.46-1.77,8.38-.32,3.8-1.01,7.56-2.08,11.22-.2.68-.28,1.65.39,1.89.17.06.35.06.53.08.79.11,1.34.79,2.1.96.61.14,1.02-.13,1.59-.1,1.85.1,3.76.95,5.58,1.39,8.41,2.01,16.81,4.02,25.22,6.03.51.12-.33-13.41-.36-14.86-.07-4.74.02-9.21-.78-13.89s-2.49-9.3-5.56-12.91"/>
          <path class="cls-10" d="M363.37,143.02c.65-.21,2.28-.77,2.75-1.27,1.75-1.85,2.21-5.85-.5-7.14-.73-.35-1.61-.3-2.36,0-.75.3-1.39.83-1.93,1.44"/>
          <g class="cls-20">
            <path class="cls-1" d="M344.43,157.54c.22.14.46.24.71.31,1.64.42,3.42.04,5.01-.4,1.5-.41,2.65-1.4,4.28-1.56.44-.04.89-.04,1.31-.17.68-.21,1.26-.76,1.48-1.44.05-.15.07-.35-.07-.43-.08-.05-.17-.03-.26-.02-1.19.2-2.39.39-3.58.59-.75.12-1.5.25-2.26.2-2.1-.13-4.02-.48-5.89-1.51-.7-.39-1.37.43-1.76,1.13-.68,1.21-.05,2.63,1.03,3.3Z"/>
          </g>
          <path class="cls-1" d="M350.33,147.11c1.64-1.99-.38-2.63-2.05-2.07-.83.28-3.11.1-3.49,1.02-.33.8.55,1.34,1.15,1.58,1.13.45,3.52.52,4.39-.53Z"/>
          <path class="cls-16" d="M296.77,277.14c-.26-.15-.24-.53-.18-.82.76-3.7,2.36-7.24,4.63-10.26"/>
          <path class="cls-16" d="M298.29,278.7c1.29-3.9,3.1-7.63,5.36-11.07"/>
          <path class="cls-16" d="M301.43,278.61c1.87-3.49,3.74-6.98,5.61-10.46"/>
          <path class="cls-16" d="M286.67,164.23c-.25,3.71,1.5,7.23,3.2,10.54"/>
          <path class="cls-16" d="M287.57,162.3c.89,4.15,2.34,8.19,4.31,11.95"/>
          <path class="cls-16" d="M289.73,161.26c.36.91.75,1.82,1.13,2.72,1.27,3.01,2.54,6.01,3.81,9.02"/>
          <path class="cls-16" d="M352.35,306.53c.03-2.27-.29-4.54-.95-6.72"/>
          <path class="cls-2" d="M378.52,251.41c2.8-.12,5.52-1.56,7.19-3.82"/>
          <path class="cls-2" d="M394.57,225.39c-.61,2.74-1.22,5.59-2.4,8.15"/>
          <path class="cls-2" d="M395.98,218.76c-.24,1.14-.48,2.29-.72,3.43"/>
          <path class="cls-2" d="M408.42,272.55c-.94,5.51-4.78,10.44-9.89,12.7"/>
          <path class="cls-2" d="M393.72,288c-1.37.13-2.71.53-3.93,1.17"/>
          <path class="cls-2" d="M400.5,281.71c1.46-.99,2.75-2.24,3.79-3.68"/>
          <path class="cls-2" d="M413.15,253.11v-7.46"/>
          <path class="cls-2" d="M412.87,242.27c.06-.94.01-1.89-.14-2.82"/>
          <path class="cls-2" d="M388.94,166.81c1.45,1.27,2.91,2.53,4.36,3.8"/>
          <path class="cls-2" d="M343.44,184.55c.11.65.36,1.28.74,1.82"/>
          <path class="cls-2" d="M331.66,204.98c.65.98,1.13,2.06,1.44,3.2"/>
        </g>
        <g>
          <line class="cls-11" x1="60.63" y1="250.78" x2="48.41" y2="388.7"/>
          <line class="cls-11" x1="338.79" y1="250.78" x2="351.01" y2="388.7"/>
        </g>
        <rect x="35.86" y="249.45" width="334.49" height="5.63"/>
        <g>
          <path class="cls-8" d="M401.21,61.41c-8.5-.78-17.14-.04-25.39,2.16-4.52,1.21-9.07,2.94-12.43,6.19-3.36,3.25-5.3,8.33-3.76,12.75,1.24,3.54,4.43,6.07,7.79,7.75,3.57,1.79,7.42,2.82,11.38,3.4-.27,6.69-2.95,13.26-7.26,17.04,4.49-.85,8.69-4,11.47-8.62,1.4-2.32,2.44-5,3.06-7.83,1.04.03,2.07.04,3.1.03,9.09-.07,29.54.22,34.56-9.84,6.93-13.86-12.22-22.09-22.52-23.03Z"/>
          <path class="cls-2" d="M416.11,81.39c.38-1.42-.29-2.97-1.39-3.96-1.42-1.27-3.43-1.72-5.26-1.97-1.32-.18-2.68.04-3.79.76-3.26,2.09-1.38,5.82,1.32,6.64.49.15,1.04-.11,1.17-.6.47-1.75-.37-3.79-1.8-4.98-1.64-1.37-3.86-1.84-6-1.96-1.92-.11-3.93.05-5.58,1.04-1.92,1.16-3.15,3.73-1.83,5.77.42.66,1.26,1.01,1.99.74,1.29-.48,1.13-2.15.56-3.27-2.37-4.67-9.65-6.01-13.29-1.95-.48.54-.84,1.21-.98,1.92-.68,3.57,4.49,2.18,1.64-1.54-1.74-2.27-5.21-2.77-7.79-1.89-1.52.52-2.92,1.57-3.53,3.06-.31.76-.32,1.79.38,2.21.45.27,1.03.19,1.53.03.99-.3,1.96-.85,2.09-2.18.08-.75-.17-1.52-.65-2.09-.96-1.12-2.57-1.43-4-1.19-1.33.22-2.55.84-3.74,1.46"/>
        </g>
        <g>
          <path class="cls-3" d="M272.44,76.71c2.9-3.69,7.71-5.27,12.31-6.22,10.13-2.1,20.62-2.08,30.87-.73,5.91.78,11.9,2.05,16.97,5.18,2,1.23,3.86,2.78,5.02,4.82,2.63,4.61.95,10.76-2.69,14.62-7.7,8.16-21.38,8.19-31.77,7.63-1.27-.07-2.55-.16-3.82-.27.02.63.05,1.27.07,1.9.07,1.78.13,3.59-.3,5.32-1.37,5.55-7.34,8.74-12.99,9.59,5.11-1.31,7.23-7.67,6.52-12.9-.23-1.66-.64-3.28-1.13-4.88-1.14-.18-2.27-.37-3.41-.59-3.99-.76-8.14-1.85-11.49-3.99-2.67-1.7-4.83-4.05-6.01-7.42-1.4-4-.81-8.73,1.81-12.07Z"/>
          <path class="cls-2" d="M328.66,86.58c-.48,2.1-2.93,3.3-5.06,3.01s-3.95-1.71-5.42-3.29c-.87-.93-1.62-2.52-.63-3.32.57-.46,1.43-.32,2.05.06,1.59.99,1.94,3.37.97,4.96-.97,1.6-2.96,2.4-4.82,2.29-1.87-.11-3.61-1.01-5.08-2.17-.95-.75-1.86-1.71-1.99-2.92-.13-1.2.91-2.55,2.09-2.3.95.2,1.47,1.28,1.49,2.25.06,2.49-2.31,4.59-4.79,4.77s-4.88-1.2-6.51-3.08c-.83-.95-1.36-2.68-.25-3.26.97-.51,2.09.57,2.3,1.65.5,2.56-2.04,5.02-4.65,5.02s-4.92-1.92-6.08-4.26c-.46-.93-.53-2.41.48-2.64.56-.13,1.11.27,1.45.74,1.42,1.98,0,5.12-2.35,5.79-2.35.67-4.94-.77-6.13-2.9-.58-1.04-.88-2.23-.87-3.43"/>
        </g>
        <g>
          <path d="M331.89,249.64c.02-.1.04-.21.04-.33,0-.85-.68-1.53-1.53-1.7h-64.24c-.85.17-1.53.86-1.53,1.7,0,.11.01.22.04.33h67.23Z"/>
          <path d="M264.24,249.64h57.38l-4.76-31.41c-.17-1.14-1.14-2-2.27-2h-52.83c-1.36,0-2.39,1.23-2.18,2.61l4.66,30.8Z"/>
          <path class="cls-12" d="M285.17,230.96c0,1.52,1.23,2.75,2.75,2.75s2.75-1.23,2.75-2.75-1.23-2.75-2.75-2.75-2.75,1.23-2.75,2.75Z"/>
        </g>
        <g>
          <path class="cls-8" d="M97.91,249.64c-.02-.1-.04-.21-.04-.33,0-.85.68-1.53,1.53-1.7h64.24c.85.17,1.53.86,1.53,1.7,0,.11-.01.22-.04.33h-67.23Z"/>
          <path class="cls-8" d="M165.56,249.64h-57.38l4.76-31.41c.17-1.14,1.15-2,2.27-2h52.83c1.36,0,2.39,1.23,2.18,2.61l-4.66,30.8Z"/>
          <path class="cls-1" d="M144.63,230.96c0,1.52-1.23,2.75-2.75,2.75s-2.75-1.23-2.75-2.75,1.23-2.75,2.75-2.75c1.52,0,2.75,1.23,2.75,2.75Z"/>
          <path class="cls-2" d="M116.25,222.05c-.51,3.14-1.03,6.29-1.55,9.43"/>
          <path class="cls-2" d="M114.37,233.6c-.07,1.06-.18,2.12-.35,3.17"/>
        </g>
        <path class="cls-8" d="M256.55,197.28c-.01,2.63-.13,5.26-.35,7.88"/>
        <path class="cls-8" d="M255.08,199.39v3.73"/>
      </g>
    </g>
    <path class="cls-2" d="M192.1,389.09c76.25.34,153.79.34,230.74,0"/>
    <path class="cls-2" d="M124.68,389.24c8.67-.04,17.34-.09,26.01-.15"/>
    <path class="cls-2" d="M23.59,389.09c30.07.31,60.07.31,90.09.19"/>
    <line class="cls-2" x1="12.29" y1="383.86" x2="385.7" y2="383.86"/>
    <line class="cls-2" x1="399.9" y1="383.86" x2="437.22" y2="383.86"/>
  </g>
</svg>