<?xml version="1.0" encoding="UTF-8"?>
<svg id="_ëîé_1" data-name="‘ëîé_1" xmlns="http://www.w3.org/2000/svg" viewBox="0 0 2710.04 1744.41">
  <defs>
    <style>
      .cls-1 {
        letter-spacing: 0em;
      }

      .cls-2 {
        letter-spacing: -.01em;
      }

      .cls-3 {
        letter-spacing: 0em;
      }

      .cls-4 {
        fill: #2f1a31;
      }

      .cls-5 {
        fill: #fcc67e;
      }

      .cls-6 {
        letter-spacing: 0em;
      }

      .cls-7 {
        letter-spacing: 0em;
      }

      .cls-8 {
        letter-spacing: 0em;
      }

      .cls-9 {
        letter-spacing: 0em;
      }

      .cls-10 {
        opacity: .6;
      }

      .cls-11 {
        letter-spacing: -.03em;
      }

      .cls-12 {
        fill: #69a1c4;
      }

      .cls-13 {
        fill: #dd8964;
      }

      .cls-14 {
        fill: #fff;
      }

      .cls-15 {
        font-size: 40.42px;
      }

      .cls-15, .cls-16 {
        font-family: MyriadPro-Regular, 'Myriad Pro';
      }

      .cls-17 {
        letter-spacing: -.01em;
      }

      .cls-18 {
        letter-spacing: -.03em;
      }

      .cls-16 {
        font-size: 30.31px;
      }

      .cls-19 {
        letter-spacing: 0em;
      }

      .cls-20 {
        letter-spacing: 0em;
      }

      .cls-21 {
        letter-spacing: 0em;
      }

      .cls-22 {
        letter-spacing: 0em;
      }

      .cls-23 {
        letter-spacing: 0em;
      }

      .cls-24 {
        fill: #74a1bd;
      }

      .cls-25 {
        letter-spacing: 0em;
      }

      .cls-26 {
        letter-spacing: 0em;
      }

      .cls-27 {
        letter-spacing: 0em;
      }

      .cls-28 {
        letter-spacing: -.04em;
      }

      .cls-29 {
        letter-spacing: -.04em;
      }

      .cls-30 {
        fill: #060633;
      }

      .cls-31 {
        fill: #f7b686;
      }

      .cls-32 {
        letter-spacing: 0em;
      }

      .cls-33 {
        fill: #81b3cc;
      }

      .cls-34 {
        letter-spacing: -.01em;
      }

      .cls-35 {
        letter-spacing: -.03em;
      }

      .cls-36 {
        letter-spacing: 0em;
      }

      .cls-37 {
        fill: #b2c9c6;
      }

      .cls-38 {
        fill: #56335b;
      }

      .cls-39 {
        fill: #c4c695;
      }

      .cls-40 {
        fill: #ea9f75;
      }

      .cls-41 {
        letter-spacing: -.04em;
      }

      .cls-42 {
        letter-spacing: -.05em;
      }

      .cls-43 {
        fill: #f9d780;
      }

      .cls-44 {
        fill: #cfd3a3;
      }

      .cls-45 {
        opacity: .5;
      }

      .cls-46 {
        fill: #e28569;
      }

      .cls-47 {
        letter-spacing: 0em;
      }
    </style>
  </defs>
  <g>
    <g class="cls-10">
      <path class="cls-37" d="M1234.91,1619.64s-229.74-242.48-307.23-173.4c-77.49,69.07,197.63,126.04,261.79,198.89l45.44-25.49Z"/>
    </g>
    <path class="cls-37" d="M1209.62,1634.12c-43.41-51.11-107.57-91.37-153.76-116.14-50.07-26.86-90.35-41.79-90.75-41.94l.9-2.51c.4.15,40.86,15.15,91.09,42.09,46.39,24.88,110.85,65.34,154.54,116.77l-2.02,1.73Z"/>
  </g>
  <g>
    <path class="cls-44" d="M1325.33,1718.3c-5.45.05-10.93.11-16.44.18-4.78.05-9.58.12-14.41.18-2.5.04-5.01.08-7.52.12-.44,0-.87.01-1.31.02-24.66.38-49.83.89-75.14,1.48-15.24.35-30.52.73-45.8,1.14-1.52.03-3.01.08-4.51.12-3.27.08-6.53.17-9.79.25-8.31.23-16.59.46-24.85.69l-9.04.26c-41.95,1.2-83.17,2.46-122.02,3.57-5.41-7.33-10.9-14.87-17.16-21.56h-.01c-.46-.52-.91-.99-1.39-1.48h0c-9.74-10-21.39-17.83-37.43-19.68-17.03-1.95-34.82-6.31-50.84-12.79h0s0,0,0,0c0,0,0,0,0,0-1.32-.52-2.63-1.08-3.94-1.65h0c-31.92-13.86-55.61-36.27-49.58-64.56v-.03c.14-.67.29-1.33.48-2.01h0c1.23-4.72,3.29-9.6,6.27-14.63,31.07-52.35,73.01-42.55,119.47-43.01,25.68-.27,56.09-38.06,88.66-59.05h.01s0,0,0,0h.01c.45-.31.91-.6,1.37-.88h0c25.92-16.28,53.16-21.44,80.44,11.75,0,0,.01,0,.01.01.55.67,1.1,1.33,1.65,1.99h0s0,0,0,.01c47.71,57.31,69.41,49.26,110,45.05,11.09-1.16,23.6-2.03,38.44-1.19,12.85.74,24.53,1.97,32.99,7.33,66.73,42.27,54.17,115.05,11.4,168.4Z"/>
    <g>
      <path class="cls-39" d="M1291.79,1665.37l1.87-3.47c-1.53-.82-156.62-82.17-459.7-59.33l.3,3.93c301.94-22.76,456.02,58.05,457.54,58.86Z"/>
      <path class="cls-39" d="M1092.1,1567.22c36.33-39.84,40.53-69.03,40.69-70.25l-3.91-.52c-.04.29-4.29,29.29-39.7,68.12l2.92,2.66Z"/>
      <path class="cls-39" d="M1089.38,1610.23c9.25-20.86,5.37-49.21-11.21-82-12.42-24.55-27.77-43.25-27.92-43.44l-3.04,2.51c.6.73,59.83,73.37,38.56,121.33l3.61,1.6Z"/>
      <path class="cls-39" d="M1009.13,1611.28c4.35-4.44,6.66-7.28,6.77-7.41l-3.08-2.46c-.48.6-49.2,60.27-129.27,65.76l.27,3.93c64.52-4.42,109.09-43.27,125.31-59.82Z"/>
      <path class="cls-39" d="M978.89,1705.9c16.21-22.13,19.4-42.95,19.22-56.53-.19-14.77-4.22-24.21-4.39-24.61l-3.62,1.57c.16.36,15.28,36.72-14.39,77.24l3.18,2.33Z"/>
    </g>
  </g>
  <g>
    <g class="cls-10">
      <path class="cls-37" d="M1556.79,1723.89s107.41-379.24,209.22-346.23c101.81,33.01-128.28,238.18-156.05,349.57l-53.17-3.34Z"/>
    </g>
    <g>
      <path class="cls-44" d="M1602.93,1668.96s192.91-333.74,299.56-276.88c106.65,56.86-188.7,194.38-241.16,293.35l-58.4-16.48Z"/>
      <path class="cls-39" d="M1635.52,1678.47c34.99-69.01,96.44-131.38,141.83-171.54,49.21-43.55,90.63-71.09,91.05-71.36l-1.71-2.58c-.41.27-42.02,27.94-91.39,71.62-45.59,40.35-107.32,103.02-142.53,172.46l2.76,1.4Z"/>
    </g>
    <g>
      <path class="cls-37" d="M2038.03,1641.73h0c-.24-.62-.48-1.21-.77-1.82v-.02c-1.89-4.26-4.59-8.54-8.19-12.82-37.48-44.52-75.51-28.71-119.4-21.91-24.26,3.77-58.82-27.08-92.79-41.8l-.1-.05h0c-.48-.19-.95-.4-1.43-.61-3.09-1.29-6.17-2.45-9.25-3.41-2.76-.88-5.51-1.61-8.23-2.17-20.76-4.28-40.49,1.38-56.56,29.22h0s-.02.02-.02.02c-.41.72-.83,1.43-1.24,2.14v.02c-9.91,16.91-18.74,28.86-27.15,37.33,0,0-.02.02-.03.03l-.1.1c-2.17,2.19-4.32,4.14-6.43,5.89,0,0-.02.02-.03.02l-.02.02s0,0-.02,0c-13.24,10.86-25.82,13.76-40.48,15h0c-1.47.13-2.94.23-4.47.34h0c-2.68.17-5.43.3-8.27.44-1.24.06-2.49.12-3.76.19h-.02c-.17,0-.34.02-.51.02-1.38.07-2.78.14-4.21.22-7.72.45-16.11,1.13-25.43,2.63h0c-.64.09-1.26.21-1.89.31-.34.07-.67.12-1.01.18-.99.17-1.99.35-2.99.55-2.07.39-4.17.83-6.33,1.31-2.6.58-5.14,1.17-7.59,1.83-4.12,1.07-7.99,2.27-11.54,3.74-4.13,1.72-7.81,3.8-10.84,6.49-.8.71-1.58,1.44-2.36,2.15-.05.05-.11.11-.17.16-11.72,11.05-19.72,22.85-24.56,34.99-3.75,9.41-5.6,19.03-5.78,28.66,29.5,1.88,57.37,3.59,83.78,5.11,11.99.69,23.68,1.34,35.09,1.95,2.51.14,5.01.27,7.49.4h0c93.08,4.89,167.42,6.98,233.42,5.22,1.51-.04,2.99-.08,4.48-.12,8.18-.25,16.23-.55,24.18-.91,5.38-4.43,11.72-7.97,19.43-10.17,15.75-4.51,31.85-11.4,45.96-20.01,0,0,0,0,.02,0,0,0,.02,0,.02,0,1.16-.71,2.3-1.43,3.43-2.17h0c27.95-18.08,46.79-42.92,36.67-68.67Z"/>
      <g class="cls-45">
        <path class="cls-24" d="M2038.2,1643.59c-62.68,5.59-118,14.71-166.22,25.56h0c-1.57.34-3.12.7-4.67,1.06-90.61,20.79-155.66,47.65-196.88,68.35h0c-2.48-.13-4.98-.26-7.49-.4,30.23-15.6,74.65-35.19,133.98-53.17,1.24-.38,2.47-.74,3.73-1.11h0c62.4-18.65,140.99-35.42,236.61-43.99.19-.02.39-.04.6-.05l.17,1.88h0s.17,1.87.17,1.87Z"/>
        <path class="cls-24" d="M1788.85,1646.82c-40.5-31.9-49.02-58.78-49.36-59.9l3.61-1.1c.08.27,8.63,26.96,48.09,58.04l-2.34,2.96Z"/>
        <path class="cls-24" d="M1798.14,1686.97c-11.98-18.23-12.76-45.58-2.24-79.09,7.88-25.1,19.43-45.13,19.55-45.33l3.26,1.89c-.45.78-44.97,78.55-17.41,120.46l-3.15,2.07Z"/>
        <path class="cls-24" d="M1874,1675.42c-4.8-3.51-7.42-5.82-7.54-5.93l2.52-2.81c.55.49,55.82,49.16,132.2,41.83l.36,3.75c-61.54,5.91-109.65-23.76-127.54-36.84Z"/>
        <path class="cls-24" d="M1908.32,1743.67c-1.49.04-2.98.08-4.48.12-8.59-12.87-12.12-25.1-13.49-34.17-1.88-12.38-.28-21.27.18-23.41h0c.06-.28.1-.45.12-.48l3.66.91s-.14.58-.3,1.54c-1.02,6.21-3.46,30.23,14.32,55.48Z"/>
      </g>
    </g>
    <path class="cls-37" d="M1904.11,1529.33c18.26-3.13,24.87,2.81,26.32,11.3,1.46,8.49-2.79,16.3-21.05,19.43-33.26,5.71-51.97-6.9-51.97-6.9,0,0,12.95-18.04,46.69-23.83Z"/>
  </g>
  <g>
    <path class="cls-31" d="M1232.56,1174.01s-161.09,124.31-181.7,103c-36.64-37.88-63.37-73.32-62.75-73.72l-118.95-23.29s51.7,230.52,143.52,239.07c114.4,10.66,214.37-73.3,214.37-73.3l5.5-171.76Z"/>
    <path class="cls-12" d="M1620.11,1650.34c.18-10.87.35-22.28.45-34.1h0c.08-8.96.12-18.15.13-27.55.02-9.25,0-18.68-.08-28.26-.06-7.89-.15-15.89-.27-23.95-.03-2.3-.07-4.62-.11-6.93-.08-4.57-.16-9.15-.27-13.75-.14-6.55-.3-13.12-.49-19.73-2.04-70.99-7.01-144.18-17.35-203.1-.08-.49-.17-.97-.26-1.47-.37-2.09-.75-4.15-1.13-6.2-1.58-8.45-3.29-16.58-5.12-24.33-.05-.26-.11-.52-.18-.78-.38-1.64-.78-3.27-1.18-4.88-.48-1.92-.97-3.82-1.47-5.68-.14-.51-.28-1.02-.41-1.53-.02-.09-.05-.18-.08-.27-.65-2.42-1.32-4.78-2-7.12-.15-.51-.3-1.02-.45-1.52-.92-3.11-1.88-6.13-2.86-9.06-1.14-3.39-2.3-6.67-3.52-9.81,0,0-8.72-34.29-54.59-61.51-2.57-1.53-5.27-3.03-8.08-4.51,0,0-.02,0-.03-.02-7.43-3.89-15.69-7.58-24.9-10.92,0,0-.02,0-.03,0-15.23-5.53-33.01-10.12-53.79-13.18-.02,0-.03,0-.05,0s-.05,0-.08,0c0,0-.02,0-.02,0-3.78-.55-7.67-1.05-11.63-1.51h-.02c-.19-.02-.38-.04-.57-.05-.02,0-.04,0-.05,0-13.73-1.53-28.65-2.41-44.88-2.5-9.5-.05-18.61.32-27.35,1.11h0c-54.73,4.91-95.12,25.93-125.24,59.8-11.55,12.99-21.59,27.87-30.35,44.45-6.59,12.47-12.46,25.92-17.68,40.25-5.49,15.03-10.29,31.02-14.51,47.9-5.15,20.56-9.44,42.43-13.08,65.46-.25,1.6-.49,3.19-.74,4.8-.06.38-.11.78-.18,1.17-.73,4.74-1.42,9.53-2.09,14.37l-.02.14c-.07.51-.14,1.04-.21,1.57-.09.61-.17,1.21-.25,1.82-.55,4.05-1.08,8.13-1.6,12.25-.31,2.56-.63,5.13-.94,7.72-.18,1.47-.35,2.95-.51,4.44-.68,5.71-1.31,11.49-1.92,17.32-.15,1.4-.29,2.8-.44,4.21-.15,1.52-.31,3.04-.46,4.58h0c-.3,3.02-.6,6.06-.88,9.1-.08.76-.15,1.52-.22,2.29,0,.18-.02.35-.05.53-.34,3.72-.68,7.45-1.01,11.21-.45,5.18-.89,10.4-1.32,15.65-2.99,36.94-5.3,75.66-7.5,115.74h0c-.25,4.5-.49,9.01-.74,13.54-.15,2.72-.29,5.45-.45,8.19,0,0,0,.02,0,.02-.81,14.99-1.61,52.59-2.45,86.65,113.98-2.7,224.06-3.61,300.07,1.47,70.32,4.69,132.36,8.73,188,11.93-.38-25.6-1.04-57.25-.66-76.46.05-2.93.11-5.9.17-8.92Z"/>
    <path class="cls-12" d="M1643.68,1252.75l-109.92,16.94s-250.27,22.56-316.71,11.69c-66.44-10.86-84.67-59.28-84.67-59.28,0,0,70.76-72.66,191.04-92.06,11.3-1.84,23.02-3.19,35.17-3.97,20.4-1.3,40.83-1.03,60.8,1.2,152.44,17.05,224.29,125.48,224.29,125.48Z"/>
    <path class="cls-31" d="M1405.7,1105.42l-16.42-41.19-4.78-11.99-28.1-70.51,2.56,72.06s7.39,65.47-.38,72.29c-8.86,7.77-28.1,29.52-7.04,36.91,26.24,9.21,75.68-9.09,92.03-32.54-.14-.02-30.09-4.38-37.88-25.02Z"/>
    <g>
      <path class="cls-38" d="M1274.62,977.13s.31,18.12,10.7,38.06c10.4,19.94,17.46-38.11,17.46-38.11l-28.16.05Z"/>
      <ellipse class="cls-31" cx="1348.64" cy="1012.93" rx="64.85" ry="77.62" transform="translate(-134.33 209.41) rotate(-8.46)"/>
      <path class="cls-4" d="M1408.42,982l-31.11,5.26c-6.84,1.16-13.92-.7-19.09-5.3-8.9-7.91-17.75-10.78-45.66-1.92-35.34,11.22-64.87-3.37-73.95-20.85-9.26-17.84,5.41-35.73,25.89-31.68,20.48,4.06,6.55-15.94,23.14-23.07,31-13.32,43.98,9.67,70.15,1.56,34.31-10.64,103.64-1.71,91.25,66.89l-40.61,9.11Z"/>
      <path class="cls-30" d="M1344.5,1010.69c-.38-.11-.71-.4-.86-.8-.25-.67.09-1.42.77-1.68.4-.15,9.36-4.44,16.92,4.2.48.54.44,1.36-.09,1.84-.54.48-1.26.32-1.86-.09-5.93-4.18-13.71-3.62-14.05-3.5-.28.1-.57.1-.83.02Z"/>
      <path class="cls-30" d="M1354.52,1025.29c.02,3.11-1.81,5.65-4.09,5.66s-4.14-2.5-4.16-5.61,1.81-5.65,4.09-5.66c2.28-.01,4.14,2.5,4.16,5.61Z"/>
      <path class="cls-30" d="M1296.6,1019.94c-.31.03-.63-.12-.86-.44-.39-.54-.39-1.36.01-1.84.24-.28,5.22-7.47,13.32-2.12.51.34.75,1.11.52,1.75-.23.64-.79.75-1.35.58-5.53-1.78-10.87,1.52-11.07,1.75-.16.19-.37.3-.58.32Z"/>
      <path class="cls-30" d="M1311.77,1029.62c1.21,2.87.49,5.91-1.61,6.78-2.1.87-4.78-.75-6-3.62s-.49-5.91,1.61-6.78c2.1-.87,4.78.75,6,3.62Z"/>
      <path class="cls-38" d="M1449.03,972.89s-8.3,50.5-36.99,61.99c0,0,14.36-40.71-41.95-47.5,0,0,44.3-20.07,78.94-14.48Z"/>
      <path class="cls-31" d="M1414.22,1009.13c-5.21,5.75-13.63,6.67-18.81,2.05-5.18-4.62-5.16-13.03.05-18.78,5.21-5.75,13.63-6.67,18.81-2.05,5.18,4.62,5.16,13.03-.05,18.78Z"/>
      <path class="cls-38" d="M1370.08,987.37s13.9,36.33,6.04,43.83c-38.84,37.07-82.66,19.33-82.66,19.33,4.5,31.82,33.62,47.28,58.98,44.31,8.01-.94,15.92-3.17,23.4-6.71h0c15.79-7.48,30.02-18.77,32.57-35.95.77-5.23-13.33-32.16-13.33-32.16,0,0-7-16.16.38-27.63,0,0-14.22-6.99-25.38-5.03Z"/>
      <path class="cls-14" d="M1313.36,1066.91s20.94-.16,41.65-8.1c0,0,2.38,20.42-20.25,22.49-13.16,1.2-21.4-14.38-21.4-14.38Z"/>
      <path class="cls-4" d="M1266.97,923.64l-.42-1.71c8.3-2.03,7.2-8.76,7.15-9.05l1.73-.32c.01.09,1.48,8.65-8.46,11.08Z"/>
      <path class="cls-14" d="M1299.63,972.91c-1.72-.02-42.17-.67-49.41-20.21-2.08-5.62-2.16-9.77-.23-12.68,3.1-4.66,10.66-4.99,17.33-5.26.99-.05,1.95-.09,2.87-.14l.05.88c-.93.06-1.89.1-2.88.14-6.46.28-13.78.59-16.64,4.88-1.76,2.66-1.66,6.54.32,11.89,7.04,18.98,48.19,19.63,48.6,19.64v.88Z"/>
      <path class="cls-14" d="M1343.57,915.59c-18.27,0-29.3-7.34-29.46-7.44l.5-.74c.23.16,23.94,15.9,59.63.65l.35.82c-11.74,5.02-22.22,6.72-31.01,6.72Z"/>
    </g>
    <g>
      <path class="cls-31" d="M924.06,1085.81c-9.13-25.68-.16-60.7-7.68-62.2-23.04-4.61-19.05,52.6-37.38,60.62-12.98,5.68-58.51,27.27-51.1,81.92,1.18,8.71,53.17,21.56,62.63,21.02,9.46-.54,50.97,86.63,50.97,86.63l55.08-58.62c-4.29-1.24-61.65-98.81-72.52-129.37Z"/>
      <path class="cls-31" d="M866.96,1131.01s-39.3-16.07-45.58-12.57c-6.28,3.5-9.05,18.73-4.18,23.03,4.86,4.3,44.06,13.46,48.35,10.84,4.29-2.62,8.19-18.87,1.42-21.3Z"/>
      <path class="cls-31" d="M859.33,1155.52s-31.47-14.15-37.98-9.52c-4.63,3.29-5.17,14.39-1.33,17.79,3.84,3.39,34.79,10.63,38.18,8.56,3.39-2.07,6.47-14.9,1.12-16.82Z"/>
      <path class="cls-31" d="M873.32,1111.35s-37.88-17.27-44.57-16.48c-6.79.81-13.09,14.62-5.17,21.7,4.58,4.09,42.15,15.77,46.46,13.89,4.31-1.88,9.49-16.14,3.28-19.11Z"/>
      <path class="cls-40" d="M828.76,1167.93c-.28-.25-.42-.66-.31-1.05.15-.55.72-.88,1.27-.72.53.15,1.2.34,1.96.57,5.81,1.71,17.91,5.27,24.16,2.22,1.9-.93,3.14-7.04,3.61-9.34l.09-.44c.14-.66-.04-1.31-.52-2-3.98-5.66-25.79-9.92-33.85-11.08-.57-.08-.96-.6-.88-1.17.08-.57.61-.96,1.17-.88,1.22.18,29.93,4.42,35.25,11.94.82,1.16,1.11,2.38.86,3.61l-.09.43c-.92,4.56-2.13,9.52-4.73,10.79-6.97,3.4-19.59-.31-25.65-2.1-.75-.22-1.4-.41-1.93-.56-.16-.04-.3-.12-.41-.22Z"/>
      <path class="cls-40" d="M854.25,1153.66c-.32-.28-.44-.75-.27-1.17.22-.53.82-.78,1.35-.56.03.01,2.94,1.17,5.57-.38,2.4-1.41,3.92-4.59,4.52-9.46,1.9-15.42-39.25-22.96-39.66-23.03-.57-.09-.94-.64-.84-1.2.1-.56.64-.94,1.2-.84,1.77.32,43.47,7.98,41.35,25.32-.68,5.56-2.55,9.27-5.55,11.01-3.53,2.05-7.23.55-7.38.49-.11-.04-.21-.11-.29-.18Z"/>
      <path class="cls-31" d="M872.46,1106.78s-38.82-7.41-40.88-14.13c-4.28-13.91,6.69-21.6,12.83-22.27,6.14-.68,39.27,15.21,40.56,19.99,1.29,4.78-6.25,18.46-12.51,16.42Z"/>
      <path class="cls-40" d="M854,1128.14c-.29-.26-.43-.68-.3-1.08.17-.55.75-.85,1.3-.68,7.73,2.43,12.46,2.73,15.36.96,2.65-1.61,4.21-5.04,5.4-11.83.27-1.57-1.79-7.52-39.88-18.32q-1.69-.48-1.86-.59c-.48-.29-.62-.95-.31-1.43.28-.43.82-.59,1.28-.39.17.05.68.2,1.46.42,42.84,12.16,41.72,18.56,41.36,20.67-1.3,7.45-3.15,11.28-6.37,13.24-3.5,2.13-8.6,1.9-17.06-.75-.14-.05-.27-.12-.38-.21Z"/>
      <path class="cls-40" d="M869.5,1109.31c-.31-.28-.44-.73-.28-1.14.2-.54.8-.8,1.34-.6,3.81,1.45,6.89,1.37,9.15-.23,4.97-3.53,4.75-13.28,4.75-13.38-.02-.57.43-1.05,1.01-1.06.57-.02,1.05.43,1.06,1.01.01.45.24,10.95-5.62,15.12-2.85,2.03-6.58,2.19-11.08.48-.12-.05-.23-.11-.32-.19Z"/>
      <path class="cls-40" d="M895.33,1132.24c-2.61-4.86-3.86-9.36-4.41-13.07-1.32-9.03,1.07-15.28,1.17-15.54.19-.48.73-.72,1.22-.53.48.19.72.73.53,1.22-.09.24-9.04,24.32,19.8,45.28.42.3.51.89.21,1.31-.31.42-.89.51-1.31.21-8.66-6.3-13.98-12.86-17.21-18.87Z"/>
    </g>
    <path class="cls-40" d="M1022.92,1320.92c-.13,0-.27-.03-.4-.08-.59-.22-.9-.88-.68-1.47.51-1.37,12.71-33.56,37.06-41.02.65-.14,1.25.16,1.44.77.19.61-.15,1.25-.76,1.44-23.27,7.14-35.46,39.29-35.58,39.61-.17.47-.61.76-1.08.76Z"/>
    <ellipse class="cls-4" cx="1553.49" cy="1284.61" rx="95.6" ry="25.32" transform="translate(-339.49 591.66) rotate(-19.48)"/>
    <g>
      <g>
        <path class="cls-31" d="M1535.04,1575.6s-55.33-14.33-83.05,4.77c-27.72,19.1-49,64.85-29.36,56.72,19.64-8.12,41.94-25.57,41.94-25.57,0,0-45.92,39.55-32.22,46.48,13.71,6.93,53.32-27.86,53.32-27.86,0,0-50.98,51.5-35.94,53.77,15.03,2.27,53.49-37.13,53.49-37.13,0,0-45.55,49.84-28.03,52.06s37.38-41.44,51.09-34.51,51.01,19.25,90.01-11.54l-81.24-77.21Z"/>
        <path class="cls-13" d="M1464.56,1612.78c-.29,0-.58-.1-.81-.3-.52-.45-.58-1.23-.13-1.76.49-.56,11.93-13.77,22.9-12.34.68.09,1.16.71,1.07,1.39-.08.69-.63,1.29-1.39,1.07-9.66-1.06-20.59,11.38-20.69,11.51-.25.28-.6.43-.95.43Z"/>
        <path class="cls-13" d="M1484.07,1631.46c-.29,0-.58-.1-.82-.3-.52-.45-.58-1.23-.13-1.76.49-.56,11.92-13.76,22.9-12.33.68.09,1.16.71,1.07,1.39-.08.69-.65,1.28-1.39,1.07-9.66-1.21-20.58,11.37-20.69,11.5-.25.28-.6.43-.95.43Z"/>
        <path class="cls-13" d="M1503.21,1648.04c-.29,0-.58-.1-.81-.3-.52-.45-.58-1.23-.13-1.76.57-.66,14.11-16.31,25.65-13.76.67.14,1.1.81.96,1.47-.15.68-.78,1.06-1.48.96-.68-.14-1.38-.21-2.08-.21-9.7,0-21.02,13.03-21.14,13.18-.25.28-.6.43-.95.43Z"/>
      </g>
      <path class="cls-31" d="M1586.46,1668.97l-55.3-93.7c38.46-9.95,68.3-89.92,57.77-122.59-18.53-57.5-69.05-112.94-89.3-133.8-4.16-4.28,8.32-22.67,28.28-34.54,42.41-25.22,79.35-28.44,94.43-17.51,21.88,15.87,57.46,68.09,85.64,147.22,36.75,103.18-66.86,242.07-121.52,254.92Z"/>
    </g>
  </g>
  <path class="cls-46" d="M2568.6,0h-1083.58c-78.12,0-141.45,65.34-141.45,145.94v474.26c0,80.6,63.33,145.94,141.45,145.94h104.34c38.81,0,68.14,36.28,61.17,75.68l-19.55,110.42c-5.03,28.43,28.54,46.5,48.27,25.98l185.57-193.09c11.68-12.15,27.57-18.98,44.15-18.98h659.62c78.12,0,141.45-65.34,141.45-145.94V145.94c0-80.6-63.33-145.94-141.45-145.94Z"/>
  <path class="cls-12" d="M134.53,163.11h1030.57c74.3,0,134.53,60.23,134.53,134.53v437.2c0,74.3-60.23,134.53-134.53,134.53h-99.24c-36.91,0-64.81,33.45-58.18,69.76l18.59,101.79c4.79,26.21-27.15,42.87-45.91,23.95l-176.5-178.01c-11.1-11.2-26.22-17.5-41.99-17.5H134.53C60.23,869.38,0,809.15,0,734.84v-437.2c0-74.3,60.23-134.53,134.53-134.53Z"/>
  <g>
    <g>
      <path class="cls-4" d="M621.73,1468.45c-3.42,0-6.9-.17-10.45-.48-42.94-3.82-67.56-26.71-67.56-62.82,0-53.05,27.22-83.48,74.69-83.48,39.7,0,76.31,32.57,79.95,71.12,1.97,20.93-4.51,40.07-18.24,53.87-14.14,14.21-34.61,21.8-58.39,21.8ZM618.41,1323.82c-46.11,0-72.55,29.64-72.55,81.32,0,34.85,23.91,56.98,65.61,60.69,27.53,2.4,51.4-4.91,67.13-20.7,13.27-13.34,19.54-31.86,17.62-52.15-3.54-37.49-39.17-69.16-77.81-69.16Z"/>
      <path class="cls-46" d="M554.46,1395.48c0-48.33,23.09-82.4,73.63-82.4,38.74,0,75.24,31.57,78.88,70.14,4.3,45.55-31.68,78.84-85.92,74.01-38.58-3.44-66.59-23.01-66.59-61.75Z"/>
    </g>
    <path class="cls-14" d="M627.62,1426.09c-2.73,0-5.32-1.31-6.95-3.52l-29.63-40.28c-2.83-3.83-2-9.24,1.84-12.06,3.84-2.85,9.24-2.03,12.07,1.84l21.71,29.52,29.59-52.49c2.34-4.16,7.6-5.63,11.76-3.28,4.15,2.33,5.62,7.61,3.28,11.75l-36.14,64.13c-1.44,2.56-4.07,4.21-7,4.39-.17,0-.35.01-.52.01Z"/>
  </g>
  <g>
    <g>
      <path class="cls-4" d="M2032.96,1079.55c-4.74,0-9.57-.23-14.49-.66-59.5-5.31-93.63-37.03-93.63-87.05,0-73.51,37.73-115.67,103.52-115.67,55.01,0,105.75,45.12,110.79,98.54,2.73,29-6.24,55.51-25.27,74.63-19.6,19.7-47.97,30.21-80.92,30.21ZM2028.37,879.14c-63.89,0-100.54,41.08-100.54,112.7,0,48.28,33.14,78.94,90.91,84.09,38.23,3.42,71.25-6.77,93.03-28.68,18.4-18.49,27.06-44.15,24.41-72.26-4.9-51.96-54.27-95.85-107.82-95.85Z"/>
      <path class="cls-12" d="M1939.74,978.44c0-66.97,32-114.18,102.02-114.18,53.68,0,104.26,43.75,109.3,97.2,5.95,63.12-43.9,109.26-119.06,102.56-53.47-4.77-92.27-31.89-92.27-85.57Z"/>
    </g>
    <path class="cls-14" d="M2041.13,1020.85c-3.79,0-7.37-1.79-9.64-4.87l-41.05-55.82c-3.92-5.33-2.77-12.81,2.55-16.72,5.33-3.92,12.81-2.76,16.72,2.55l30.09,40.91,40.99-72.74c3.25-5.77,10.55-7.77,16.29-4.55,5.76,3.25,7.8,10.54,4.55,16.29l-50.08,88.87c-2,3.54-5.65,5.82-9.7,6.07-.24.01-.48.01-.72.01Z"/>
  </g>
  <path class="cls-43" d="M1182.32,1021.02l-7.91,21.93c-1.01,2.79-.1,5.92,2.24,7.74l18.41,14.3c5.25,4.07,2.21,12.48-4.42,12.27l-23.3-.74c-2.97-.09-5.66,1.73-6.67,4.53l-7.91,21.93c-2.25,6.25-11.18,5.96-13.03-.42l-6.49-22.39c-.83-2.85-3.4-4.85-6.37-4.94l-23.3-.74c-6.64-.21-9.13-8.79-3.63-12.52l19.29-13.1c2.46-1.67,3.56-4.73,2.73-7.58l-6.49-22.39c-1.85-6.38,5.54-11.4,10.79-7.32l18.42,14.3c2.35,1.82,5.6,1.92,8.05.26l19.29-13.1c5.5-3.73,12.55,1.75,10.3,8Z"/>
  <path class="cls-43" d="M428.87,1426.44l-23.23-1.95c-2.96-.25-5.74,1.44-6.89,4.18l-9.03,21.5c-2.57,6.12-11.48,5.38-12.99-1.09l-5.33-22.7c-.68-2.89-3.14-5.02-6.1-5.26l-23.23-1.95c-6.62-.55-8.66-9.25-2.98-12.69l19.94-12.08c2.54-1.54,3.8-4.54,3.12-7.43l-5.33-22.7c-1.52-6.46,6.12-11.1,11.15-6.76l17.65,15.23c2.25,1.94,5.49,2.21,8.03.67l19.94-12.08c5.68-3.44,12.44,2.39,9.87,8.52l-9.03,21.5c-1.15,2.74-.41,5.91,1.84,7.85l17.65,15.23c5.03,4.34,1.57,12.58-5.05,12.02Z"/>
  <path class="cls-43" d="M2263.06,1265.41l-23.23-1.95c-2.96-.25-5.74,1.44-6.89,4.18l-9.03,21.5c-2.57,6.12-11.48,5.38-12.99-1.09l-5.33-22.7c-.68-2.89-3.14-5.02-6.1-5.26l-23.23-1.95c-6.62-.55-8.66-9.25-2.98-12.69l19.94-12.08c2.54-1.54,3.8-4.54,3.12-7.43l-5.33-22.7c-1.52-6.46,6.12-11.1,11.15-6.76l17.65,15.23c2.25,1.94,5.49,2.21,8.03.67l19.94-12.08c5.68-3.44,12.44,2.39,9.87,8.52l-9.03,21.5c-1.15,2.74-.41,5.91,1.84,7.85l17.65,15.23c5.03,4.34,1.57,12.58-5.05,12.02Z"/>
  <g>
    <path class="cls-33" d="M688.38,980.27s27.76,4.26,29.87,8.71c2.33,4.92-3.8,37.73-14.41,56.01-5.97,10.3-10.21,9.59-15.79,7l-24.52-11.39,24.85-60.33Z"/>
    <path class="cls-5" d="M690.91,982c-1.6-2.01-17.08-11.58-20.89-25.38-4.11-14.88,3.5-34.35-7.08-36.14-10.27-1.73-22.15,34.68-22.86,36.88-.02.06-.08.09-.14.07-2.02-.73-28.49-9.55-37.57-7.08-10.11,2.75-6.97,13.77-6.97,13.77-2.95-.16-15.73,2.72-7.56,18.33.04.08,0,.16-.07.21-2.29,1.45-14.1,7.53-.3,19.9,0,0-10.23,8.65.34,16.35,10.57,7.7,70.12,23.75,75.71,21.71,13.56-4.95,34.33-49.87,27.38-58.6Z"/>
  </g>
  <g>
    <path class="cls-33" d="M1947.9,1212.42s37.24-2.69,41.28,2.45c4.47,5.69,6.23,50.02-2.11,76.85-4.7,15.11-10.4,15.44-18.39,13.74l-35.15-7.51,14.37-85.53Z"/>
    <path class="cls-5" d="M1951.68,1213.9c-2.67-2.13-25.56-9.96-34.57-26.71-9.72-18.06-5.62-45.55-19.86-44.74-13.82.79-18.45,51.49-18.72,54.55,0,.08-.08.14-.16.13-2.84-.34-39.74-3.95-50.78,1.93-12.29,6.55-4.96,19.9-4.96,19.9-3.87.66-19.58,8.17-4.38,25.98.07.09.05.21-.03.29-2.54,2.56-16.04,13.92,5.49,25.88,0,0-10.7,14.23,5.27,21.08,15.97,6.85,97.89,10.05,104.53,5.75,16.11-10.42,29.75-74.78,18.16-84.04Z"/>
  </g>
  <text class="cls-15" transform="translate(1376.61 208.32) scale(1.01 1)"><tspan class="cls-6" x="0" y="0">A</tspan><tspan x="24.62" y="0">lvin Engler</tspan></text>
  <text class="cls-16" transform="translate(1370.08 269.32)"><tspan x="0" y="0">CE</tspan><tspan class="cls-35" x="32.5" y="0">O</tspan><tspan x="52.35" y="0">,</tspan><tspan class="cls-29" x="58.63" y="0"> </tspan><tspan class="cls-11" x="63.96" y="0">W</tspan><tspan class="cls-26" x="88.61" y="0">est</tspan><tspan class="cls-41" x="125.83" y="0"> </tspan><tspan class="cls-22" x="131.02" y="0">T</tspan><tspan x="145.87" y="0">hi</tspan><tspan class="cls-7" x="169.79" y="0">r</tspan><tspan x="179.4" y="0">d E</tspan><tspan class="cls-8" x="217.83" y="0">n</tspan><tspan class="cls-20" x="234.54" y="0">t</tspan><tspan x="244.39" y="0">e</tspan><tspan class="cls-1" x="259.58" y="0">r</tspan><tspan x="269.61" y="0">p</tspan><tspan class="cls-1" x="286.86" y="0">r</tspan><tspan x="296.89" y="0">ise</tspan><tspan class="cls-2" x="331.18" y="0">s</tspan><tspan class="cls-32" x="342.85" y="0">, </tspan><tspan class="cls-3" x="355.55" y="0">I</tspan><tspan x="363.1" y="0">n</tspan><tspan class="cls-7" x="379.92" y="0">c</tspan><tspan x="393.2" y="0">.</tspan></text>
  <text class="cls-15" transform="translate(29.9 332.19) scale(1.01 1)"><tspan class="cls-18" x="0" y="0">P</tspan><tspan x="20.45" y="0">ascal</tspan><tspan class="cls-28" x="103.07" y="0"> </tspan><tspan class="cls-42" x="109.98" y="0">T</tspan><tspan class="cls-27" x="128.25" y="0">r</tspan><tspan x="141.06" y="0">embl</tspan><tspan class="cls-25" x="227.56" y="0">a</tspan><tspan class="cls-36" x="246.72" y="0">y</tspan></text>
  <text class="cls-16" transform="translate(33 395.39)"><tspan class="cls-47" x="0" y="0">C</tspan><tspan class="cls-34" x="17.49" y="0">r</tspan><tspan class="cls-21" x="27.1" y="0">e</tspan><tspan class="cls-19" x="42.29" y="0">a</tspan><tspan class="cls-21" x="56.78" y="0">ti</tspan><tspan class="cls-7" x="73.91" y="0">v</tspan><tspan x="88.18" y="0">e </tspan><tspan class="cls-17" x="109.8" y="0">L</tspan><tspan x="123.68" y="0">ea</tspan><tspan class="cls-34" x="153.48" y="0">d</tspan><tspan x="170.27" y="0">, </tspan><tspan class="cls-9" x="182.97" y="0">G</tspan><tspan class="cls-23" x="202.71" y="0">ood </tspan><tspan class="cls-3" x="259.52" y="0">K</tspan><tspan x="276.25" y="0">ind</tspan></text>
</svg>